<?xml version="1.0" encoding="utf-8"?>
<!-- Generator: Adobe Illustrator 18.1.0, SVG Export Plug-In . SVG Version: 6.00 Build 0)  -->
<svg version="1.1" id="Layer_1" xmlns="http://www.w3.org/2000/svg" xmlns:xlink="http://www.w3.org/1999/xlink" x="0px" y="0px"
	 viewBox="-212 244 1224 792" enable-background="new -212 244 1224 792" xml:space="preserve">
<path fill="#ACB8BF" d="M-212,244h1224v792H-212V244z"/>
<path fill="#D8D8D8" d="M106,294.5v413.9c0,5.7-4.6,10.3-10.3,10.3h-269.3c-5.7,0-10.3-4.6-10.3-10.3V294.5
	c0-5.7,4.6-10.3,10.3-10.3H95.8C101.5,284.1,106,288.8,106,294.5z"/>
<g>
	<path fill="#FFFFFF" d="M-56.7,478.9c2.9,4.3,6.9,6.7,12.2,6.4c5.3-0.3,8.9-3.3,11.2-7.9c0.6,0.1,1.2,0.4,1.7,0.6
		c2.6,1,5.3,2.4,7.5,4.2c1.1,0.8,2.2,1.5,3.2,2.5c1,1,1.9,1.9,2.5,3.1c0.6,1,0.8,2.2,0.7,3.3c-0.1,1.2-0.4,2.5-1,3.7
		c-0.3,0.8-0.8,1.7-1,2.6c-0.4,1.5-0.6,2.9-0.3,4.4c0.1,1.2,0.6,2.5,1,3.7c0.3,1,0.8,1.8,1,2.8c0.1,0.8,0.3,1.7,0.3,2.6
		c-0.1,1-0.4,1.9-1,2.8c-0.8,1.2-1.8,2.2-2.9,3.2c-4.3,3.6-9,6.2-14.4,7.6c-1.9,0.6-3.7,1-5.7,1.1c-1.7,0.1-3.3,0.3-4.9,0.1
		c-2.5-0.1-4.9-0.7-7.1-1.7c-3.1-1.4-5.4-3.5-7.1-6.4c-1-1.7-1.5-3.5-1.7-5.4c-0.1-1.7,0-3.5,0.6-5.1l1.2-3.3l0.6-1.7
		c0.3-0.8,0.1-1.7-0.1-2.5c-0.3-1-0.8-2.1-1.2-3.1c-0.4-1-0.8-2.1-1-3.2c-0.3-1.2-0.3-2.4-0.3-3.7c0.1-1.9,0.6-3.7,1.5-5.6
		c1-2.1,2.4-3.7,4.3-5.1C-56.7,478.9-56.7,478.9-56.7,478.9L-56.7,478.9z M-77,489.8c0.4,0,0.8-0.1,1.2,0c3.2,0.1,5.8,1.2,8.2,3.3
		c1.5,1.2,2.6,2.8,3.5,4.6c0.6,1.2,0.8,2.6,0.7,3.9c0,0.1-0.1,0.1-0.1,0.1c-1.9,0.1-3.9-0.1-5.7-1c-3.9-1.7-6.2-4.7-7.5-8.7
		c-0.1-0.6-0.3-1.2-0.3-1.9C-77,489.9-77,489.8-77,489.8z"/>
</g>
<path fill="#959596" d="M337.4,374v83.6h-190V374c0-46.9,42.6-85,95-85S337.4,327,337.4,374z"/>
<path fill="#898989" d="M336.9,488.9H145.8c-5.7,0-10.3-4.6-10.3-10.3v-51.8c0-5.7,4.6-10.3,10.3-10.3h191c5.7,0,10.3,4.6,10.3,10.3
	v51.8C347.1,484.4,342.6,488.9,336.9,488.9z"/>
<path fill="#FFFFFF" d="M592,984.1c-6.8,0-13.6,0.1-20.4,0c-5.3-0.1-10.7-0.3-15.8-1.9c-4.2-1.2-7.6-3.3-10.1-6.9
	c-1.7-2.5-2.4-5.3-2.6-8.2c-0.6-5.4-0.6-11-0.1-16.4c0.3-3.5,0.8-6.8,2.8-9.7c2.1-3.2,5.3-5.1,8.9-6.4c3.6-1.2,7.4-1.9,11.1-2.1
	c12.2-0.7,24.4-0.3,36.5-0.3c4.6,0,9.3,0,13.9,0.1c5,0.1,9.9,0.8,14.6,2.8c6.4,2.6,9.9,7.4,10.6,14.2c0.6,6,0.6,12.1,0,17.9
	c-0.4,3.7-1.5,7.1-4,9.9c-2.4,2.6-5.4,4.2-8.7,5.1c-3.9,1.2-7.9,1.7-11.9,1.8C608.2,983.9,600,983.9,592,984.1L592,984.1L592,984.1z
	"/>
<g>
	<path fill="#EFEFEF" d="M560.5,961.6c-0.6-0.7-1.1-1.1-1.9-1c-0.8,0.1-1.5,0.6-1.8,1.2l-0.3-0.1c-0.4-0.1-0.8-0.4-1.2-0.7
		c-0.1-0.1-0.3-0.3-0.6-0.4l-0.4-0.6c-0.1-0.1-0.1-0.3-0.1-0.6c0-0.3,0.1-0.4,0.1-0.6l0.1-0.4c0.1-0.3,0.1-0.4,0.1-0.7
		c0-0.1-0.1-0.4-0.1-0.6l-0.1-0.4c0-0.1-0.1-0.3,0-0.4c0-0.1,0.1-0.3,0.1-0.4c0.1-0.1,0.3-0.3,0.4-0.6c0.7-0.6,1.5-1,2.4-1.2
		c0.3-0.1,0.6-0.1,1-0.1h0.8c0.4,0,0.8,0.1,1.1,0.3c0.6,0.3,0.8,0.6,1.1,1c0.1,0.3,0.3,0.6,0.3,0.8c0,0.3,0,0.6-0.1,0.8
		c-0.1,0.1-0.1,0.3-0.1,0.6l-0.1,0.3v0.4l0.1,0.6l0.1,0.6c0.1,0.1,0.1,0.4,0,0.6c0,0.3-0.1,0.6-0.3,0.8
		C560.9,961.1,560.6,961.3,560.5,961.6L560.5,961.6z M563.7,959.9h-0.1c-0.6,0-1-0.1-1.2-0.6c-0.3-0.1-0.4-0.4-0.6-0.8
		c-0.1-0.1-0.1-0.4-0.1-0.6c0.3,0,0.6,0,1,0.1c0.6,0.3,1,0.8,1.2,1.4C563.7,959.6,563.7,959.8,563.7,959.9L563.7,959.9z"/>
</g>
<path fill="#3F2D23" d="M191.3,949.3c-2.8,1-5-2.2-5.3-2.6c0,0,0-0.1-0.1-0.1l-33.3-36.1c-0.7-0.7-1.5-1.1-2.6-1.1H82.8
	c-1,0-1.9,0.4-2.6,1.1l-33.3,36.1l-0.1,0.1c-0.3,0.4-2.5,3.6-5.3,2.6c-3.1-1-6.2-4.2-2.4-7.5c3.3-2.9,22.8-24.7,29-31.5
	c0.7-0.8,0.1-2.1-1-2.1H51.9c-0.6,0-0.8-0.6-0.4-1l6.4-7.5c0.1-0.1,0.3-0.1,0.4-0.1h116.4c0.1,0,0.3,0.1,0.4,0.1l6.4,7.5
	c0.3,0.3,0.1,1-0.4,1h-15.6c-1.1,0-1.7,1.2-1,2.1c6.1,6.9,25.7,28.7,29,31.5C197.6,945,194.4,948.2,191.3,949.3L191.3,949.3z"/>
<g>
	<path fill="#3F2D23" d="M78.7,894.1c7.4,0.1,12.9,0.8,18.5,2.1l13.6,2.9c4.6,1,9.2,0.6,13.7-0.3c5.6-1.1,11-2.4,16.4-3.2
		c7.4-1.2,14.6-1.5,22.1-0.7c7.8,0.8,15.7,1.9,23.5,2.8c1,0.1,1.2,0.3,1.2,1.4l0.1,7.1c0,1-0.1,1.2-1.2,1.4
		c-1.1,0.1-1.8,0.8-2.4,1.7c-1,1.5-1.1,3.2-1.5,4.9c-0.8,4.9-1.7,9.7-3.3,14.4c-1.7,4.9-4.4,8.9-9.2,11.4c-2.8,1.5-5.7,2.2-8.9,2.6
		c-4.9,0.6-9.9,0.6-14.9-0.3c-7.2-1.2-12.8-5-16.8-11.1c-3.2-4.9-5.3-10.3-7.1-15.8c-0.3-1-0.7-2.1-1.2-3.1c-1.9-3.3-6.7-3.9-9.3-1
		c-1.2,1.2-1.9,2.8-2.6,4.4c-1.5,3.5-2.8,7.1-4.4,10.6c-2.4,4.7-5.6,8.9-10,11.8c-3.5,2.2-7.4,3.5-11.4,4.2
		c-5.1,0.8-10.3,0.8-15.3-0.6c-4.2-1.1-7.9-2.8-11-6c-2.1-2.1-3.5-4.6-4.3-7.5c-1.5-5.6-2.8-11.1-3.7-16.8c-0.3-2.2-1.5-3.7-3.6-4.4
		c-0.7-0.1-1-0.7-1-1.2c0-2.4,0.1-4.9,0.1-7.2c0.1-1.2,0.6-1.7,1.9-1.8c7.2-0.7,14.4-1.4,21.7-1.9C72.7,894.3,76.6,894.3,78.7,894.1
		L78.7,894.1z M78.5,896.9H74c-3.1,0.1-6,0.3-8.9,1c-4.9,1.2-8.2,4.2-9.6,9.2c-0.6,2.1-0.8,4.4-1,6.5c-0.3,4.3,0,8.7,1.2,12.8
		c2.4,7.6,7.4,12.4,15.3,13.6c3.5,0.6,7.1,0.6,10.6,0.1c7.4-0.8,13.3-3.7,17.8-9.6c4.4-5.7,6.4-12.5,7.1-19.6c0.3-3.3-1.1-6-3.7-8.2
		c-2.4-1.9-5.1-3.1-8.1-3.9C89.5,897.3,84.1,896.8,78.5,896.9L78.5,896.9z M151.3,897.2c-2.8,0-6.7,0.3-10.6,1
		c-3.2,0.6-6.2,1.5-8.9,3.3c-3.5,2.2-5.3,5.4-5.1,9.6c0.4,5.1,1.5,10.1,3.7,14.9c3.3,6.9,8.6,11.7,16.1,13.5
		c5.7,1.4,11.4,1.5,17.1,0.3c6.8-1.2,11.1-5.3,12.9-11.9c0.8-2.8,1.2-5.7,1.4-8.6c0.3-3.6,0.6-7.1-0.1-10.7
		c-0.6-3.9-2.6-7.1-6.2-8.7c-1.7-0.8-3.5-1.2-5.3-1.7C161.9,897.2,157.1,897.2,151.3,897.2L151.3,897.2z"/>
	<path opacity="0.37" fill="#FFFFFF" enable-background="new    " d="M78.5,896.9c5.6-0.1,11,0.4,16.1,1.9c2.9,0.8,5.7,2.1,8.1,3.9
		c2.6,2.1,4,4.7,3.7,8.2c-0.6,7.1-2.6,13.9-7.1,19.6s-10.6,8.9-17.8,9.6c-3.5,0.3-7.1,0.6-10.6-0.1c-7.9-1.4-12.9-6-15.3-13.6
		c-1.2-4.2-1.5-8.5-1.2-12.8c0.1-2.2,0.4-4.4,1-6.5c1.2-5,4.6-7.9,9.6-9.2c2.9-0.7,5.8-1,8.9-1C75.5,896.9,77,896.9,78.5,896.9
		L78.5,896.9z M151.3,897.2c5.8,0,10.6,0.1,15.1,1c1.8,0.4,3.6,1,5.3,1.7c3.7,1.7,5.7,4.7,6.2,8.7c0.6,3.6,0.3,7.1,0.1,10.7
		c-0.1,2.9-0.6,5.7-1.4,8.6c-1.9,6.7-6.2,10.7-12.9,11.9c-5.7,1.1-11.4,1-17.1-0.3c-7.5-1.9-12.8-6.7-16.1-13.5
		c-2.2-4.6-3.5-9.7-3.7-14.9c-0.3-4.2,1.5-7.4,5.1-9.6c2.8-1.7,5.7-2.6,8.9-3.3C144.6,897.3,148.5,897.2,151.3,897.2z"/>
</g>
<path fill="#D8D8D8" d="M47.2,900.3c0,0,2.6-2.5,4.9,0C52,900.3,49.5,902,47.2,900.3z M181.6,900.3c0,0,2.6-2.5,4.9,0
	C186.4,900.3,184.1,902,181.6,900.3z"/>
<ellipse fill="#FFFFFF" cx="229.9" cy="606.9" rx="97.1" ry="97.6"/>
<ellipse fill="#F5F5F9" cx="229.9" cy="606.9" rx="89.9" ry="90.4"/>
<ellipse fill="#9D6449" cx="229.9" cy="606.9" rx="88.3" ry="88.9"/>
<path fill="#6DA429" d="M187.8,509.6c0,0,17.9,1.5,18.7,13.5l-7.2,44.4l-15.7-19.9C183.5,547.7,173.7,521.9,187.8,509.6L187.8,509.6
	z M130.9,635.3c0,0-0.3-12.8,13.7-20.3c14-7.5,25,13.9,25,13.9l-12.9,17.5C156.6,646.6,141.7,648.5,130.9,635.3z M136.3,562.4
	c0,0,5.4-1.9,8.1-2.5c2.6-0.6,10.4-5.3,23.5,1.9c13.1,7.1,26.9,17.4,26.9,17.4l4.7,11.5c0,0-20.8-4.7-25.4-5.7
	C169.5,583.9,140.9,585.7,136.3,562.4L136.3,562.4z"/>
<path fill="#5F932F" d="M285.6,656.2c0,0,6.4,9.7,18.5,4l5.1-3.3l0.6-8.1c0,0,1-8.9-11.5-18.2l-54-18.5L252,626L285.6,656.2
	L285.6,656.2z"/>
<path fill="#6B9B26" d="M297.7,579.5c0,0,11.5-1.8,11.5-15l-0.8-6l-7.1-3.9c0,0-7.6-4.6-21.4,2.8c-13.6,7.4-39.6,41.1-39.6,41.1
	l16-1.1L297.7,579.5z"/>
<path fill="#5F932F" d="M299.5,615.7c0,0,9.6,6.7,18.7-3.1l3.6-4.9l-2.5-7.8c0,0-2.4-8.6-17.4-12.6c-15-4-57.1,2.6-57.1,2.6l12.4,10
	L299.5,615.7z M253.5,537.3c0,0,5.6-18.5-4.6-26.9l-5.1-3.3l-7.5,3.1c0,0-10.7,6.2-13.7,21.5l-0.6,53.5l18.6-12.9L253.5,537.3
	L253.5,537.3z"/>
<path fill="#83B042" d="M273.3,596.3c0,0,27.6-3.7,41.4,9.2c0,0,7.5,7.8,7.1,14.9c0,0-6,14.2-26.9,11c-21-3.3-45.8-18.5-45.8-18.5
	l-16.9-6.2L273.3,596.3L273.3,596.3z"/>
<path fill="#6DA429" d="M185.2,668.7c0,0-1.7,18.7,7.6,22.4c0,0,16.4,0.6,20.1-15c3.7-15.7,5.1-46.9,5.1-46.9L185.2,668.7
	L185.2,668.7z M226.2,686.2c0,0,8.1,17.1,17.9,15.4c0,0,14.3-7.8,9.6-23.2l-19.6-43.1L226.2,686.2L226.2,686.2z"/>
<path fill="#6B9B26" d="M156.6,584.1c0,0-22.1,2.6-23.5,12.5c0,0,3.2,16,19.3,16.1s46.8-6,46.8-6L156.6,584.1L156.6,584.1z"/>
<path fill="#83B042" d="M174.4,622.1c0,0-21.9,6.4-20.8,27.6v6.4c0,0,9.2,2.8,16.1,1.4c6.9-1.4,22.6-9.6,22.6-9.6l11.8-37.1
	L174.4,622.1L174.4,622.1z"/>
<path fill="#5F932F" d="M210.9,602.1l-19.6-1.7c0,0-22.1-0.3-36.9,4.6c-14.9,4.9-15.3,18.1-15.3,18.1s10.1,11.2,21,7.2
	c11-4,51.9-19.7,51.9-19.7L210.9,602.1z M158.7,536.7c0,0,8.7-2.8,17.9,2.1c9.2,4.9,24.7,19,31.9,38.1l10.4,22.4l-15-6.5
	c0,0-15.8-6.2-30.1-21C173.8,571.7,149.6,553.7,158.7,536.7z"/>
<path fill="#83B042" d="M153.5,579.9c0,0,5-1.7,7.2-2.4c2.4-0.6,9.4-4.7,21.4,1.7l24.4,15.8l4.3,10.6c0,0-18.9-4.3-23.1-5.3
	C183.7,599.4,157.6,601.2,153.5,579.9z"/>
<path fill="#5F932F" d="M244.9,672.7c0,0,0.3,11.7,13.5,13.3h6.1l4.9-6.7c0,0,5.6-6.9,0-21.5s-35.7-44.6-35.7-44.6l-1,16
	L244.9,672.7L244.9,672.7z M218,631.2c0,0-6,8.5-9.3,16.7c-3.3,8.2-4,22.1-24.9,26.1h-5.6l-1.5-4.9c0,0-6.4-15.8,11.1-28.5
	c17.5-12.6,26.1-27.9,26.1-27.9l7.2,0.8L218,631.2L218,631.2z"/>
<path fill="#6DA429" d="M206.7,610.6l-15.4,9.6c0,0-9.9,4.3-11.4,10.4c-1.5,6.1-1.5,8.7-1.5,8.7s3.6,4,6.4,4.6
	c2.8,0.6,6.7,2.4,13.2-6.9c6.4-9.3,20-22.1,20-22.1L206.7,610.6L206.7,610.6z"/>
<path fill="#83B042" d="M215.6,631.9c0,0-5.6,12.9-6.7,24c0,0-8.2,21.9,1.1,30.1l5.6,5l8.5-4c0,0,16.8-8.5,8.7-27.1
	c-8.1-18.7,0-1,0-1l-1.7-31.4L215.6,631.9L215.6,631.9z"/>
<path fill="#6B9B26" d="M233,616c0,0,8.1,17.6,11.8,23.7c3.9,6.2,21.1,27.1,5,39.6c0,0-18.9-0.1-20.7-31.7l-6.7-30.1L233,616
	L233,616z"/>
<path fill="#83B042" d="M232.7,615.3c0,0-0.1,6,7.9,12.2c8.1,6.2,14.6,20.7,15.1,22.1c0.6,1.2,8.2,21.9,31.7,20.3
	c0,0,8.5-16.1-4.2-30.1c-12.6-14-32.5-21.4-32.5-21.4L232.7,615.3L232.7,615.3z M196.9,516.9c0,0,4.6,1.5,6.7,2.4
	c2.1,0.8,18.5,8.5,17.5,32.8c-0.8,24.3,3.1,36-1.5,50.6c0,0-13.6-20.4-21-41.2c0,0-11.8-24.2-5.6-37.8L196.9,516.9z"/>
<path fill="#6DA429" d="M218,615.1c0,0-7.1,6.9-4.4,17.5c0,0,3.3,6.2,8.9,4.2c5.6-2.1,6.2-3.9,6.2-6.9l-7.4-16.4L218,615.1
	L218,615.1z"/>
<path fill="#6B9B26" d="M218,606.3c0,0-6.7-4.3-10.6,3.1c-3.9,7.4,1.2,9.7,3.3,11c1.9,1.1,6.2-8.3,6.2-8.3L218,606.3z"/>
<path fill="#6DA429" d="M220.3,601.3c0,0-7.4-11.7-17.2-9.6c0,0-3.9,3.3-0.7,9.6s15.4,5,15.4,5L220.3,601.3z"/>
<path fill="#83B042" d="M242.4,565.7c0,0,7.5-24.4,15.8-30.6c8.5-6.1,15.8-8.6,23.5-6.9c0,0,13.3,9.9-1.4,28.7
	c-14.7,18.9-47.8,45-47.8,45l-8.6-5.8L242.4,565.7L242.4,565.7z"/>
<path fill="#6B9B26" d="M218.9,601.7c0,0,2.4-19.3,2.4-26.1c-0.1-6.9-2.4-17.4,6.7-22.4c0,0,3.3-2.4,10.7-1.4c0,0,9.2,7.5,5.6,18.9
	c0,0-1.1,4-6.9,12.1c-5.7,8.1-10.3,28.7-10.3,28.7l-8.9,1.1L218.9,601.7L218.9,601.7z"/>
<path fill="#6DA429" d="M229.1,597.6c0,0,19-8.2,27.5-12.5c6-3.1,21.9-17.1,35.3-12.4c13.3,4.6,12.1,4.4,12.1,4.4
	s-2.4,16.4-17.1,19.3l-54.4,11.7L229.1,597.6z"/>
<path fill="#6B9B26" d="M231,605.5c0,0,10.7,2.1,15.8,2.5c5.1,0.3,13.2-1.5,16.8,11c0,0-4.4,9.6-17.5,5c-13.1-4.6-20-9.9-20-9.9
	L231,605.5z"/>
<path fill="#83B042" d="M221.7,609.2c0,0,3.3,9.2-4.9,8.5C208.5,616.9,218.1,604.1,221.7,609.2z"/>
<path fill="#5F932F" d="M225.5,606.4c0,0-2.4-5.1-7.5-6c-5.1-0.8-5.7,4.4-5.7,4.4S214.5,610.6,225.5,606.4L225.5,606.4z M223.4,608
	c0,0,10.1-1.2,7.1,11.4c0,0-1.5,3.6-7.1,2.5C223.4,621.9,218.4,614.6,223.4,608L223.4,608z"/>
<path fill="#83B042" d="M222.4,601.2c0,0,3.3,8.1,7.5,8.3c0,0,3.3,3.5,3.6-1.5c0.3-5-2.4-12.2-9.6-11.7
	C223.9,596.3,220.9,598.2,222.4,601.2L222.4,601.2z"/>
<path fill="#A9A1A5" d="M-142.3,144.8l-1.7,1.2"/>
<path fill="#702137" d="M758.9,290.2v1.9h-27.5v-18.9h10.7L758.9,290.2z"/>
<path fill="#7D2636" d="M731.4,273.3v18.9h-27.5l-0.1-1.9l16.9-16.9H731.4z"/>
<path fill="#772436" d="M703.9,291.7H721v19h-17.1V291.7z M741.7,292.2h17.1v19h-17.1V292.2z M870.4,678.8v1.8
	c0,15.4-12.6,28.1-28.1,28.1H618.8c-15.4,0-28.1-12.6-28.1-28.1v-1.8H870.4z"/>
<path fill="#7D2636" d="M870.4,382.4v296.4H590.9V382.4c0-15.4,12.6-28.1,28.1-28.1h223.6C857.8,354.4,870.4,367,870.4,382.4
	L870.4,382.4z"/>
<path fill="#702137" d="M663,580.6h138.6v98.2H663V580.6z M855.2,487H606.3c-10.7,0-19.4-8.7-19.4-19.4v-141
	c0-10.7,8.7-19.4,19.4-19.4H855c10.7,0,19.4,8.7,19.4,19.4v141C874.5,478.3,865.7,487,855.2,487z"/>
<path fill="#9D6449" d="M644.3,307.2v401.5h26.1V307.2H644.3z M814.6,307.2v401.5h-26.1V307.2H814.6z"/>
<path fill="#915740" d="M670.5,307.2v233.6l-13.1,11.8l-12.9-11.8V307.2H670.5z M814.6,307.2v233.6l-13.1,11.8l-13.1-11.8V307.2
	H814.6z"/>
<path fill="#6D5F5F" d="M671.6,521.4H643c-1.7,0-3.1-1.4-3.1-3.1v-25.7c0-1.7,1.4-3.1,3.1-3.1h28.6c1.7,0,3.1,1.4,3.1,3.1v25.7
	C674.8,520.1,673.4,521.4,671.6,521.4z"/>
<path fill="#915740" d="M668.4,518.4h-21.9c-1.7,0-3.1-1.4-3.1-3.1v-19.7c0-1.7,1.4-3.1,3.1-3.1h21.9c1.7,0,3.1,1.4,3.1,3.1v19.7
	C671.3,517,669.9,518.4,668.4,518.4L668.4,518.4z"/>
<path fill="#6D5F5F" d="M815.9,521.4h-28.6c-1.7,0-3.1-1.4-3.1-3.1v-25.7c0-1.7,1.4-3.1,3.1-3.1h28.6c1.7,0,3.1,1.4,3.1,3.1v25.7
	C818.8,520.1,817.4,521.4,815.9,521.4z"/>
<path fill="#915740" d="M812.5,518.4h-21.9c-1.7,0-3.1-1.4-3.1-3.1v-19.7c0-1.7,1.4-3.1,3.1-3.1h21.9c1.7,0,3.1,1.4,3.1,3.1v19.7
	C815.6,517,814.2,518.4,812.5,518.4z"/>
<path fill="#FFFFFF" d="M695.3,608.5h71.5V652h-71.5V608.5z"/>
<path fill="none" stroke="#000000" stroke-miterlimit="10" d="M699.3,611.9h63.5v36.9h-63.5V611.9z"/>
<path fill="none" stroke="#000000" stroke-width="0.7" stroke-miterlimit="10" d="M709.5,635.9h42.9 M709.5,626h42.9"/>
<path fill="#5C6266" d="M532.3,456.3h11.8v9.9h-11.8V456.3z"/>
<path fill="#454B4F" d="M532.3,466.2h11.8v9.9h-11.8V466.2z"/>
<path fill="#EFB35B" d="M403.7,466.2h128.5v9.9H403.7V466.2z"/>
<path fill="#FECB65" d="M403.7,456.3h128.5v9.9H403.7V456.3z"/>
<path fill="#EF766A" d="M551.8,474.8h-7.8v-8.6h9.2v7.8C553.1,474.4,552.5,474.8,551.8,474.8z"/>
<path fill="#FD8B77" d="M553.1,466.2h-9.2v-8.1h7.8c0.7,0,1.2,0.4,1.2,1L553.1,466.2L553.1,466.2z"/>
<path fill="#FFFEFD" d="M403.7,466.2h-20.4v-3.3l20.4-6.5V466.2z"/>
<path fill="#F5F5F5" d="M403.7,476l-20.4-6.2v-3.6h20.4V476z"/>
<path fill="#454B4F" d="M383.2,469.8l-11.1-3.5l0.7-0.1h10.4V469.8z"/>
<path fill="#5C6266" d="M383.2,466.2h-10.4l10.4-3.3V466.2z"/>
<path fill="#E6E7E8" d="M505.7,390.1h9.3c0.6,0,0.8,0.3,0.8,0.8v7.8h-11.1v-7.8C504.9,390.5,505.3,390.1,505.7,390.1z"/>
<path fill="#BCBEC0" d="M504.9,398.8H516v8.1c0,0.6-0.3,0.8-0.8,0.8h-9.3c-0.6,0-0.8-0.3-0.8-0.8v-8.1H504.9z"/>
<path fill="#F1F2F2" d="M553.4,397.1c0.8,0,1.5,0.6,1.7,1.2h-19c-0.1-1-1-1.7-2.1-1.7s-2.1,1-2.1,2.1v0.1h-15.7v-6.5l17.8-2.1
	l17.9,8.2C552,397.6,552.5,397.1,553.4,397.1z"/>
<path fill="#D1D3D4" d="M533.8,400.8c1,0,1.7-0.7,1.9-1.5h19c-0.1,0.7-0.8,1.2-1.5,1.2s-1.2-0.4-1.5-1l-18.1,8.1l-17.8-2.1v-6.7
	h15.7C531.7,399.9,532.7,400.8,533.8,400.8z"/>
<path fill="#00B0B0" d="M504.9,393.5v5.1H372.7c0.1-0.1,0.4-1.2,2.6-1.9C377.7,396,450.3,384.4,504.9,393.5z"/>
<path fill="#029E96" d="M372.7,398.8h132.2v5.7c0,0-37.2,11.9-129.7-3.7C375.2,400.8,373.1,400.3,372.7,398.8z"/>
<path fill="#2D2D2D" d="M545.9,312.3h5.1c1.7,0,3.1,1,3.1,2.4v16H546v-18.3H545.9z"/>
<path fill="#231F20" d="M545.9,330.6h8.1v15.8c0,1.2-1.4,2.4-3.1,2.4h-5.1v-18.2H545.9z"/>
<path fill="#2D2D2D" d="M416.9,312.3h4.4v18.2h-4.4V312.3z"/>
<path fill="#231F20" d="M416.9,330.6h4.4v18.2h-4.4V330.6z"/>
<path fill="#F1F2F2" d="M421.3,330.6h2.4v18.2h-2.4V330.6z"/>
<path fill="#FFFFFF" d="M421.3,312.3h2.4v18.2h-2.4V312.3z"/>
<path fill="#2D2D2D" d="M423.8,312.3h119.7v18.2H423.8V312.3z"/>
<path fill="#231F20" d="M423.8,330.6h119.7v18.2H423.8V330.6z"/>
<path fill="#F1F2F2" d="M543.4,330.6h2.4v18.2h-2.4V330.6z"/>
<path fill="#FFFFFF" d="M543.4,312.3h2.4v18.2h-2.4V312.3z"/>
<path fill="#BCBEC0" d="M393.4,330.6h23.5v18.2l-23.5-8.7V330.6z"/>
<path fill="#D1D3D4" d="M416.9,312.3v18.2h-23.5v-9.2L416.9,312.3z"/>
<path fill="#CECECE" d="M383.5,330.6h9.9v8.1h-9.9V330.6z"/>
<path fill="#DBDBDB" d="M383.5,322.6h9.9v8.1h-9.9V322.6z"/>
<path fill="#2D2D2D" d="M371.2,324.1h12.4v6.4h-10L371.2,324.1z"/>
<path fill="#231F20" d="M373.5,330.6h10v6.4h-7.8L373.5,330.6z"/>
<path fill="#FFFFFF" d="M610.2,734.5h-2.1c-0.1-0.3-0.6-0.6-0.8-0.6h-11.7c-0.3,0-0.7,0.1-0.8,0.6h-40.7c-5.6,0-10,4.4-10,10v12.6
	c-0.3,0.1-0.6,0.6-0.6,1v5.3c0,0.4,0.3,0.8,0.6,1v7.8c-0.3,0.1-0.6,0.6-0.6,1v4c0,0.4,0.3,0.8,0.6,1v7.4c-0.3,0.1-0.6,0.6-0.6,1v4
	c0,0.4,0.3,0.8,0.6,1V885c0,5.6,4.4,10,10,10h56.1c5.6,0,10-4.4,10-10V744.5C620.2,739.1,615.7,734.5,610.2,734.5L610.2,734.5z"/>
<circle fill="#F4F4F4" cx="581.8" cy="883.6" r="7.2"/>
<path fill="#E7E7E7" d="M587.4,747.3h-11.1c-0.6,0-1.1,0.6-1.1,1.1c0,0.6,0.6,1.1,1.1,1.1h11.1c0.6,0,1.1-0.6,1.1-1.1
	C588.5,747.8,588,747.3,587.4,747.3z"/>
<path fill="#303030" d="M550.3,757.4H615V872h-64.7V757.4z"/>
<path fill="#FFFFFF" d="M-183.4,754.2c0,0,0.3-8.5,8.9-8.9H3.1c0,0,12.5-0.8,13.2,8.9v238.7c0,0,0.8,12.1-9.6,11.7
	c-10.6-0.6-178.9,0-178.9,0s-10.3,1-11.1-8.5C-184.4,986.7-183.4,754.2-183.4,754.2z"/>
<path fill="#303030" d="M-163.4,768.7H-3.5v213h-159.9V768.7z"/>
<circle fill="#F4F4F4" cx="-83.8" cy="992.9" r="7.1"/>
<path fill="#C63E2C" d="M77.6,773.8v43.9c0,7.5-6,13.5-13.5,13.5H64v-57.2h11.1v-0.1H77.6L77.6,773.8z"/>
<path fill="#DC4A30" d="M64,773.9v57.2c-7.4-0.1-13.3-6.1-13.3-13.5v-43.9H53v0.1H64z"/>
<path fill="#1F3E51" d="M64,770.2h11.1v3.7H64V770.2z"/>
<path fill="#35586D" d="M53,770.2h11v3.7H53V770.2z"/>
<path fill="#EFEFEF" d="M54.8,757.1V770H64v-12.9H54.8z M60.5,761h-2.8v-1.2h2.8V761z"/>
<path fill="#E5E1DC" d="M64,757.1V770h9.2v-12.9H64z M70.2,761h-2.8v-1.2h2.8V761z"/>
<path fill="#35586D" d="M57.7,759.6h2.8v1.2h-2.8V759.6z"/>
<path fill="#1F3E51" d="M67.4,759.6h2.8v1.2h-2.8V759.6z"/>
<path fill="#EFB35B" d="M129.2,773.8v43.9c0,7.5-6,13.5-13.5,13.5h-0.1v-57.2h11.1v-0.1H129.2L129.2,773.8z"/>
<path fill="#FECB65" d="M115.6,773.9v57.2c-7.4-0.1-13.3-6.1-13.3-13.5v-43.9h2.4v0.1H115.6z"/>
<path fill="#1F3E51" d="M115.6,770.2h11.1v3.7h-11.1V770.2z"/>
<path fill="#35586D" d="M104.6,770.2h11v3.7h-11V770.2z"/>
<path fill="#EFEFEF" d="M106.5,757.1V770h9.2v-12.9H106.5z M112.1,761h-2.8v-1.2h2.8V761z"/>
<path fill="#E5E1DC" d="M115.6,757.1V770h9.2v-12.9H115.6z M121.9,761h-2.8v-1.2h2.8V761z"/>
<path fill="#35586D" d="M109.5,759.6h2.8v1.2h-2.8V759.6z"/>
<path fill="#1F3E51" d="M119.1,759.6h2.8v1.2h-2.8V759.6z"/>
<path fill="#029E96" d="M179.6,773.8v43.9c0,7.5-6,13.5-13.5,13.5H166v-57.2h11.1v-0.1H179.6L179.6,773.8z"/>
<path fill="#00B0B0" d="M166,773.9v57.2c-7.4-0.1-13.3-6.1-13.3-13.5v-43.9h2.4v0.1H166z"/>
<path fill="#1F3E51" d="M166,770.2h11.1v3.7H166V770.2z"/>
<path fill="#35586D" d="M155.1,770.2h11v3.7h-11V770.2z"/>
<path fill="#EFEFEF" d="M156.9,757.1V770h9.2v-12.9H156.9z M162.7,761h-2.8v-1.2h2.8V761z"/>
<path fill="#E5E1DC" d="M166,757.1V770h9.2v-12.9H166z M172.3,761h-2.8v-1.2h2.8V761z"/>
<path fill="#35586D" d="M159.8,759.6h2.8v1.2h-2.8V759.6z"/>
<path fill="#1F3E51" d="M169.5,759.6h2.8v1.2h-2.8V759.6z"/>
<path fill="#FCFCFC" d="M521.7,592.7h37.1c2.2,0,3.9,1.8,3.9,3.9v12.6c0,2.2-1.8,3.9-3.9,3.9h-37.1c-2.2,0-3.9-1.8-3.9-3.9v-12.6
	C517.7,594.5,519.5,592.7,521.7,592.7z"/>
<circle fill="#FFFFFF" cx="446.7" cy="604.9" r="78.1"/>
<circle fill="#915740" cx="446.7" cy="604.9" r="60.7"/>
<path fill="#9D6449" d="M439.1,544.6c2.5-0.3,5.1-0.6,7.6-0.6c33.5,0,60.7,27.2,60.7,60.7s-27.2,60.8-60.7,60.8
	c-2.6,0-5.1-0.1-7.6-0.6c29.9-3.7,53.2-29.3,53.2-60.3C492.3,573.8,468.9,548.5,439.1,544.6z"/>
<path fill="#DC4A30" d="M694.9,988.9v32.5l-5.6-5.1l-5.7,5.1v-32.5H694.9z"/>
<path fill="#FCFCFC" d="M858.1,991.3H673.5c-2.6,0-4.9-2.1-4.9-4.9V739.3c0-2.6,2.1-4.9,4.9-4.9h184.4c2.6,0,4.9,2.1,4.9,4.9v247.2
	C862.9,989.1,860.7,991.3,858.1,991.3L858.1,991.3z"/>
<path fill="#00B0B0" d="M855.2,988.9H670.7c-2.6,0-4.9-2.1-4.9-4.9V737c0-2.6,2.1-4.9,4.9-4.9h184.4c2.6,0,4.9,2.1,4.9,4.9v247.2
	C860.2,986.8,857.9,988.9,855.2,988.9z"/>
<path fill="#029E96" d="M680.3,732.1h17.2v256.9h-17.2V732.1z"/>
<path fill="#FECB65" d="M247.3,748.2c0-3.2,2.6-5.8,5.8-5.8h0.1v-12.8h-24v275.5h24V754.1h-0.1C249.9,754.1,247.3,751.6,247.3,748.2
	z"/>
<path fill="#EFB35B" d="M269.6,995.6v-2.8h7.6v-9.3H262v-2.8h15.3v-9.2h-7.6v-2.8h7.6v-9.3H262v-2.8h15.3v-8.6h-7.6v-2.8h7.6V936
	H262v-2.8h15.3v-9.3h-7.6v-2.8h7.6v-9.3H262v-2.8h15.3v-9.2h-7.6v-2.8h7.6v-9.3H262V885h15.3v-9.2h-7.6v-2.8h7.6v-9.3H262V861h15.3
	v-9.2h-7.6v-2.8h7.6v-9.3H262V837h15.3v-9.3h-7.6v-2.8h7.6v-9.3H262v-2.8h15.3v-9.2h-7.6v-2.8h7.6v-9.3H262v-2.8h15.3v-9.3h-7.6
	v-2.8h7.6v-9.3H262v-2.8h15.3v-34.9h-24v12.8c3.1,0.1,5.6,2.6,5.6,5.8c0,3.2-2.5,5.7-5.6,5.8v251.2h24v-9.7L269.6,995.6L269.6,995.6
	z"/>
<path fill="none" stroke="#59636C" stroke-miterlimit="10" d="M269.6,992.8h7.6v2.8h-7.6V992.8z M262.1,980.6h15.3v2.8h-15.3V980.6z
	 M269.6,968.8h7.6v2.8h-7.6V968.8z M262.1,956.6h15.3v2.8h-15.3V956.6z M269.6,945.3h7.6v2.8h-7.6V945.3z M262.1,933.1h15.3v2.8
	h-15.3V933.1z M269.6,921.1h7.6v2.8h-7.6V921.1z M262.1,908.9h15.3v2.8h-15.3V908.9z M269.6,897.1h7.6v2.8h-7.6V897.1z M262.1,885
	h15.3v2.8h-15.3V885z M269.6,873h7.6v2.8h-7.6V873z M262.1,860.9h15.3v2.8h-15.3V860.9z M269.6,849.1h7.6v2.8h-7.6V849.1z
	 M262.1,836.8h15.3v2.8h-15.3V836.8z M269.6,824.9h7.6v2.8h-7.6V824.9z M262.1,812.7h15.3v2.8h-15.3V812.7z M269.6,800.9h7.6v2.8
	h-7.6V800.9z M262.1,788.8h15.3v2.8h-15.3V788.8z M269.6,776.8h7.6v2.8h-7.6V776.8z M262.1,764.6h15.3v2.8h-15.3V764.6z"/>
<path fill="#59636C" d="M262.1,764.6h15.3v2.8h-15.3V764.6z M269.6,776.8h7.6v2.8h-7.6V776.8z M262.1,788.8h15.3v2.8h-15.3V788.8z
	 M269.6,800.9h7.6v2.8h-7.6V800.9z M262.1,812.7h15.3v2.8h-15.3V812.7z M269.6,824.9h7.6v2.8h-7.6V824.9z M262.1,836.8h15.3v2.8
	h-15.3V836.8z M269.6,849.1h7.6v2.8h-7.6V849.1z M262.1,860.9h15.3v2.8h-15.3V860.9z M269.6,873h7.6v2.8h-7.6V873z M262.1,885h15.3
	v2.8h-15.3V885z M269.6,897.1h7.6v2.8h-7.6V897.1z M262.1,908.9h15.3v2.8h-15.3V908.9z M269.6,921.1h7.6v2.8h-7.6V921.1z
	 M262.1,933.1h15.3v2.8h-15.3V933.1z M269.6,945.3h7.6v2.8h-7.6V945.3z M262.1,956.6h15.3v2.8h-15.3V956.6z M269.6,968.8h7.6v2.8
	h-7.6V968.8z M262.1,980.6h15.3v2.8h-15.3V980.6z M269.6,992.8h7.6v2.8h-7.6V992.8z"/>
<path fill="#7A7B82" d="M367.4,994.2h48.5v8.9h-48.5V994.2z M441.2,983.9h23.1v7.1h-23.1V983.9z"/>
<path fill="#424242" d="M343.7,886.3l4.7,8.6h-16c0,0-15.1,4.2-14.2,20.8l-7.4,43.9l-0.4,11.4c0,0,2.2,10.6,14.4,13.3l31.5,0.8
	c0,0,4.4,10.7,12.9,11.2h46c0,0,12.5-0.4,13.7-14.9l42.6-76.4l-16.8,0.3l-20.7-8.9l5.6-10.3L343.7,886.3L343.7,886.3z"/>
<path d="M343.8,819.2l97.8,1l2.2,13.9H341.2L343.8,819.2z"/>
<path fill="#FECB65" d="M342.7,824.9h99.7l0.6,2.8H342.1L342.7,824.9z"/>
<path fill="#424242" d="M332.8,753.4h2.1l6.7,9.3l4.9-21.1c0,0,1.1-6.7,7.6-8.1c0,0,39.6-3.6,71.1,0c0,0,6.4,0.3,9,6
	c2.6,5.6,6.8,25.1,6.8,25.1l9-11.5l2.5,0.4l-2.4,36.4l-8.7,11.1h-97.6l-9.3-11.4l-2.1-36"/>
<path fill="#DC4A30" d="M334.5,789.5h115.7l0.1-1.7H334.6v1.7H334.5z"/>
<path fill="#424242" d="M343.8,804.3h97.8v16.2h-97.8V804.3z"/>
<path d="M343.8,800.9h97.8v4.4h-97.8V800.9z"/>
<path fill="#6E8386" d="M343.8,805.9h1.7V820h-1.7V805.9z M348,805.9h1.7V820H348V805.9z M351.7,805.9h1.7V820h-1.7V805.9z
	 M355.9,805.9h1.7V820h-1.7V805.9z M360.2,805.9h1.7V820h-1.7V805.9z M364.4,805.9h1.7V820h-1.7V805.9z M368.1,805.9h1.7V820h-1.7
	V805.9z M372.3,805.9h1.7V820h-1.7V805.9z M376.4,805.9h1.7V820h-1.7V805.9z M380.6,805.9h1.7V820h-1.7V805.9z M384.5,805.9h1.7V820
	h-1.7V805.9z M388.5,805.9h1.7V820h-1.7V805.9z M392.5,805.9h1.7V820h-1.7V805.9z M396.7,805.9h1.7V820h-1.7V805.9z M400.5,805.9
	h1.7V820h-1.7V805.9z M404.6,805.9h1.7V820h-1.7V805.9z M408.5,805.9h1.7V820h-1.7V805.9z M412.7,805.9h1.7V820h-1.7V805.9z
	 M416.4,805.9h1.7V820h-1.7V805.9z M420.6,805.9h1.7V820h-1.7V805.9z M424.2,805.9h1.7V820h-1.7V805.9z M428.4,805.9h1.7V820h-1.7
	V805.9z M432.1,805.9h1.7V820h-1.7V805.9z M436.3,805.9h1.7V820h-1.7V805.9z M440,805.9h1.5V820H440V805.9z"/>
<path fill="#414141" d="M438.4,881.7h-92.5c-4.7,0-8.6-3.9-8.6-8.6v-32.2c0-4.7,3.9-8.6,8.6-8.6h92.5c4.7,0,8.6,3.9,8.6,8.6v32.2
	C447,877.8,443.1,881.7,438.4,881.7z"/>
<path d="M343.7,881.7h96.2v4.6h-96.2L343.7,881.7L343.7,881.7z"/>
<path fill="#565656" d="M337.3,840h3.2v26.7h-3.2V840z M344.4,840h3.2v26.7h-3.2V840z M351.7,840h3.2v26.7h-3.2V840z M358.7,840h3.2
	v26.7h-3.2V840z M365.6,840h3.2v26.7h-3.2V840z M372.6,840h3.2v26.7h-3.2V840z M379.9,840h3.2v26.7h-3.2V840z M387,840h3.2v26.7H387
	V840z M393.8,840h3.2v26.7h-3.2V840z M400.7,840h3.2v26.7h-3.2V840z M408,840h3.2v26.7H408V840z M415,840h3.2v26.7H415V840z
	 M422.4,840h3.2v26.7h-3.2V840z M429.5,840h3.2v26.7h-3.2V840z M436.9,840h3.2v26.7h-3.2V840z M443.8,840h3.2v26.7h-3.2V840z"/>
<path fill="#6E8386" d="M343.8,871.4h20.6v5.3h-20.6V871.4z M420.9,871.4h20.6v5.3h-20.6V871.4z M381.9,871.4h20.6v5.3h-20.6V871.4z
	"/>
<path fill="#282324" d="M310.6,927.8c0,0,1-11.8,12.9-13.7h31.4c0,0-2.6-17.4,13.9-20.8h43.5c0,0,14.9-1.9,17.2,16.1v13.2
	c0,0,5.3,9.3,25.7,1.2c0,0,10.6-7.8,16.8-25.7c6.2-17.9,28.1-9.2,34.4,2.1c0,0,27.6,33.7,8.2,75.6c0,0-8.2,13.5-19.7,4.6l-21-0.1
	c0,0,1.2,3.9-3.6,4.6h-36.1l-3.1-1.7h-19.9v-51.7c0,0-7.8-25.3-21.5-33.6c0,0-17.1,11.7-20.7,31.1v53.3c0,0-9-0.8-12.8-11.5h-32.6
	c0,0-12.8-1.7-13.1-14.2C310.2,944.8,310.6,927.8,310.6,927.8L310.6,927.8z"/>
<path d="M339.1,920.7c-12.8,0-22.9,10.3-22.9,22.9c0,12.8,10.3,22.9,22.9,22.9c12.6,0,22.9-10.3,22.9-22.9
	C362,931,351.7,920.7,339.1,920.7z M339.1,964.2c-11.4,0-20.6-9.2-20.6-20.6c0-11.4,9.2-20.6,20.6-20.6s20.6,9.2,20.6,20.6
	C359.6,955,350.5,964.2,339.1,964.2z"/>
<path fill="#4C4C4C" d="M353.1,941.4h4.6v3.5h-4.6V941.4z"/>
<circle fill="#4C4C4C" cx="339.5" cy="944.5" r="7.8"/>
<path fill="#E4E4E4" d="M392.7,980c0,1.2-0.8,2.2-1.8,2.6v9.6h-2.1v-9.6c-1.1-0.4-1.9-1.5-1.9-2.6c0-1.5,1.2-2.8,2.8-2.8
	C391.3,977.4,392.7,978.5,392.7,980L392.7,980z M374.9,992.4h9.7v-19.6h10.6v19.6h9.9v-24h-30v24H374.9z M417,972.7h8.7v3.7H417
	V972.7z"/>
<path fill="#929292" d="M442,943.1h62.2v25.1H442L442,943.1L442,943.1z"/>
<path fill="#C2C2C2" d="M503.7,971.7h4.7v4.7h-4.7V971.7z M447,934.2h12.5v5.3H447V934.2z M463.2,934.2h13.1v5.3h-13.1V934.2z
	 M479.8,934.2h12.8v5.3h-12.8V934.2z"/>
<path d="M473.1,922h8.7v4.2h-8.7V922z M486.2,922h9.3v3.6h-9.3V922z M499.9,922h10v3.6h-10V922z"/>
<circle cx="488" cy="904.6" r="8.7"/>
<circle fill="#C2C2C2" cx="494.1" cy="974.3" r="2.6"/>
<circle fill="#C2C2C2" cx="503.8" cy="937.4" r="2.8"/>
</svg>
