<?xml version="1.0" encoding="utf-8"?>
<!-- Generator: Adobe Illustrator 18.1.0, SVG Export Plug-In . SVG Version: 6.00 Build 0)  -->
<svg version="1.1" id="Layer_1" xmlns="http://www.w3.org/2000/svg" xmlns:xlink="http://www.w3.org/1999/xlink" x="0px" y="0px"
	 viewBox="0 0 360 360" enable-background="new 0 0 360 360" xml:space="preserve">
<g id="_x35_Tl3Oj.tif">
	<g>
		<path fill="#383838" d="M63.6,146.7c22.7,0,44.9,0,67.5,0c-10.1,15.5-13.4,31.9-8.8,49.5c3.4,13.1,10.6,23.8,21.3,32
			c21.5,16.6,51.6,16.5,72.8-0.2c12.4-9.8,20-22.6,22.4-38.2c2.3-15.5-1.3-29.8-10.2-43.1c22.8,0,45.2,0,67.9,0c0,1.3,0,2.4,0,3.5
			c0,33.7,0,67.4,0,101.1c0,25.2-20.5,45.7-45.7,45.7c-47.2,0-94.3,0-141.5,0c-25.2,0-45.7-20.4-45.7-45.7c0-33.7,0-67.4,0-101.1
			C63.6,149.1,63.6,148,63.6,146.7z"/>
		<path fill="#383838" d="M63.6,139.2c0-5.1-0.1-10.1,0-15.1c0.2-7.8-0.2-15.8,0.9-23.5C66,89.1,72.1,80,81.1,72.7
			c0.4-0.3,0.8-0.6,1.2-0.8c0.1-0.1,0.3,0,0.8-0.1c0,16.3,0,32.5,0,48.9c3.1,0,6,0,9.3,0c0-1.2,0-2.3,0-3.4c0-15.7,0-31.4,0-47.2
			c0-4.2,0-4.2,4.2-5.4c0.7-0.2,1.4-0.3,2.5-0.6c0,18.9,0,37.6,0,56.5c3.3,0,6.2,0,9.5,0c0-19.2,0-38.2,0-57.5c2.2,0,4.1,0,6.4,0
			c0,19.1,0,38.2,0,57.5c3.3,0,6.4,0,9.7,0c0-19.2,0-38.3,0-57.7c1.4,0,2.5,0,3.6,0c41,0,82,0,123,0c24.1,0,44.5,19.7,45.2,43.9
			c0.3,10.7,0.1,21.4,0.1,32.5c-1.1,0-2,0-2.9,0c-22.9,0-45.8,0-68.7-0.1c-1.4,0-3.1-0.7-4.2-1.7c-23.4-21.6-58.8-21.5-81.9,0.3
			c-0.8,0.7-2.1,1.4-3.2,1.4c-23.4,0.1-46.8,0.1-70.2,0.1C64.9,139.4,64.4,139.2,63.6,139.2z M235.8,102.1c0,4.3-0.1,8.5,0,12.8
			c0.1,4.5,3,7.4,7.6,7.4c8,0,16.1,0,24.1,0c4.7,0,7.7-2.9,7.8-7.5c0.1-8.3,0.1-16.6,0-25c0-4.5-2.9-7.5-7.5-7.6
			c-8.2-0.1-16.5-0.1-24.7,0c-4.5,0.1-7.3,3.2-7.3,7.7C235.8,94,235.8,98.1,235.8,102.1z"/>
		<path fill="#383838" d="M180,135.2c25.3,0,45.8,20.7,45.8,46c-0.1,25.6-20.6,45.9-46.5,45.8c-25,0-45.6-20.8-45.5-46
			C133.9,155.6,154.5,135.1,180,135.2z M179.9,147.2c-19,0.1-33.8,15.3-33.7,34.7c0.1,18.1,15.5,33.1,33.9,33.1
			c19-0.1,33.8-15.3,33.7-34.7C213.7,162.1,198.3,147.1,179.9,147.2z"/>
	</g>
</g>
</svg>
