<?xml version="1.0" encoding="utf-8"?>
<!-- Generator: Adobe Illustrator 18.1.0, SVG Export Plug-In . SVG Version: 6.00 Build 0)  -->
<svg version="1.1" id="Layer_1" xmlns="http://www.w3.org/2000/svg" xmlns:xlink="http://www.w3.org/1999/xlink" x="0px" y="0px"
	 viewBox="0 0 356 358" enable-background="new 0 0 356 358" xml:space="preserve">
<rect x="15.6" y="16" fill="#6A6B6B" width="327" height="327"/>
<g>
	<path fill="#FFFFFF" d="M48.7,187.3v-39.9h9.8c7.1,0,9.4,5,9.4,10.7c0,5.7-1.9,11.4-9.5,11.4h-6.2v17.7H48.7z M52.2,166.7l6.6,0
		c4,0,5.5-2.8,5.5-8.6c0-5.5-1.8-8-5.5-8h-6.6V166.7z"/>
	<path fill="#FFFFFF" d="M74.2,187.3v-39.9h3.5v37.1h11.2v2.8H74.2z"/>
	<path fill="#FFFFFF" d="M99.4,187.3h-3.5c3.7-18.5,4.2-21.4,7.9-39.9h4.6l7.9,39.9h-3.6l-2-10.4h-9.2L99.4,187.3z M101.9,174.6h8.3
		L106,151L101.9,174.6z"/>
	<path fill="#FFFFFF" d="M121.8,175.7V159c0-6.7,2.4-12.2,10.1-12.2c7.2,0,9.4,5.4,9.4,12.2v1.6H138v-2.4c0-4.9-1.4-8.6-6-8.6
		c-5.2,0-6.6,3.7-6.6,8.6v18.3c0,4.9,1.4,8.6,6.6,8.6c4.6,0,6-3.7,6-8.6v-2.7h3.4v1.9c0,6.7-2,12.2-9.4,12.2
		C124,187.9,121.8,182.4,121.8,175.7z"/>
	<path fill="#FFFFFF" d="M149.3,187.3v-39.9h13.9v2.8h-10.4v15.1h7.4v2.7h-7.4v16.5h10.4v2.8H149.3z"/>
	<path fill="#FFFFFF" d="M170.8,187.3v-39.9h3.5v18.1h12.3v-18.1h3.5v39.9h-3.5v-19.4h-12.3v19.4H170.8z"/>
	<path fill="#FFFFFF" d="M196.3,175.7V159c0-6.7,2.4-12.2,10.2-12.2c7.7,0,10.2,5.4,10.2,12.2v16.7c0,6.7-2.2,12.2-10.2,12.2
		C198.6,187.9,196.3,182.4,196.3,175.7z M213.2,176.5v-18.3c0-4.7-1.5-8.6-6.7-8.6s-6.7,3.8-6.7,8.6v18.3c0,4.7,1.5,8.6,6.7,8.6
		S213.2,181.2,213.2,176.5z"/>
	<path fill="#FFFFFF" d="M223.8,187.3v-39.9h3.5v37.1h11.2v2.8H223.8z"/>
	<path fill="#FFFFFF" d="M244.8,187.3v-39.9h9c7.7,0,10.2,5.3,10.2,11.9v16.2c0,6.4-2.2,11.8-10.2,11.8H244.8z M248.3,184.5h5.5
		c5.2,0,6.7-3.7,6.7-8.2v-17.8c0-4.6-1.5-8.3-6.7-8.3h-5.5V184.5z"/>
	<path fill="#FFFFFF" d="M271.1,187.3v-39.9H285v2.8h-10.4v15.1h7.4v2.7h-7.4v16.5H285v2.8H271.1z"/>
	<path fill="#FFFFFF" d="M291.7,187.3v-39.9h10.6c6.9,0,8.6,4.8,8.6,10.3c0,4.1-1.2,8.1-5.6,9.7l6.2,19.9h-3.8l-5.8-19.5h-6.7v19.5
		H291.7z M295.2,165h7.1c4.2,0,5.1-3.7,5.1-7.4c0-4-0.9-7.4-5.1-7.4h-7.1V165z"/>
</g>
</svg>
