<?xml version="1.0" encoding="utf-8"?>
<!-- Generator: Adobe Illustrator 18.1.0, SVG Export Plug-In . SVG Version: 6.00 Build 0)  -->
<svg version="1.1" id="Layer_0_xA0_Image_1_" xmlns="http://www.w3.org/2000/svg" xmlns:xlink="http://www.w3.org/1999/xlink"
	 x="0px" y="0px" viewBox="0 0 3174.3 1153.3" enable-background="new 0 0 3174.3 1153.3" xml:space="preserve">
<rect x="0" y="0" fill="#FFFFFF" width="3174.3" height="1153.3"/>
<path fill="none" stroke="#000000" stroke-linecap="round" stroke-linejoin="round" stroke-miterlimit="10" d="M1972.6,373.9
	c-0.4,6-0.7,12.1-1.1,18.1c-1,15.9-4.7,31.3-10.5,46.1c-3.2,8.1-7.3,16-11.9,23.4c-4.8,7.9-10.2,15.6-16.2,22.6
	c-6.1,7.2-12.8,14-19.9,20.2c-8.4,7.3-17.1,14.4-26.2,20.7c-10.7,7.3-21.8,14-33.1,20.4c-10.5,6-21.3,11.6-32,17.1
	c-7.7,3.9-15.5,7.5-23.3,11.3c-10.9,5.3-21.7,10.7-32.5,16.2c-9,4.5-18,8.9-26.7,14c-6.5,3.8-12.4,8.7-18.6,13.1
	c-1.8,1.3-3.5,2.6-5.2,3.8c-3.3,3.7-6.9,7.3-9.9,11.2c-3.1,4-5.7,8.3-8.5,12.5c-0.6,0.9-3.8,14.5-4.6,20.3c-0.1,0.4-0.3,1-0.6,1.1
	c-6.1,1.7-20.9,4.7-22,4.8c-13.6,0.4-27.3,0.9-41.1-4c1-5.8,2-11.5,3-17.2c1.8-10.3,4.2-20.5,9.9-29.3c4.9-7.5,10.4-14.7,16.6-21.3
	c5.2-5.6,11.6-10.1,17.6-15c0.5-0.4,8.2-6.4,11.5-9.2c14.4-12.6,27.7-26.2,36-43.6c5.6-11.6,6.9-24.4,4.8-37
	c-2.7-16.4-6.4-32.6-9.6-48.4c4,1,12.1,7.7,16.2,13.4c13.4,18.7,18.3,39.8,17.7,62.5c-0.3,11.7,3.6,15.4,15.2,15.7
	c9.5,0.2,17.9-3.3,26.1-6.9c13.8-6.2,26.2-14.7,36.9-25.5c8.1-8.1,15.3-16.9,17.6-28.5c0.7-3.6,0.8-7.6,0.1-11.3
	c-2.4-11.3-8-21.2-14.2-30.8c-5.3-8.3-10.7-16.6-16.3-24.8c-7.1-10.5-14.6-20.7-21.7-31.2c-5.2-7.7-10.2-15.6-14.8-23.7
	c-5.9-10.6-11.7-21.2-16.8-32.2c-4.3-9.2-7.9-18.8-8-29.6c8.2,11.8,16.2,23.8,24.5,35.4c6.2,8.6,12.2,17.6,19.6,25.1
	c7.2,7.3,11.3,7.6,15.7-3.7c0.8-2.1,0.9-4.6,1-6.9c0.7-17.7,0-35.2-4-52.5c-3.1-13.4-6.2-26.8-9.8-40c-1.6-5.7-4.4-11.1-6.6-16.7
	c-0.4-1.1-3.7-7.9-5.1-10.1c-4.2-6.6-8.4-13.2-13.2-20.7c3.5,2.1,6.5,3.5,9,5.6c5.3,4.4,10.3,9.2,15.3,13.9
	c0.1,0.1,6.5,8.4,9.3,12.6c7.3,10.9,12.4,22.8,16.4,35.2c5.9,17.9,9.5,36.2,12.4,54.7c2.6,16.4,5.1,32.7,8.5,48.9
	c2.5,12.1,5.9,24.1,9.7,35.9c1.6,4.8,4.8,9.3,7.9,13.4c2.3,3,4.8,2.5,7.1-0.5c5.3-7,6.1-15.5,7.4-23.6c4.1-25.9,3.6-51.9-0.2-77.7
	c-2.5-17-6.7-33.9-11-50.6c-3.1-12.3-7.3-24.4-11.6-36.3c-3.4-9.5-7.6-18.7-11.6-27.9c-3-7-6.1-13.9-9.6-20.6
	c-4.2-8.1-8.5-16.2-13.3-24c-6.8-11-13.6-22.1-21.2-32.6c-6.4-8.8-13.9-16.7-20.9-25c-3-3.4-6.1-6.7-8.8-10.7
	c5.6,2.8,11.3,5.3,16.6,8.4c13,7.4,24.8,16.5,34.7,27.6c9.5,10.6,18.5,21.8,26.1,33.8c9.4,14.7,18.1,30,25.3,45.8
	c7.8,16.9,14,34.7,20.3,52.2c4.8,13.4,8.8,27.2,13.3,40.8c0.5,1.5,2,2.6,3.1,3.9c1-1.3,2.6-2.5,2.8-4c2-11.2,4.6-22.4,5.4-33.7
	c1.7-22.6-0.3-45.1-5.6-67.3c-2.4-10-4.6-20.1-7.1-30.7c8.4,10.1,15.5,20.3,20.9,31.9c6.6,14.3,10.5,29.2,12.3,44.6
	c2.2,18.8,2.3,37.9-1.3,56.6c-3.5,18.2-7.5,36.4-12.2,54.4c-3.1,11.5-8.2,22.5-11.9,33.9c-4,12.4-7.8,24.8-10.8,37.5
	c-2.9,12.4-6.2,24.8-5.3,37.8c0.1,1.5-0.2,3,0.3,4.4c0.6,1.8,1.5,4.7,2.6,4.9c2.4,0.4,5.7,0.1,7.3-1.4c4.8-4.4,9.4-9.2,13.4-14.3
	c6-7.8,11.8-15.9,16.9-24.3c5.7-9.3,10.8-19,15.8-28.7c4.1-8.1,7.7-16.4,11.4-24.6C1969.4,379.9,1970.5,376.8,1972.6,373.9z"/>
<path fill="none" stroke="#000000" stroke-linecap="round" stroke-linejoin="round" stroke-miterlimit="10" d="M1547.7,670.6
	c-12.2,2.8-24.4,3.1-36.7,2c-6.3-0.5-12.6-2.4-18.8-3.9c-1.2-0.3-2.8-2.1-2.8-3.3c-0.3-16.7-9.4-28.8-20.7-39.6
	c-11.8-11.2-25.7-19.4-39.9-27.2c-0.5-0.3-0.9-0.7-1.3-1.1c-3.5-1.7-7.1-3.3-10.6-5c-11.8-5.8-23.6-11.5-35.3-17.4
	c-14.2-7.2-28.4-14.4-42.4-21.8c-9.3-4.9-18.5-9.9-27.3-15.6c-10.7-6.9-21.3-14.2-31.3-22.1c-9-7.1-17.7-14.7-25.6-23
	c-10-10.5-19-22-25.3-35.3c-4.5-9.5-9.4-18.8-12.7-28.7c-2.9-8.5-4.4-17.6-5.7-26.6c-1.3-8.7-1.5-17.5-1.4-26.5
	c1.7,3.9,3.3,7.8,5.1,11.6c5.9,12.4,11.2,25.1,17.9,36.9c7.6,13.2,16.2,25.9,24.9,38.4c3.6,5.2,8.5,9.5,13.3,13.7
	c1.8,1.5,5.2,2.1,7.5,1.6c1.3-0.3,2.4-3.8,2.6-5.9c0.7-11.5-0.8-22.8-3.7-33.9c-3.6-13.4-6.9-26.9-10.7-40.2
	c-1.9-6.4-5-12.5-6.9-18.9c-4.7-15.5-9.6-31-13.6-46.7c-6.5-25.9-9.3-52.3-6.9-79c1.5-16.5,5.5-32.5,12.4-47.8
	c5.4-12,12.6-22.5,21.3-32.4c-12.5,44.7-18.9,89.5-6.4,135c0.7,0.2,1.5,0.4,2.2,0.7c1-1.4,2.3-2.6,2.9-4.1c3.1-9.3,6-18.6,9-27.9
	c3.8-11.4,7.6-22.7,11.6-34c2.3-6.4,4.9-12.8,7.6-19.1c0.9-2.1,7.6-17.4,10.4-22.8c5.5-10.6,10.8-21.4,17.4-31.3
	c7.9-11.8,16.8-23.1,26.1-33.9c6.5-7.5,14.2-14.1,21.8-20.6c9.8-8.3,21.2-14.3,33.8-19.6c-5.3,5.7-10.2,10.7-14.6,16
	c-6,7.2-11.9,14.6-17.5,22.2c-5.7,7.8-11.1,15.7-16.1,23.9c-5.8,9.6-11.2,19.4-16.5,29.3c-4,7.6-7.7,15.4-11.3,23.2
	c-3.5,7.8-6.7,15.9-10,23.8c-0.4,0.9-1,1.7-1.6,2.5c-1.6,5.6-2.9,11.3-4.9,16.7c-7.3,19.7-11.9,40.1-15.4,60.7
	c-4.2,25.1-6.3,50.4-2.8,75.7c1.3,9.5,3.2,19,4.9,28.4c0,0.1,0.1,0.3,0.1,0.4c2.2,2.9,3.9,7.5,6.7,8.3c3.9,1,6-3.5,7.8-6.9
	c10.1-18.1,12.5-38.5,16.7-58.3c0.4-2.1,1.2-4.2,1.8-6.3c0.6-5.5,0.8-11.1,1.7-16.6c2.8-16,5.7-31.9,8.9-47.8
	c1.3-6.3,3.4-12.4,5.3-18.5c0.3-1,2.1-6.8,2.8-8.5c5.5-13.2,11.9-25.9,21.2-37c7-8.4,15.3-14.9,24.1-21c0.4-0.3,1-0.3,1.6-0.4
	c-4.5,7.2-9.2,14-13.2,21.2c-7.5,13.3-12.5,27.6-16.3,42.4c-1.2,4.8-2.8,9.4-4.2,14.2c-0.5,4.6-0.9,9.2-1.4,13.7
	c-1,9.2-3.7,30.5-4,32c0.3,5,0.3,10.1,0.9,15.1c0.5,4,1.2,8.1,2.8,11.8c2.3,5.5,5.9,6.6,10.3,2.6c5.5-4.9,10.4-10.5,15-16.3
	c5.2-6.5,9.9-13.6,14.8-20.4c6.1-9,12.1-18,18.2-27c0.3,0.1,0.6,0.3,0.8,0.4c-0.7,3.5-0.8,7.2-2.1,10.5c-2.9,7.9-6.3,15.6-9.5,23.3
	c-1.7,4.3-3,8.8-5.3,12.8c-6.8,11.6-13.7,23.1-21.1,34.3c-10.5,15.9-21.8,31.4-32.2,47.4c-8.1,12.4-16.1,24.9-21.2,39.1
	c-3.8,10.4-1.3,19.3,3.5,28.1c6.3,11.6,15.9,20.6,26.4,28.3c12.4,9.1,25.9,16.5,41.1,19.8c4.4,0.9,9.1,0.9,13.6,0.6
	c4.9-0.4,10.7-4.4,10.2-12.1c-0.8-12.9,0.7-25.5,4.1-37.9c4.4-16,15.8-35.6,31-42.1c-1.6,5.7-2.9,11.1-4.5,16.4
	c-4.5,14.5-7.1,29.4-6.9,44.6c0.2,15.4,4.9,29.3,15.2,41.1c1.1,1.3,1.7,3.1,2.5,4.7c2.8,2.7,5.5,5.5,8.3,8.1
	c8.9,8,17.9,15.9,26.7,23.9c9.1,8.4,18.6,16.4,27,25.5c8.6,9.2,13,21,15.7,33.2c1.4,6.4,2.3,13,3.8,19.4
	C1553.4,668.1,1551.8,669.7,1547.7,670.6z"/>
<image overflow="visible" width="1204" height="1303" id="Layer_0_xA0_Image" xlink:href="B0DE33B38F764FAA.png"  transform="matrix(0.4562 0 0 0.428 1340.3439 595.6225)">
</image>
<path fill="none" stroke="#000000" stroke-width="0.5" stroke-linecap="round" stroke-linejoin="round" stroke-miterlimit="10" d="
	M1869.3,224.3"/>
<path fill="none" stroke="#000000" stroke-width="0.5" stroke-linecap="round" stroke-linejoin="round" stroke-miterlimit="10" d="
	M1806.3,122.8"/>
<path fill="none" stroke="#000000" stroke-width="0.5" stroke-linecap="round" stroke-linejoin="round" stroke-miterlimit="10" d="
	M1844.3,185.6"/>
<path fill="none" stroke="#000000" stroke-width="0.5" stroke-linecap="round" stroke-linejoin="round" stroke-miterlimit="10" d="
	M1811.8,135.8"/>
<path fill="none" stroke="#000000" stroke-width="0.5" stroke-linecap="round" stroke-linejoin="round" stroke-miterlimit="10" d="
	M1873,263.3"/>
<path fill="none" stroke="#000000" stroke-width="0.5" stroke-linecap="round" stroke-linejoin="round" stroke-miterlimit="10" d="
	M955.5,144.6"/>
<path fill="none" stroke="#000000" stroke-width="0.5" stroke-linecap="round" stroke-linejoin="round" stroke-miterlimit="10" d="
	M1848.3,186.9"/>
</svg>
