<?xml version="1.0" encoding="utf-8"?>
<!-- Generator: Adobe Illustrator 18.1.0, SVG Export Plug-In . SVG Version: 6.00 Build 0)  -->
<svg version="1.1" xmlns="http://www.w3.org/2000/svg" xmlns:xlink="http://www.w3.org/1999/xlink" x="0px" y="0px"
	 viewBox="0 0 1272.6 564" enable-background="new 0 0 1272.6 564" xml:space="preserve">
<g id="background">
	<rect y="0" fill="#ACB8BF" width="1272.6" height="564"/>
	<g id="h1R3OK.tif">
		
			<image overflow="visible" width="1024" height="739" id="Layer_0_2_" xlink:href="CB9884D0F9471F93.png"  transform="matrix(0.3115 0 0 0.3115 -935 -270.1187)">
		</image>
	</g>
</g>
<g id="Layer_1">
	<g>
		<path fill="#D8D8D8" d="M370.8,41.1v481.3c0,6.6-5.4,12-12,12H45.7c-6.6,0-12-5.4-12-12V41.1c0-6.6,5.4-12,12-12h313.1
			C365.4,29.1,370.8,34.5,370.8,41.1z"/>
		<g id="MeQbFJ.tif">
			<g>
				<path fill="#FFFFFF" d="M181.5,255.6c3.4,5,8,7.8,14.2,7.4c6.2-0.4,10.4-3.8,13.1-9.2c0.7,0.2,1.4,0.5,2,0.7
					c3.1,1.2,6.1,2.8,8.8,4.8c1.3,0.9,2.6,1.8,3.7,2.9c1.2,1.1,2.2,2.2,2.9,3.6c0.6,1.2,0.9,2.6,0.8,3.9c-0.1,1.5-0.5,2.9-1.1,4.3
					c-0.4,1-0.9,2-1.2,3.1c-0.5,1.7-0.6,3.4-0.4,5.2c0.2,1.5,0.6,2.9,1.2,4.3c0.4,1.1,0.9,2.1,1.2,3.2c0.2,1,0.4,2,0.3,3
					c-0.1,1.2-0.5,2.2-1.1,3.2c-0.9,1.4-2.1,2.6-3.4,3.7c-5,4.2-10.5,7.2-16.8,8.9c-2.2,0.6-4.4,1.1-6.6,1.3
					c-1.9,0.2-3.8,0.3-5.7,0.1c-2.9-0.2-5.7-0.8-8.3-2c-3.5-1.6-6.3-4.1-8.2-7.5c-1.1-2-1.8-4.1-2-6.3c-0.2-2,0-4,0.7-5.9
					c0.5-1.3,1-2.6,1.5-3.9c0.2-0.7,0.4-1.3,0.6-2c0.3-1,0.1-1.9-0.2-2.9c-0.4-1.2-0.9-2.4-1.4-3.6c-0.5-1.2-0.9-2.4-1.2-3.7
					c-0.3-1.4-0.4-2.8-0.3-4.3c0.2-2.2,0.7-4.4,1.7-6.4c1.2-2.4,2.8-4.4,5-5.9C181.4,255.7,181.5,255.7,181.5,255.6z"/>
				<path fill="#FFFFFF" d="M157.9,268.2c0.5,0,1-0.1,1.5,0c3.7,0.1,6.8,1.5,9.6,3.8c1.8,1.5,3.1,3.3,4,5.4c0.6,1.5,0.9,3,0.8,4.5
					c0,0.2-0.1,0.2-0.2,0.2c-2.3,0.2-4.5-0.2-6.6-1.2c-4.5-2-7.3-5.5-8.8-10.1c-0.2-0.7-0.4-1.5-0.4-2.3
					C157.9,268.4,157.9,268.3,157.9,268.2z"/>
			</g>
		</g>
	</g>
	<g>
		<path fill="#999999" d="M633.8,133.5v97.3h-221v-97.3c0-54.6,49.5-98.9,110.5-98.9C584.3,34.7,633.8,78.9,633.8,133.5z"/>
		<path fill="#898989" d="M633.1,267.3H411c-6.6,0-12-5.4-12-12v-60.2c0-6.6,5.4-12,12-12h222.1c6.6,0,12,5.4,12,12v60.2
			C645.1,261.9,639.7,267.3,633.1,267.3z"/>
	</g>
	<g>
		<g id="bwihba.tif">
			<g>
				<path fill="#FFFFFF" d="M769.6,56.9c7.8,0,15.6-0.1,23.4,0c6.1,0.1,12.2,0.4,18.1,2.2c4.7,1.4,8.8,3.7,11.6,7.9
					c1.9,2.9,2.7,6.1,3.1,9.5c0.7,6.2,0.7,12.5,0.2,18.7c-0.3,3.9-1,7.8-3.3,11.1c-2.5,3.7-6.1,5.9-10.2,7.4
					c-4.1,1.5-8.4,2.2-12.8,2.5c-13.9,0.8-27.9,0.3-41.9,0.4c-5.3,0-10.6,0-16-0.2c-5.7-0.2-11.3-1-16.6-3.1
					c-7.3-3-11.3-8.4-12-16.2c-0.7-6.9-0.7-13.7,0-20.6c0.5-4.2,1.7-8.1,4.6-11.4c2.7-3,6.2-4.8,10.1-5.9c4.5-1.4,9.1-2,13.7-2
					c9.3-0.2,18.7-0.2,28-0.3C769.6,56.8,769.6,56.9,769.6,56.9z"/>
			</g>
		</g>
		<g id="MeQbFJ.tif_1_">
			<g>
				<path fill="#EFEFEF" d="M805.9,82.6c0.5,0.8,1.3,1.2,2.2,1.2c1-0.1,1.6-0.6,2.1-1.5c0.1,0,0.2,0.1,0.3,0.1
					c0.5,0.2,1,0.4,1.4,0.8c0.2,0.1,0.4,0.3,0.6,0.5c0.2,0.2,0.3,0.3,0.5,0.6c0.1,0.2,0.1,0.4,0.1,0.6c0,0.2-0.1,0.5-0.2,0.7
					c-0.1,0.2-0.1,0.3-0.2,0.5c-0.1,0.3-0.1,0.5-0.1,0.8c0,0.2,0.1,0.5,0.2,0.7c0.1,0.2,0.1,0.3,0.2,0.5c0,0.2,0.1,0.3,0,0.5
					c0,0.2-0.1,0.4-0.2,0.5c-0.1,0.2-0.3,0.4-0.5,0.6c-0.8,0.7-1.7,1.1-2.6,1.4c-0.3,0.1-0.7,0.2-1,0.2c-0.3,0-0.6,0-0.9,0
					c-0.5,0-0.9-0.1-1.3-0.3c-0.6-0.3-1-0.6-1.3-1.2c-0.2-0.3-0.3-0.6-0.3-1c0-0.3,0-0.6,0.1-0.9c0.1-0.2,0.2-0.4,0.2-0.6
					c0-0.1,0.1-0.2,0.1-0.3c0-0.2,0-0.3,0-0.5c-0.1-0.2-0.1-0.4-0.2-0.6c-0.1-0.2-0.1-0.4-0.2-0.6c-0.1-0.2-0.1-0.4,0-0.7
					c0-0.4,0.1-0.7,0.3-1C805.3,83.2,805.5,82.9,805.9,82.6C805.9,82.6,805.9,82.6,805.9,82.6z"/>
				<path fill="#EFEFEF" d="M802.2,84.6c0.1,0,0.2,0,0.2,0c0.6,0,1.1,0.2,1.5,0.6c0.3,0.2,0.5,0.5,0.6,0.9c0.1,0.2,0.1,0.5,0.1,0.7
					c0,0,0,0,0,0c-0.4,0-0.7,0-1-0.2c-0.7-0.3-1.2-0.9-1.4-1.6C802.2,84.9,802.2,84.8,802.2,84.6C802.2,84.6,802.2,84.6,802.2,84.6z
					"/>
			</g>
		</g>
	</g>
	<g>
		<path fill="#3F2D23" d="M855.9,236.9c-3,1-5.3-2.4-5.6-2.8c0,0,0-0.1-0.1-0.1l-35.4-38.3c-0.7-0.7-1.7-1.2-2.7-1.2H741
			c-1,0-2,0.4-2.7,1.2l-35.4,38.3c0,0-0.1,0.1-0.1,0.1c-0.3,0.4-2.6,3.8-5.6,2.8c-3.2-1.1-6.5-4.4-2.4-8.1
			c3.5-3.1,24.2-26.2,30.7-33.5c0.8-0.8,0.1-2.2-1-2.2h-16.5c-0.5,0-0.8-0.6-0.5-1l6.9-8c0.1-0.1,0.3-0.2,0.5-0.2h123.5
			c0.2,0,0.4,0.1,0.5,0.2l6.9,8c0.3,0.4,0.1,1-0.5,1h-16.5c-1.1,0-1.8,1.3-1,2.2c6.5,7.3,27.3,30.4,30.7,33.5
			C862.5,232.5,859.1,235.8,855.9,236.9z"/>
		<g id="LBtqpC.tif_1_">
			<g>
				<path fill="#3F2D23" d="M736.4,176.2c7.9,0.1,13.8,0.9,19.6,2.1c4.8,1,9.7,2.1,14.5,3.1c4.9,1,9.8,0.6,14.6-0.4
					c5.8-1.2,11.6-2.5,17.4-3.4c7.7-1.3,15.5-1.7,23.3-0.8c8.3,0.9,16.6,2,24.9,3c1.1,0.1,1.3,0.4,1.4,1.5c0.1,2.5,0.1,5.1,0.2,7.6
					c0,1.1-0.2,1.3-1.3,1.4c-1.2,0.2-1.9,0.9-2.5,1.8c-1,1.6-1.2,3.4-1.5,5.2c-1,5.2-1.8,10.3-3.5,15.3c-1.7,5.2-4.7,9.5-9.7,12.2
					c-2.9,1.6-6.1,2.4-9.4,2.7c-5.2,0.6-10.5,0.5-15.7-0.4c-7.7-1.3-13.6-5.3-17.8-11.9c-3.3-5.2-5.6-10.9-7.6-16.8
					c-0.4-1.1-0.8-2.2-1.3-3.2c-2.1-3.6-7.1-4.1-9.9-1c-1.2,1.4-2,3-2.7,4.7c-1.6,3.7-3,7.6-4.8,11.2c-2.4,5.1-5.8,9.4-10.6,12.5
					c-3.7,2.4-7.8,3.8-12.1,4.4c-5.4,0.8-10.9,0.9-16.2-0.6c-4.4-1.2-8.4-3-11.6-6.3c-2.2-2.2-3.7-4.9-4.6-7.9
					c-1.7-5.9-2.9-11.8-3.9-17.9c-0.4-2.3-1.5-4-3.9-4.7c-0.7-0.2-1-0.7-1-1.3c0-2.6,0.1-5.1,0.2-7.7c0.1-1.4,0.6-1.8,2-1.9
					c7.7-0.7,15.3-1.5,23-2.1C730,176.5,734.2,176.3,736.4,176.2z M736.3,179.2c-1.6,0-3.3,0-4.9,0c-3.2,0.1-6.3,0.4-9.4,1.1
					c-5.2,1.3-8.8,4.4-10.1,9.6c-0.6,2.3-0.9,4.6-1.1,6.9c-0.3,4.6,0,9.2,1.3,13.6c2.5,8.1,7.7,13,16.2,14.5
					c3.7,0.6,7.5,0.5,11.2,0.1c7.7-0.8,14.1-4.1,18.9-10.2c4.7-6.1,6.9-13.2,7.5-20.8c0.3-3.6-1.2-6.4-4-8.6c-2.5-2-5.4-3.3-8.5-4.2
					C747.9,179.6,742.1,179,736.3,179.2z M813.5,179.4c-3,0-7.1,0.3-11.2,1.1c-3.3,0.7-6.6,1.6-9.5,3.5c-3.8,2.4-5.7,5.8-5.3,10.2
					c0.4,5.5,1.7,10.8,4,15.8c3.5,7.3,9.1,12.3,17.1,14.3c6,1.5,12,1.6,18.1,0.4c7.2-1.4,11.8-5.6,13.7-12.6c0.8-3,1.3-6,1.5-9.1
					c0.2-3.8,0.5-7.6-0.1-11.4c-0.6-4.2-2.7-7.4-6.7-9.2c-1.8-0.8-3.7-1.4-5.6-1.8C824.7,179.5,819.7,179.4,813.5,179.4z"/>
				<path opacity="0.37" fill="#FFFFFF" d="M736.3,179.2c5.8-0.2,11.6,0.4,17.2,2.1c3.1,0.9,6,2.2,8.5,4.2c2.8,2.2,4.3,5,4,8.6
					c-0.6,7.6-2.8,14.7-7.5,20.8c-4.8,6.2-11.2,9.4-18.9,10.2c-3.7,0.4-7.5,0.5-11.2-0.1c-8.4-1.4-13.7-6.4-16.2-14.5
					c-1.3-4.4-1.7-9-1.3-13.6c0.2-2.3,0.5-4.7,1.1-6.9c1.4-5.3,4.9-8.4,10.1-9.6c3.1-0.8,6.2-1,9.4-1.1
					C733,179.2,734.6,179.2,736.3,179.2z"/>
				<path opacity="0.37" fill="#FFFFFF" d="M813.5,179.4c6.2,0,11.2,0,16.1,1.1c1.9,0.4,3.8,1,5.6,1.8c3.9,1.8,6,5,6.7,9.2
					c0.6,3.8,0.3,7.6,0.1,11.4c-0.2,3.1-0.6,6.1-1.5,9.1c-2,7-6.6,11.3-13.7,12.6c-6.1,1.2-12.1,1.1-18.1-0.4c-8-2-13.6-7-17.1-14.3
					c-2.4-5-3.6-10.3-4-15.8c-0.3-4.5,1.6-7.9,5.3-10.2c2.9-1.8,6.2-2.8,9.5-3.5C806.4,179.7,810.5,179.5,813.5,179.4z"/>
			</g>
		</g>
		<path fill="#D8D8D8" d="M702.9,185c0,0,2.9-2.6,5.2,0C708.1,185,705.5,186.7,702.9,185z"/>
		<path fill="#D8D8D8" d="M845.6,185c0,0,2.9-2.6,5.2,0C850.8,185,848.2,186.7,845.6,185z"/>
	</g>
	<g>
		<ellipse fill="#FFFFFF" cx="-824.3" cy="-157.1" rx="84.8" ry="85.3"/>
		<ellipse fill="#F5F5F9" cx="-824.3" cy="-157.1" rx="78.5" ry="79"/>
		<ellipse fill="#934E1B" cx="-824.3" cy="-157.1" rx="77.1" ry="77.6"/>
		<path fill="#6DA429" d="M-861.1-242c0,0,15.7,1.2,16.4,11.8s-6.3,38.8-6.3,38.8l-13.8-17.3C-864.8-208.7-873.4-231.2-861.1-242z"
			/>
		<path fill="#6DA429" d="M-910.8-132.3c0,0-0.2-11.2,12-17.7s21.8,12.2,21.8,12.2l-11.3,15.3C-888.3-122.5-901.2-120.8-910.8-132.3
			z"/>
		<path fill="#6DA429" d="M-906-195.9c0,0,4.8-1.6,7-2.2c2.2-0.5,9.1-4.5,20.5,1.7c11.4,6.2,23.5,15.2,23.5,15.2l4.1,10
			c0,0-18.2-4.2-22.1-5C-877-177.1-902.1-175.6-906-195.9z"/>
		<path fill="#5F932F" d="M-775.8-114.1c0,0,5.7,8.4,16.2,3.5l4.5-2.9l0.4-7.1c0,0,0.8-7.7-10.1-15.8c-10.9-8.1-47.2-16-47.2-16
			l6.8,12.1L-775.8-114.1z"/>
		<path fill="#6B9B26" d="M-765.2-181c0,0,10.1-1.5,10.1-13.1l-0.7-5.3l-6.2-3.4c0,0-6.7-4-18.6,2.4c-11.9,6.4-34.6,35.9-34.6,35.9
			l13.9-1L-765.2-181z"/>
		<path fill="#5F932F" d="M-763.6-149.3c0,0,8.4,5.8,16.3-2.6l3.1-4.3l-2.2-6.8c0,0-2.1-7.5-15.2-11c-13.1-3.5-49.8,2.3-49.8,2.3
			l10.8,8.8L-763.6-149.3z"/>
		<path fill="#5F932F" d="M-803.7-217.8c0,0,4.9-16.2-4.1-23.6l-4.5-2.8l-6.6,2.6c0,0-9.4,5.5-12,18.8c-2.7,13.3-0.5,46.6-0.5,46.6
			l16.2-11.3L-803.7-217.8z"/>
		<path fill="#83B042" d="M-786.5-166.4c0,0,24.2-3.3,36.2,8c0,0,6.5,6.8,6.2,12.9c0,0-5.2,12.4-23.5,9.5c-18.3-2.9-40-16.2-40-16.2
			l-14.8-5.5L-786.5-166.4z"/>
		<path fill="#6DA429" d="M-863.3-103.2c0,0-1.5,16.3,6.7,19.5c0,0,14.3,0.5,17.5-13.2s4.4-41,4.4-41L-863.3-103.2z"/>
		<path fill="#6DA429" d="M-883-115.6c0,0-3.4,13.7,3.2,17.5c0,0,12.1,2.3,16.7-9c4.6-11.2,9.1-34.4,9.1-34.4L-883-115.6z"/>
		<path fill="#6DA429" d="M-827.6-87.9c0,0,7,14.8,15.6,13.4c0,0,12.5-6.8,8.4-20.3s-17-37.5-17-37.5L-827.6-87.9z"/>
		<path fill="#6B9B26" d="M-888.3-177c0,0-19.3,2.3-20.5,11c0,0,2.8,14,16.9,14c14.1,0.1,40.9-5.2,40.9-5.2L-888.3-177z"/>
		<path fill="#83B042" d="M-872.8-143.8c0,0-19.2,5.6-18.2,24.1v5.5c0,0,8,2.4,14,1.2s19.8-8.4,19.8-8.4l10.3-32.4L-872.8-143.8z"/>
		<path fill="#5F932F" d="M-841-161.3l-17.1-1.5c0,0-19.3-0.2-32.3,4s-13.3,15.7-13.3,15.7s8.8,9.8,18.3,6.3s45.4-17.2,45.4-17.2
			L-841-161.3z"/>
		<path fill="#5F932F" d="M-886.5-218.3c0,0,7.7-2.5,15.7,1.8c8,4.3,21.6,16.6,27.8,33.2s9.1,19.5,9.1,19.5l-13.1-5.7
			c0,0-13.8-5.4-26.3-18.3C-873.3-187.8-894.3-203.5-886.5-218.3z"/>
		<path fill="#83B042" d="M-891-180.7c0,0,4.3-1.5,6.3-2s8.2-4.1,18.6,1.5c10.4,5.7,21.4,13.8,21.4,13.8l3.7,9.1
			c0,0-16.5-3.8-20.1-4.5S-887.5-162.2-891-180.7z"/>
		<path fill="#5F932F" d="M-811.2-99.7c0,0,0.2,10.2,11.7,11.7h5.3l4.2-5.8c0,0,4.8-6.1,0-18.8s-31.1-38.9-31.1-38.9l-0.8,13.9
			L-811.2-99.7z"/>
		<path fill="#5F932F" d="M-834.7-135.9c0,0-5.3,7.4-8.1,14.5c-2.8,7.1-3.5,19.3-21.7,22.8h-4.8l-1.3-4.2c0,0-5.7-13.8,9.7-24.8
			s22.8-24.4,22.8-24.4l6.3,0.7L-834.7-135.9z"/>
		<path fill="#6DA429" d="M-844.6-153.8l-13.5,8.4c0,0-8.6,3.7-10,9.1s-1.3,7.7-1.3,7.7s3.2,3.5,5.7,4s5.8,2,11.5-6.1
			c5.7-8.1,17.4-19.2,17.4-19.2L-844.6-153.8z"/>
		<path fill="#83B042" d="M-836.8-135.3c0,0-4.8,11.3-5.8,21c0,0-7.2,19.2,1,26.3l4.8,4.3l7.3-3.5c0,0,14.6-7.3,7.6-23.7
			c-7.1-16.3,0-0.8,0-0.8l-1.4-27.4L-836.8-135.3z"/>
		<path fill="#6B9B26" d="M-821.6-149.1c0,0,7,15.4,10.4,20.8c3.4,5.4,18.4,23.6,4.4,34.6c0,0-16.4-0.1-18.1-27.7l-5.9-26.3
			L-821.6-149.1z"/>
		<path fill="#83B042" d="M-821.9-149.8c0,0-0.1,5.2,6.9,10.7s12.7,18.1,13.2,19.3s7.2,19.1,27.7,17.8c0,0,7.4-14.1-3.6-26.4
			s-28.4-18.6-28.4-18.6L-821.9-149.8z"/>
		<path fill="#83B042" d="M-853.2-235.6c0,0,4,1.4,5.9,2.1c1.8,0.8,16.1,7.4,15.3,28.6c-0.7,21.2,2.6,31.4-1.4,44.1
			c0,0-11.9-17.9-18.3-35.9c0,0-10.3-21.1-4.8-32.9L-853.2-235.6z"/>
		<path fill="#6DA429" d="M-834.7-150c0,0-6.2,6-3.9,15.2c0,0,2.9,5.5,7.7,3.6c4.9-1.9,5.4-3.4,5.4-6s-6.4-14.3-6.4-14.3L-834.7-150
			z"/>
		<path fill="#6B9B26" d="M-834.7-157.6c0,0-5.9-3.8-9.3,2.6s1.1,8.5,2.9,9.5s5.4-7.2,5.4-7.2L-834.7-157.6z"/>
		<path fill="#6DA429" d="M-832.6-162c0,0-6.4-10.2-15-8.4c0,0-3.4,2.9-0.6,8.4s13.5,4.4,13.5,4.4L-832.6-162z"/>
		<path fill="#83B042" d="M-813.3-193c0,0,6.5-21.3,13.8-26.7c7.3-5.3,13.8-7.5,20.5-6c0,0,11.7,8.7-1.2,25.2
			c-12.8,16.5-41.8,39.2-41.8,39.2l-7.6-5.1L-813.3-193z"/>
		<path fill="#6B9B26" d="M-833.9-161.6c0,0,2.1-16.9,2-22.9c-0.1-6-2.1-15.2,5.7-19.5c0,0,2.8-2,9.3-1.2c0,0,8,6.5,4.8,16.5
			c0,0-1,3.5-6,10.5s-9,25-9,25l-7.7,1.1L-833.9-161.6z"/>
		<path fill="#6DA429" d="M-825-165.3c0,0,16.6-7.2,24-10.9c5.2-2.6,19.2-14.8,30.8-10.8c11.7,4,10.5,3.8,10.5,3.8
			s-2,14.3-14.8,16.8c-12.8,2.5-47.5,10.2-47.5,10.2L-825-165.3z"/>
		<path fill="#6B9B26" d="M-823.3-158.3c0,0,9.3,1.8,13.8,2.2c4.5,0.3,11.5-1.3,14.7,9.5c0,0-3.8,8.3-15.3,4.3s-17.5-8.7-17.5-8.7
			L-823.3-158.3z"/>
		<path fill="#83B042" d="M-831.5-155.1c0,0,2.9,8-4.3,7.3C-842.9-148.4-834.7-159.6-831.5-155.1z"/>
		<path fill="#5F932F" d="M-828.2-157.5c0,0-2.1-4.5-6.6-5.2c-4.4-0.7-4.9,3.8-4.9,3.8S-837.8-153.8-828.2-157.5z"/>
		<path fill="#5F932F" d="M-830-156.1c0,0,8.8-1,6.2,10c0,0-1.3,3.2-6.2,2.2C-830-144-834.3-150.3-830-156.1z"/>
		<path fill="#83B042" d="M-830.9-162.2c0,0,2.9,7,6.5,7.3c0,0,2.8,3.1,3.2-1.3c0.3-4.3-2-10.7-8.3-10.2
			C-829.5-166.3-832.2-164.7-830.9-162.2z"/>
	</g>
	<g>
		<ellipse fill="#FFFFFF" cx="532.4" cy="419.2" rx="112.9" ry="113.6"/>
		<ellipse fill="#F5F5F9" cx="532.4" cy="419.2" rx="104.5" ry="105.2"/>
		<ellipse fill="#934E1B" cx="532.4" cy="419.2" rx="102.7" ry="103.4"/>
		<path fill="#6DA429" d="M483.4,306.1c0,0,20.9,1.7,21.8,15.7c0.9,14-8.4,51.7-8.4,51.7l-18.4-23.1
			C478.5,350.4,467,320.4,483.4,306.1z"/>
		<path fill="#6DA429" d="M417.2,452.2c0,0-0.3-14.9,16-23.6s29,16.2,29,16.2l-15,20.4C447.2,465.3,429.9,467.5,417.2,452.2z"/>
		<path fill="#6DA429" d="M423.6,367.4c0,0,6.3-2.2,9.3-2.9s12.1-6.1,27.3,2.2c15.2,8.3,31.3,20.2,31.3,20.2l5.5,13.4
			c0,0-24.2-5.5-29.5-6.7C462.2,392.6,428.7,394.5,423.6,367.4z"/>
		<path fill="#5F932F" d="M597.1,476.4c0,0,7.5,11.3,21.5,4.7l6-3.8l0.6-9.4c0,0,1.1-10.3-13.4-21.1c-14.5-10.8-62.8-21.4-62.8-21.4
			l9.1,16.2L597.1,476.4z"/>
		<path fill="#6B9B26" d="M611.2,387.3c0,0,13.4-2.1,13.4-17.5l-0.9-7l-8.3-4.5c0,0-8.9-5.3-24.8,3.2c-15.9,8.6-46,47.8-46,47.8
			L563,408L611.2,387.3z"/>
		<path fill="#5F932F" d="M613.3,429.5c0,0,11.1,7.7,21.8-3.5l4.2-5.7l-2.9-9c0,0-2.8-10-20.2-14.7c-17.4-4.7-66.3,3.1-66.3,3.1
			l14.4,11.7L613.3,429.5z"/>
		<path fill="#5F932F" d="M559.9,338.3c0,0,6.5-21.5-5.4-31.4l-6-3.8l-8.8,3.5c0,0-12.5,7.3-16,25c-3.6,17.7-0.6,62.1-0.6,62.1
			l21.6-15.1L559.9,338.3z"/>
		<path fill="#83B042" d="M582.8,406.8c0,0,32.2-4.4,48.2,10.7c0,0,8.7,9.1,8.2,17.2c0,0-6.9,16.5-31.3,12.7
			c-24.4-3.9-53.3-21.5-53.3-21.5l-19.7-7.3L582.8,406.8z"/>
		<path fill="#6DA429" d="M480.4,491c0,0-2,21.8,8.9,26c0,0,19,0.7,23.4-17.5c4.4-18.2,5.9-54.6,5.9-54.6L480.4,491z"/>
		<path fill="#6DA429" d="M528,511.4c0,0,9.3,19.8,20.8,17.9c0,0,16.7-9.1,11.2-27c-5.5-17.9-22.7-50-22.7-50L528,511.4z"/>
		<path fill="#6B9B26" d="M447.2,392.6c0,0-25.7,3.1-27.3,14.6c0,0,3.7,18.6,22.5,18.7c18.7,0.1,54.5-6.9,54.5-6.9L447.2,392.6z"/>
		<path fill="#83B042" d="M467.7,436.9c0,0-25.5,7.4-24.2,32.1v7.4c0,0,10.7,3.2,18.7,1.6c8-1.6,26.4-11.2,26.4-11.2l13.8-43.2
			L467.7,436.9z"/>
		<path fill="#5F932F" d="M510.2,413.6l-22.7-2c0,0-25.7-0.3-43,5.3c-17.3,5.6-17.8,21-17.8,21s11.8,13.1,24.4,8.4
			c12.7-4.7,60.4-22.9,60.4-22.9L510.2,413.6z"/>
		<path fill="#5F932F" d="M449.5,337.6c0,0,10.2-3.3,20.9,2.4c10.7,5.8,28.7,22.1,37.1,44.2s12.1,26,12.1,26l-17.4-7.6
			c0,0-18.4-7.2-35.1-24.4C467.1,378.3,439.1,357.4,449.5,337.6z"/>
		<path fill="#83B042" d="M443.5,387.8c0,0,5.8-2,8.4-2.7c2.7-0.7,11-5.5,24.8,2s28.4,18.4,28.4,18.4l5,12.2c0,0-22-5-26.8-6.1
			S448.2,412.4,443.5,387.8z"/>
		<path fill="#5F932F" d="M549.8,495.7c0,0,0.3,13.5,15.6,15.5h7.1l5.6-7.7c0,0,6.4-8.1,0-25s-41.5-51.8-41.5-51.8l-1.1,18.5
			L549.8,495.7z"/>
		<path fill="#5F932F" d="M518.5,447.4c0,0-7,9.8-10.8,19.3c-3.8,9.5-4.7,25.7-28.9,30.3h-6.4l-1.8-5.6c0,0-7.5-18.4,12.9-33.1
			c20.4-14.7,30.4-32.5,30.4-32.5l8.4,0.9L518.5,447.4z"/>
		<path fill="#6DA429" d="M505.4,423.5l-18,11.2c0,0-11.5,5-13.3,12.1c-1.8,7.1-1.8,10.2-1.8,10.2s4.2,4.7,7.5,5.3
			c3.3,0.7,7.8,2.7,15.3-8.1c7.5-10.8,23.2-25.6,23.2-25.6L505.4,423.5z"/>
		<path fill="#83B042" d="M515.7,448.2c0,0-6.4,15.1-7.8,28c0,0-9.5,25.5,1.3,35.1l6.4,5.8l9.8-4.7c0,0,19.5-9.8,10.1-31.5
			c-9.4-21.8,0-1.1,0-1.1l-1.9-36.5L515.7,448.2z"/>
		<path fill="#6B9B26" d="M536,429.8c0,0,9.3,20.5,13.8,27.6s24.5,31.5,5.8,46.1c0,0-21.9-0.2-24.1-36.9l-7.8-35L536,429.8z"/>
		<path fill="#83B042" d="M535.6,428.9c0,0-0.1,6.9,9.2,14.2s17,24.1,17.6,25.6s9.5,25.5,36.9,23.6c0,0,9.8-18.8-4.8-35.1
			c-14.7-16.3-37.8-24.8-37.8-24.8L535.6,428.9z"/>
		<path fill="#83B042" d="M493.9,314.6c0,0,5.4,1.8,7.8,2.8c2.4,1,21.4,9.8,20.4,38.1c-1,28.3,3.5,41.8-1.8,58.8
			c0,0-15.8-23.8-24.4-47.9c0,0-13.7-28.1-6.4-43.9L493.9,314.6z"/>
		<path fill="#6DA429" d="M518.5,428.6c0,0-8.3,8-5.1,20.3c0,0,3.8,7.3,10.3,4.8c6.5-2.5,7.2-4.5,7.2-8s-8.5-19-8.5-19L518.5,428.6z
			"/>
		<path fill="#6B9B26" d="M518.5,418.5c0,0-7.8-5-12.3,3.5c-4.5,8.5,1.5,11.3,3.8,12.7c2.3,1.3,7.2-9.7,7.2-9.7L518.5,418.5z"/>
		<path fill="#6DA429" d="M521.3,412.6c0,0-8.5-13.6-20-11.2c0,0-4.5,3.8-0.8,11.2c3.7,7.3,18,5.8,18,5.8L521.3,412.6z"/>
		<path fill="#83B042" d="M547,371.3c0,0,8.7-28.4,18.4-35.5c9.8-7.1,18.4-10,27.3-8c0,0,15.5,11.5-1.6,33.5
			c-17.1,22-55.6,52.3-55.6,52.3l-10.1-6.8L547,371.3z"/>
		<path fill="#6B9B26" d="M519.6,413.1c0,0,2.8-22.5,2.7-30.4c-0.1-8-2.8-20.2,7.7-26c0,0,3.8-2.7,12.5-1.6c0,0,10.7,8.7,6.4,22
			c0,0-1.3,4.7-8,14c-6.7,9.3-12,33.4-12,33.4l-10.3,1.4L519.6,413.1z"/>
		<path fill="#6DA429" d="M531.5,408.3c0,0,22.1-9.6,32-14.5c7-3.5,25.5-19.8,41.1-14.4c15.5,5.3,14,5.1,14,5.1s-2.7,19-19.8,22.4
			c-17.1,3.4-63.3,13.6-63.3,13.6L531.5,408.3z"/>
		<path fill="#6B9B26" d="M533.7,417.5c0,0,12.4,2.4,18.4,2.9c6,0.4,15.3-1.8,19.5,12.7c0,0-5.1,11.1-20.4,5.8
			c-15.3-5.3-23.3-11.5-23.3-11.5L533.7,417.5z"/>
		<path fill="#83B042" d="M522.9,421.9c0,0,3.9,10.6-5.7,9.8C507.6,430.8,518.6,415.8,522.9,421.9z"/>
		<path fill="#5F932F" d="M527.2,418.6c0,0-2.8-6-8.7-6.9c-5.9-0.9-6.6,5.1-6.6,5.1S514.4,423.5,527.2,418.6z"/>
		<path fill="#5F932F" d="M524.8,420.4c0,0,11.8-1.4,8.2,13.3c0,0-1.8,4.2-8.2,2.9C524.8,436.6,519,428.3,524.8,420.4z"/>
		<path fill="#83B042" d="M523.6,412.4c0,0,3.8,9.4,8.7,9.7c0,0,3.8,4.1,4.2-1.7c0.4-5.8-2.7-14.2-11.1-13.5
			C525.5,406.9,521.9,409,523.6,412.4z"/>
	</g>
	<line fill="#A9A1A5" x1="79.4" y1="-221.4" x2="77.4" y2="-220"/>
	<g>
		<g>
			
				<rect x="-349.4" y="-306.3" transform="matrix(0.4679 -0.8838 0.8838 0.4679 88.7856 -455.8022)" fill="#CF71A2" width="30.6" height="9.4"/>
			
				<rect x="-357.7" y="-310.8" transform="matrix(0.4679 -0.8838 0.8838 0.4679 88.2508 -465.5065)" fill="#EA8EBB" width="30.6" height="9.4"/>
			<polygon fill="#F4BAD7" points="-339.5,-321.7 -326.3,-326.3 -322.8,-312.9 -335.4,-309.3 			"/>
			
				<rect x="-371.9" y="-284.1" transform="matrix(-0.4679 0.8838 -0.8838 -0.4679 -770.3201 -94.9353)" fill="#EA8EBB" width="30.6" height="9.4"/>
			
				<rect x="-363.5" y="-279.7" transform="matrix(-0.4679 0.8838 -0.8838 -0.4679 -754.2021 -95.8235)" fill="#CF71A2" width="30.6" height="9.4"/>
			<polygon fill="#F1A7C9" points="-351.2,-259.3 -364.4,-254.6 -367.9,-268.1 -355.3,-271.7 			"/>
		</g>
		<g>
			
				<rect x="-408.9" y="-321.9" transform="matrix(-0.4679 -0.8838 0.8838 -0.4679 -297.5114 -813.4758)" fill="#CF71A2" width="30.6" height="9.4"/>
			
				<rect x="-400.6" y="-326.3" transform="matrix(-0.4679 -0.8838 0.8838 -0.4679 -281.3933 -812.5876)" fill="#EA8EBB" width="30.6" height="9.4"/>
			<polygon fill="#F4BAD7" points="-388.3,-337.3 -401.5,-341.9 -405,-328.5 -392.3,-324.8 			"/>
			
				<rect x="-386.5" y="-299.6" transform="matrix(0.4679 0.8838 -0.8838 0.4679 -458.1536 171.1319)" fill="#EA8EBB" width="30.6" height="9.4"/>
			
				<rect x="-394.8" y="-295.2" transform="matrix(0.4679 0.8838 -0.8838 0.4679 -458.6884 180.8363)" fill="#CF71A2" width="30.6" height="9.4"/>
			<polygon fill="#F1A7C9" points="-376.5,-274.8 -363.3,-270.2 -359.9,-283.6 -372.5,-287.3 			"/>
		</g>
		<rect x="-363.9" y="-331.7" fill="#C46D9B" width="12.9" height="41.8"/>
		<rect x="-376.8" y="-331.7" fill="#E573AF" width="12.9" height="41.8"/>
		<polygon fill="#F1A7C9" points="-376.8,-331.7 -363.8,-345.7 -351,-331.7 -363.9,-319.2 		"/>
		<rect x="-376.8" y="-290.5" fill="#E573AF" width="12.9" height="41.8"/>
		<rect x="-363.9" y="-290.5" fill="#C46D9B" width="12.9" height="41.8"/>
		<polygon fill="#CC76A7" points="-351,-248.7 -363.9,-231 -363.9,-231 -363.9,-248.7 		"/>
		<polygon fill="#E882BC" points="-363.9,-248.7 -363.9,-231 -376.8,-248.7 		"/>
	</g>
	<g>
		<g>
			<polygon fill="#702137" points="1111.9,36.1 1111.9,38.4 1080,38.4 1080,16.5 1092.4,16.5 			"/>
			<polygon fill="#7D2636" points="1080,16.5 1080,38.4 1048.1,38.4 1048,36.2 1067.7,16.5 			"/>
			<rect x="1048" y="38" fill="#772436" width="19.9" height="22.2"/>
			<rect x="1092" y="38.4" fill="#772436" width="19.9" height="22.2"/>
		</g>
		<path fill="#772436" d="M1241.7,488.1v2.1c0,17.9-14.7,32.6-32.6,32.6h-260c-17.9,0-32.6-14.7-32.6-32.6v-2.1H1241.7z"/>
		<path fill="#7D2636" d="M1241.7,143.4v344.6H916.5V143.4c0-17.9,14.7-32.6,32.6-32.6h260C1227,110.8,1241.7,125.5,1241.7,143.4z"
			/>
		<rect x="1000.3" y="373.9" fill="#702137" width="161.2" height="114.2"/>
		<path fill="#702137" d="M1223.7,265H934.5c-12.4,0-22.6-10.2-22.6-22.6V78.5c0-12.4,10.2-22.6,22.6-22.6h289.3
			c12.4,0,22.6,10.2,22.6,22.6v163.9C1246.3,254.8,1236.2,265,1223.7,265z"/>
		<polygon fill="#9D6449" points="978.6,55.9 978.6,110.8 978.6,220.9 978.6,522.8 1009,522.8 1009,220.9 1009,110.8 1009,55.9 		
			"/>
		<polygon fill="#9D6449" points="1176.7,55.9 1176.7,110.8 1176.7,220.9 1176.7,522.8 1146.3,522.8 1146.3,220.9 1146.3,110.8 
			1146.3,55.9 		"/>
		<polygon fill="#915740" points="1009,55.9 1009,327.6 993.8,341.4 978.6,327.6 978.6,55.9 		"/>
		<polygon fill="#915740" points="1176.7,55.9 1176.7,327.6 1161.5,341.4 1146.3,327.6 1146.3,55.9 		"/>
		<path fill="#6D5F5F" d="M1010.4,305h-33.2c-1.9,0-3.5-1.6-3.5-3.5v-29.9c0-1.9,1.6-3.5,3.5-3.5h33.2c1.9,0,3.5,1.6,3.5,3.5v29.9
			C1013.9,303.4,1012.4,305,1010.4,305z"/>
		<path fill="#915740" d="M1006.6,301.5h-25.5c-1.9,0-3.5-1.6-3.5-3.5v-22.9c0-1.9,1.6-3.5,3.5-3.5h25.5c1.9,0,3.5,1.6,3.5,3.5v22.9
			C1010.1,299.9,1008.5,301.5,1006.6,301.5z"/>
		<path fill="#6D5F5F" d="M1178.1,305h-33.2c-1.9,0-3.5-1.6-3.5-3.5v-29.9c0-1.9,1.6-3.5,3.5-3.5h33.2c1.9,0,3.5,1.6,3.5,3.5v29.9
			C1181.6,303.4,1180,305,1178.1,305z"/>
		<path fill="#915740" d="M1174.2,301.5h-25.5c-1.9,0-3.5-1.6-3.5-3.5v-22.9c0-1.9,1.6-3.5,3.5-3.5h25.5c1.9,0,3.5,1.6,3.5,3.5v22.9
			C1177.8,299.9,1176.2,301.5,1174.2,301.5z"/>
		<rect x="1037.9" y="406.4" fill="#FFFFFF" width="83.1" height="50.6"/>
		<rect x="1042.6" y="410.2" fill="none" stroke="#000000" stroke-miterlimit="10" width="73.8" height="43"/>
		<line fill="none" stroke="#000000" stroke-width="0.7" stroke-miterlimit="10" x1="1054.5" y1="438.2" x2="1104.4" y2="438.2"/>
		<line fill="none" stroke="#000000" stroke-width="0.7" stroke-miterlimit="10" x1="1054.5" y1="426.6" x2="1104.4" y2="426.6"/>
	</g>
	<g>
		<g id="Iphone_bg">
			<g>
				<path fill="#FFFFFF" d="M767,308h-2.6c-0.2-0.4-0.6-0.7-1.1-0.7h-15.1c-0.5,0-0.9,0.3-1.1,0.7h-52.6c-7.2,0-13,5.8-13,13v16.3
					c-0.5,0.2-0.8,0.7-0.8,1.2v6.9c0,0.5,0.3,1,0.8,1.2v10.2c-0.5,0.2-0.8,0.7-0.8,1.2v5.2c0,0.5,0.3,1,0.8,1.2v9.5
					c-0.5,0.2-0.8,0.7-0.8,1.2v5.2c0,0.5,0.3,1,0.8,1.2v121.1c0,7.2,5.8,13,13,13H767c7.2,0,13-5.8,13-13V321
					C780,313.8,774.2,308,767,308z"/>
			</g>
		</g>
		
			<image overflow="visible" width="643" height="1140" id="Screen_xA0_Image_1_" xlink:href="CB9884D0F9471F91.png"  transform="matrix(0.13 0 0 0.13 689.5643 337.4802)">
		</image>
		<g id="btn">
			<g>
				<circle fill="#E7E7E7" cx="730.4" cy="500.7" r="9.3"/>
			</g>
		</g>
		
			<image overflow="visible" width="54" height="54" id="home_btn_xA0_Image_2_" xlink:href="CB9884D0F9471F97.png"  transform="matrix(0.13 0 0 0.13 726.7916 497.0244)">
		</image>
		
			<image overflow="visible" width="31" height="31" id="Camera_xA0_Image_5_" xlink:href="CB9884D0F9471F90.png"  transform="matrix(0.13 0 0 0.13 728.352 316.1556)">
		</image>
		
			<image overflow="visible" width="17" height="17" id="Camera_xA0_Image_4_" xlink:href="CB9884D0F9471F9E.png"  transform="matrix(0.13 0 0 0.13 729.2622 317.0658)">
		</image>
		<g id="Mic">
			<g>
				<path fill="#E7E7E7" d="M737.5,324.5h-14.3c-0.8,0-1.5,0.7-1.5,1.5s0.7,1.5,1.5,1.5h14.3c0.8,0,1.5-0.7,1.5-1.5
					S738.3,324.5,737.5,324.5z"/>
			</g>
		</g>
	</g>
	<g>
		<rect x="843.3" y="492.9" fill="#5C6266" width="11.5" height="13.7"/>
		<rect x="831.8" y="492.9" fill="#454B4F" width="11.5" height="13.7"/>
		<rect x="831.8" y="343.5" fill="#EFB35B" width="11.5" height="149.4"/>
		<rect x="843.3" y="343.5" fill="#FECB65" width="11.5" height="149.4"/>
		<path fill="#EF766A" d="M833.3,515.8v-9.1h10v10.6h-9C833.8,517.2,833.3,516.6,833.3,515.8z"/>
		<path fill="#FD8B77" d="M843.3,517.2v-10.6h9.4v9.1c0,0.8-0.5,1.4-1.1,1.4H843.3z"/>
		<polygon fill="#FFFEFD" points="843.3,343.5 843.3,319.7 847.2,319.7 854.8,343.5 		"/>
		<polygon fill="#F5F5F5" points="831.8,343.5 839.1,319.7 843.3,319.7 843.3,343.5 		"/>
		<polygon fill="#454B4F" points="839.1,319.7 843.1,306.8 843.3,307.6 843.3,319.7 		"/>
		<polygon fill="#5C6266" points="843.3,319.7 843.3,307.6 847.2,319.7 		"/>
	</g>
</g>
</svg>
