<?xml version="1.0" encoding="utf-8"?>
<!-- Generator: Adobe Illustrator 18.1.0, SVG Export Plug-In . SVG Version: 6.00 Build 0)  -->
<svg version="1.1" xmlns="http://www.w3.org/2000/svg" xmlns:xlink="http://www.w3.org/1999/xlink" x="0px" y="0px"
	 viewBox="0 0 1292 564" enable-background="new 0 0 1292 564" xml:space="preserve">
<g id="background">
	<rect y="0" fill="#ACB8BF" width="1292" height="564"/>
</g>
<g id="Layer_1">
	<g>
		<path fill="#D8D8D8" d="M370.8,41.1v481.3c0,6.6-5.4,12-12,12H45.7c-6.6,0-12-5.4-12-12V41.1c0-6.6,5.4-12,12-12h313.1
			C365.4,29.1,370.8,34.5,370.8,41.1z"/>
		<g id="MeQbFJ.tif">
			<g>
				<path fill="#FFFFFF" d="M181.5,255.6c3.4,5,8,7.8,14.2,7.4c6.2-0.4,10.4-3.8,13.1-9.2c0.7,0.2,1.4,0.5,2,0.7
					c3.1,1.2,6.1,2.8,8.8,4.8c1.3,0.9,2.6,1.8,3.7,2.9c1.2,1.1,2.2,2.2,2.9,3.6c0.6,1.2,0.9,2.6,0.8,3.9c-0.1,1.5-0.5,2.9-1.1,4.3
					c-0.4,1-0.9,2-1.2,3.1c-0.5,1.7-0.6,3.4-0.4,5.2c0.2,1.5,0.6,2.9,1.2,4.3c0.4,1.1,0.9,2.1,1.2,3.2c0.2,1,0.4,2,0.3,3
					c-0.1,1.2-0.5,2.2-1.1,3.2c-0.9,1.4-2.1,2.6-3.4,3.7c-5,4.2-10.5,7.2-16.8,8.9c-2.2,0.6-4.4,1.1-6.6,1.3
					c-1.9,0.2-3.8,0.3-5.7,0.1c-2.9-0.2-5.7-0.8-8.3-2c-3.5-1.6-6.3-4.1-8.2-7.5c-1.1-2-1.8-4.1-2-6.3c-0.2-2,0-4,0.7-5.9
					c0.5-1.3,1-2.6,1.5-3.9c0.2-0.7,0.4-1.3,0.6-2c0.3-1,0.1-1.9-0.2-2.9c-0.4-1.2-0.9-2.4-1.4-3.6c-0.5-1.2-0.9-2.4-1.2-3.7
					c-0.3-1.4-0.4-2.8-0.3-4.3c0.2-2.2,0.7-4.4,1.7-6.4c1.2-2.4,2.8-4.4,5-5.9C181.4,255.7,181.5,255.7,181.5,255.6z"/>
				<path fill="#FFFFFF" d="M157.9,268.2c0.5,0,1-0.1,1.5,0c3.7,0.1,6.8,1.5,9.6,3.8c1.8,1.5,3.1,3.3,4,5.4c0.6,1.5,0.9,3,0.8,4.5
					c0,0.2-0.1,0.2-0.2,0.2c-2.3,0.2-4.5-0.2-6.6-1.2c-4.5-2-7.3-5.5-8.8-10.1c-0.2-0.7-0.4-1.5-0.4-2.3
					C157.9,268.4,157.9,268.3,157.9,268.2z"/>
			</g>
		</g>
	</g>
	<g>
		<path fill="#959596" d="M633.8,133.5v97.3h-221v-97.3c0-54.6,49.5-98.9,110.5-98.9C584.3,34.7,633.8,78.9,633.8,133.5z"/>
		<path fill="#898989" d="M633.1,267.3H411c-6.6,0-12-5.4-12-12v-60.2c0-6.6,5.4-12,12-12h222.1c6.6,0,12,5.4,12,12v60.2
			C645.1,261.9,639.7,267.3,633.1,267.3z"/>
	</g>
	<g>
		<g id="bwihba.tif">
			<g>
				<path fill="#FFFFFF" d="M833.2,427.2c7.8,0,15.6-0.1,23.4,0c6.1,0.1,12.2,0.4,18.1,2.2c4.7,1.4,8.8,3.7,11.6,7.9
					c1.9,2.9,2.7,6.1,3.1,9.5c0.7,6.2,0.7,12.5,0.2,18.7c-0.3,3.9-1,7.8-3.3,11.1c-2.5,3.7-6.1,5.9-10.2,7.4
					c-4.1,1.5-8.4,2.2-12.8,2.5c-13.9,0.8-27.9,0.3-41.9,0.4c-5.3,0-10.6,0-16-0.2c-5.7-0.2-11.3-1-16.6-3.1
					c-7.3-3-11.3-8.4-12-16.2c-0.7-6.9-0.7-13.7,0-20.6c0.5-4.2,1.7-8.1,4.6-11.4c2.7-3,6.2-4.8,10.1-5.9c4.5-1.4,9.1-2,13.7-2
					c9.3-0.2,18.7-0.2,28-0.3C833.2,427.1,833.2,427.1,833.2,427.2z"/>
			</g>
		</g>
		<g id="MeQbFJ.tif_1_">
			<g>
				<path fill="#EFEFEF" d="M869.5,452.9c0.5,0.8,1.3,1.2,2.2,1.2c1-0.1,1.6-0.6,2.1-1.5c0.1,0,0.2,0.1,0.3,0.1
					c0.5,0.2,1,0.4,1.4,0.8c0.2,0.1,0.4,0.3,0.6,0.5c0.2,0.2,0.3,0.3,0.5,0.6c0.1,0.2,0.1,0.4,0.1,0.6c0,0.2-0.1,0.5-0.2,0.7
					c-0.1,0.2-0.1,0.3-0.2,0.5c-0.1,0.3-0.1,0.5-0.1,0.8c0,0.2,0.1,0.5,0.2,0.7c0.1,0.2,0.1,0.3,0.2,0.5c0,0.2,0.1,0.3,0,0.5
					c0,0.2-0.1,0.4-0.2,0.5c-0.1,0.2-0.3,0.4-0.5,0.6c-0.8,0.7-1.7,1.1-2.6,1.4c-0.3,0.1-0.7,0.2-1,0.2c-0.3,0-0.6,0-0.9,0
					c-0.5,0-0.9-0.1-1.3-0.3c-0.6-0.3-1-0.6-1.3-1.2c-0.2-0.3-0.3-0.6-0.3-1c0-0.3,0-0.6,0.1-0.9c0.1-0.2,0.2-0.4,0.2-0.6
					c0-0.1,0.1-0.2,0.1-0.3c0-0.2,0-0.3,0-0.5c-0.1-0.2-0.1-0.4-0.2-0.6c-0.1-0.2-0.1-0.4-0.2-0.6c-0.1-0.2-0.1-0.4,0-0.7
					c0-0.4,0.1-0.7,0.3-1C868.9,453.4,869.1,453.1,869.5,452.9C869.5,452.9,869.5,452.9,869.5,452.9z"/>
				<path fill="#EFEFEF" d="M865.8,454.8c0.1,0,0.2,0,0.2,0c0.6,0,1.1,0.2,1.5,0.6c0.3,0.2,0.5,0.5,0.6,0.9c0.1,0.2,0.1,0.5,0.1,0.7
					c0,0,0,0,0,0c-0.4,0-0.7,0-1-0.2c-0.7-0.3-1.2-0.9-1.4-1.6C865.8,455.1,865.8,455,865.8,454.8
					C865.8,454.9,865.8,454.9,865.8,454.8z"/>
			</g>
		</g>
	</g>
	<g>
		<path fill="#3F2D23" d="M912.5,393.6c-3,1-5.3-2.4-5.6-2.8c0,0,0-0.1-0.1-0.1l-35.4-38.3c-0.7-0.7-1.7-1.2-2.7-1.2h-71.1
			c-1,0-2,0.4-2.7,1.2l-35.4,38.3c0,0-0.1,0.1-0.1,0.1c-0.3,0.4-2.6,3.8-5.6,2.8c-3.2-1.1-6.5-4.4-2.4-8.1
			c3.5-3.1,24.2-26.2,30.7-33.5c0.8-0.8,0.1-2.2-1-2.2h-16.5c-0.5,0-0.8-0.6-0.5-1l6.9-8c0.1-0.1,0.3-0.2,0.5-0.2h123.5
			c0.2,0,0.4,0.1,0.5,0.2l6.9,8c0.3,0.4,0.1,1-0.5,1h-16.5c-1.1,0-1.8,1.3-1,2.2c6.5,7.3,27.3,30.4,30.7,33.5
			C919.1,389.2,915.7,392.6,912.5,393.6z"/>
		<g id="LBtqpC.tif_1_">
			<g>
				<path fill="#3F2D23" d="M793,333c7.9,0.1,13.8,0.9,19.6,2.1c4.8,1,9.7,2.1,14.5,3.1c4.9,1,9.8,0.6,14.6-0.4
					c5.8-1.2,11.6-2.5,17.4-3.4c7.7-1.3,15.5-1.7,23.3-0.8c8.3,0.9,16.6,2,24.9,3c1.1,0.1,1.3,0.4,1.4,1.5c0.1,2.5,0.1,5.1,0.2,7.6
					c0,1.1-0.2,1.3-1.3,1.4c-1.2,0.2-1.9,0.9-2.5,1.8c-1,1.6-1.2,3.4-1.5,5.2c-1,5.2-1.8,10.3-3.5,15.3c-1.7,5.2-4.7,9.5-9.7,12.2
					c-2.9,1.6-6.1,2.4-9.4,2.7c-5.2,0.6-10.5,0.5-15.7-0.4c-7.7-1.3-13.6-5.3-17.8-11.9c-3.3-5.2-5.6-10.9-7.6-16.8
					c-0.4-1.1-0.8-2.2-1.3-3.2c-2.1-3.6-7.1-4.1-9.9-1c-1.2,1.4-2,3-2.7,4.7c-1.6,3.7-3,7.6-4.8,11.2c-2.4,5.1-5.8,9.4-10.6,12.5
					c-3.7,2.4-7.8,3.8-12.1,4.4c-5.4,0.8-10.9,0.9-16.2-0.6c-4.4-1.2-8.4-3-11.6-6.3c-2.2-2.2-3.7-4.9-4.6-7.9
					c-1.7-5.9-2.9-11.8-3.9-17.9c-0.4-2.3-1.5-4-3.9-4.7c-0.7-0.2-1-0.7-1-1.3c0-2.6,0.1-5.1,0.2-7.7c0.1-1.4,0.6-1.8,2-1.9
					c7.7-0.7,15.3-1.5,23-2.1C786.6,333.2,790.8,333.1,793,333z M792.9,336c-1.6,0-3.3,0-4.9,0c-3.2,0.1-6.3,0.4-9.4,1.1
					c-5.2,1.3-8.8,4.4-10.1,9.6c-0.6,2.3-0.9,4.6-1.1,6.9c-0.3,4.6,0,9.2,1.3,13.6c2.5,8.1,7.7,13,16.2,14.5
					c3.7,0.6,7.5,0.5,11.2,0.1c7.7-0.8,14.1-4.1,18.9-10.2c4.7-6.1,6.9-13.2,7.5-20.8c0.3-3.6-1.2-6.4-4-8.6c-2.5-2-5.4-3.3-8.5-4.2
					C804.5,336.4,798.7,335.8,792.9,336z M870.1,336.2c-3,0-7.1,0.3-11.2,1.1c-3.3,0.7-6.6,1.6-9.5,3.5c-3.8,2.4-5.7,5.8-5.3,10.2
					c0.4,5.5,1.7,10.8,4,15.8c3.5,7.3,9.1,12.3,17.1,14.3c6,1.5,12,1.6,18.1,0.4c7.2-1.4,11.8-5.6,13.7-12.6c0.8-3,1.3-6,1.5-9.1
					c0.2-3.8,0.5-7.6-0.1-11.4c-0.6-4.2-2.7-7.4-6.7-9.2c-1.8-0.8-3.7-1.4-5.6-1.8C881.3,336.2,876.3,336.2,870.1,336.2z"/>
				<path opacity="0.37" fill="#FFFFFF" d="M792.9,336c5.8-0.2,11.6,0.4,17.2,2.1c3.1,0.9,6,2.2,8.5,4.2c2.8,2.2,4.3,5,4,8.6
					c-0.6,7.6-2.8,14.7-7.5,20.8c-4.8,6.2-11.2,9.4-18.9,10.2c-3.7,0.4-7.5,0.5-11.2-0.1c-8.4-1.4-13.7-6.4-16.2-14.5
					c-1.3-4.4-1.7-9-1.3-13.6c0.2-2.3,0.5-4.7,1.1-6.9c1.4-5.3,4.9-8.4,10.1-9.6c3.1-0.8,6.2-1,9.4-1.1
					C789.6,336,791.3,336,792.9,336z"/>
				<path opacity="0.37" fill="#FFFFFF" d="M870.1,336.2c6.2,0,11.2,0,16.1,1.1c1.9,0.4,3.8,1,5.6,1.8c3.9,1.8,6,5,6.7,9.2
					c0.6,3.8,0.3,7.6,0.1,11.4c-0.2,3.1-0.6,6.1-1.5,9.1c-2,7-6.6,11.3-13.7,12.6c-6.1,1.2-12.1,1.1-18.1-0.4c-8-2-13.6-7-17.1-14.3
					c-2.4-5-3.6-10.3-4-15.8c-0.3-4.5,1.6-7.9,5.3-10.2c2.9-1.8,6.2-2.8,9.5-3.5C863,336.5,867.1,336.2,870.1,336.2z"/>
			</g>
		</g>
		<path fill="#D8D8D8" d="M759.5,341.8c0,0,2.9-2.6,5.2,0C764.7,341.8,762.1,343.4,759.5,341.8z"/>
		<path fill="#D8D8D8" d="M902.2,341.8c0,0,2.9-2.6,5.2,0C907.4,341.8,904.8,343.4,902.2,341.8z"/>
	</g>
	<g>
		<ellipse fill="#FFFFFF" cx="504.8" cy="420.4" rx="112.9" ry="113.6"/>
		<ellipse fill="#F5F5F9" cx="504.8" cy="420.4" rx="104.5" ry="105.2"/>
		<ellipse fill="#934E1B" cx="504.8" cy="420.4" rx="102.7" ry="103.4"/>
		<path fill="#6DA429" d="M455.8,307.3c0,0,20.9,1.7,21.8,15.7s-8.4,51.7-8.4,51.7l-18.4-23.1C450.9,351.6,439.4,321.7,455.8,307.3z
			"/>
		<path fill="#6DA429" d="M389.6,453.5c0,0-0.3-14.9,16-23.6c16.3-8.7,29,16.2,29,16.2l-15,20.4
			C419.6,466.5,402.3,468.8,389.6,453.5z"/>
		<path fill="#6DA429" d="M396,368.7c0,0,6.3-2.2,9.3-2.9s12.1-6.1,27.3,2.2c15.2,8.3,31.3,20.2,31.3,20.2l5.5,13.4
			c0,0-24.2-5.5-29.5-6.7C434.6,393.8,401.1,395.8,396,368.7z"/>
		<path fill="#5F932F" d="M569.5,477.7c0,0,7.5,11.3,21.5,4.7l6-3.8l0.6-9.4c0,0,1.1-10.3-13.4-21.1s-62.8-21.4-62.8-21.4l9.1,16.2
			L569.5,477.7z"/>
		<path fill="#6B9B26" d="M583.6,388.6c0,0,13.4-2.1,13.4-17.5l-0.9-7l-8.3-4.5c0,0-8.9-5.3-24.8,3.2c-15.9,8.6-46,47.8-46,47.8
			l18.5-1.3L583.6,388.6z"/>
		<path fill="#5F932F" d="M585.7,430.8c0,0,11.1,7.7,21.8-3.5l4.2-5.7l-2.9-9c0,0-2.8-10-20.2-14.7c-17.4-4.7-66.3,3.1-66.3,3.1
			l14.4,11.7L585.7,430.8z"/>
		<path fill="#5F932F" d="M532.3,339.5c0,0,6.5-21.5-5.4-31.4l-6-3.8l-8.8,3.5c0,0-12.5,7.3-16,25s-0.6,62.1-0.6,62.1l21.6-15.1
			L532.3,339.5z"/>
		<path fill="#83B042" d="M555.2,408.1c0,0,32.2-4.4,48.2,10.7c0,0,8.7,9.1,8.2,17.2c0,0-6.9,16.5-31.3,12.7
			c-24.4-3.9-53.3-21.5-53.3-21.5l-19.7-7.3L555.2,408.1z"/>
		<path fill="#6DA429" d="M452.8,492.3c0,0-2,21.8,8.9,26c0,0,19,0.7,23.4-17.5s5.9-54.6,5.9-54.6L452.8,492.3z"/>
		<path fill="#6DA429" d="M500.4,512.6c0,0,9.3,19.8,20.8,17.9c0,0,16.7-9.1,11.2-27c-5.5-17.9-22.7-50-22.7-50L500.4,512.6z"/>
		<path fill="#6B9B26" d="M419.6,393.9c0,0-25.7,3.1-27.3,14.6c0,0,3.7,18.6,22.5,18.7s54.5-6.9,54.5-6.9L419.6,393.9z"/>
		<path fill="#83B042" d="M440.1,438.2c0,0-25.5,7.4-24.2,32.1v7.4c0,0,10.7,3.2,18.7,1.6c8-1.6,26.4-11.2,26.4-11.2l13.8-43.2
			L440.1,438.2z"/>
		<path fill="#5F932F" d="M482.6,414.9l-22.7-2c0,0-25.7-0.3-43,5.3c-17.3,5.6-17.8,21-17.8,21s11.8,13.1,24.4,8.4
			c12.7-4.7,60.4-22.9,60.4-22.9L482.6,414.9z"/>
		<path fill="#5F932F" d="M421.9,338.9c0,0,10.2-3.3,20.9,2.4s28.7,22.1,37.1,44.2s12.1,26,12.1,26l-17.4-7.6
			c0,0-18.4-7.2-35.1-24.4C439.5,379.6,411.5,358.6,421.9,338.9z"/>
		<path fill="#83B042" d="M415.9,389c0,0,5.8-2,8.4-2.7c2.7-0.7,11-5.5,24.8,2c13.8,7.5,28.4,18.4,28.4,18.4l5,12.2
			c0,0-22-5-26.8-6.1S420.6,413.7,415.9,389z"/>
		<path fill="#5F932F" d="M522.2,497c0,0,0.3,13.5,15.6,15.5h7.1l5.6-7.7c0,0,6.4-8.1,0-25C544.1,463,509,428,509,428l-1.1,18.5
			L522.2,497z"/>
		<path fill="#5F932F" d="M490.9,448.7c0,0-7,9.8-10.8,19.3c-3.8,9.5-4.7,25.7-28.9,30.3h-6.4l-1.8-5.6c0,0-7.5-18.4,12.9-33.1
			c20.4-14.7,30.4-32.5,30.4-32.5l8.4,0.9L490.9,448.7z"/>
		<path fill="#6DA429" d="M477.8,424.8l-18,11.2c0,0-11.5,5-13.3,12.1c-1.8,7.1-1.8,10.2-1.8,10.2s4.2,4.7,7.5,5.3
			c3.3,0.7,7.8,2.7,15.3-8.1c7.5-10.8,23.2-25.6,23.2-25.6L477.8,424.8z"/>
		<path fill="#83B042" d="M488.1,449.4c0,0-6.4,15.1-7.8,28c0,0-9.5,25.5,1.3,35.1l6.4,5.8l9.8-4.7c0,0,19.5-9.8,10.1-31.5
			s0-1.1,0-1.1l-1.9-36.5L488.1,449.4z"/>
		<path fill="#6B9B26" d="M508.4,431.1c0,0,9.3,20.5,13.8,27.6c4.5,7.2,24.5,31.5,5.8,46.1c0,0-21.9-0.2-24.1-36.9l-7.8-35
			L508.4,431.1z"/>
		<path fill="#83B042" d="M508,430.2c0,0-0.1,6.9,9.2,14.2c9.3,7.3,17,24.1,17.6,25.6c0.6,1.5,9.5,25.5,36.9,23.6
			c0,0,9.9-18.8-4.8-35.1c-14.7-16.3-37.8-24.8-37.8-24.8L508,430.2z"/>
		<path fill="#83B042" d="M466.3,315.8c0,0,5.4,1.8,7.8,2.8c2.4,1,21.4,9.8,20.4,38.1c-1,28.3,3.5,41.8-1.8,58.8
			c0,0-15.8-23.8-24.4-47.9c0,0-13.7-28.1-6.4-43.9L466.3,315.8z"/>
		<path fill="#6DA429" d="M490.9,429.9c0,0-8.3,8-5.1,20.3c0,0,3.8,7.3,10.3,4.8c6.5-2.5,7.2-4.5,7.2-8s-8.5-19-8.5-19L490.9,429.9z
			"/>
		<path fill="#6B9B26" d="M490.9,419.7c0,0-7.8-5-12.3,3.5c-4.5,8.5,1.5,11.3,3.8,12.7c2.3,1.3,7.2-9.7,7.2-9.7L490.9,419.7z"/>
		<path fill="#6DA429" d="M493.7,413.9c0,0-8.5-13.6-20-11.2c0,0-4.5,3.8-0.8,11.2c3.7,7.3,18,5.8,18,5.8L493.7,413.9z"/>
		<path fill="#83B042" d="M519.4,372.6c0,0,8.7-28.4,18.4-35.5c9.8-7.1,18.4-10,27.3-8c0,0,15.5,11.5-1.6,33.5
			c-17.1,22-55.6,52.3-55.6,52.3l-10.1-6.8L519.4,372.6z"/>
		<path fill="#6B9B26" d="M492,414.4c0,0,2.8-22.5,2.7-30.4c-0.1-8-2.8-20.2,7.7-26c0,0,3.8-2.7,12.5-1.6c0,0,10.7,8.7,6.4,22
			c0,0-1.3,4.7-8,14c-6.7,9.3-12,33.4-12,33.4l-10.3,1.4L492,414.4z"/>
		<path fill="#6DA429" d="M503.9,409.6c0,0,22.1-9.6,32-14.5c7-3.5,25.5-19.8,41.1-14.4c15.5,5.3,14,5.1,14,5.1s-2.7,19-19.8,22.4
			s-63.3,13.6-63.3,13.6L503.9,409.6z"/>
		<path fill="#6B9B26" d="M506.1,418.8c0,0,12.4,2.4,18.4,2.9c6,0.4,15.3-1.8,19.5,12.7c0,0-5.1,11.1-20.4,5.8
			c-15.3-5.3-23.3-11.5-23.3-11.5L506.1,418.8z"/>
		<path fill="#83B042" d="M495.3,423.2c0,0,3.9,10.6-5.7,9.8C480,432.1,491,417.1,495.3,423.2z"/>
		<path fill="#5F932F" d="M499.7,419.9c0,0-2.8-6-8.7-6.9c-5.9-0.9-6.6,5.1-6.6,5.1S486.8,424.8,499.7,419.9z"/>
		<path fill="#5F932F" d="M497.2,421.7c0,0,11.8-1.4,8.2,13.3c0,0-1.8,4.2-8.2,2.9C497.2,437.9,491.4,429.5,497.2,421.7z"/>
		<path fill="#83B042" d="M496,413.7c0,0,3.8,9.4,8.7,9.7c0,0,3.8,4.1,4.2-1.7c0.4-5.8-2.7-14.2-11.1-13.5
			C497.9,408.1,494.3,410.3,496,413.7z"/>
	</g>
	<line fill="#A9A1A5" x1="79.4" y1="-221.4" x2="77.4" y2="-220"/>
	<g>
		<g>
			<polygon fill="#702137" points="1129.9,36.1 1129.9,38.4 1098,38.4 1098,16.5 1110.4,16.5 			"/>
			<polygon fill="#7D2636" points="1098,16.5 1098,38.4 1066.1,38.4 1066,36.2 1085.7,16.5 			"/>
			<rect x="1066" y="38" fill="#772436" width="19.9" height="22.2"/>
			<rect x="1110" y="38.4" fill="#772436" width="19.9" height="22.2"/>
		</g>
		<path fill="#772436" d="M1259.7,488.1v2.1c0,17.9-14.7,32.6-32.6,32.6h-260c-17.9,0-32.6-14.7-32.6-32.6v-2.1H1259.7z"/>
		<path fill="#7D2636" d="M1259.7,143.4v344.6H934.5V143.4c0-17.9,14.7-32.6,32.6-32.6h260C1245,110.8,1259.7,125.5,1259.7,143.4z"
			/>
		<rect x="1018.3" y="373.9" fill="#702137" width="161.2" height="114.2"/>
		<path fill="#702137" d="M1241.8,265H952.5c-12.4,0-22.6-10.2-22.6-22.6V78.5c0-12.4,10.2-22.6,22.6-22.6h289.3
			c12.4,0,22.6,10.2,22.6,22.6v163.9C1264.3,254.8,1254.2,265,1241.8,265z"/>
		<polygon fill="#9D6449" points="996.7,55.9 996.7,110.8 996.7,220.9 996.7,522.8 1027,522.8 1027,220.9 1027,110.8 1027,55.9 		
			"/>
		<polygon fill="#9D6449" points="1194.7,55.9 1194.7,110.8 1194.7,220.9 1194.7,522.8 1164.3,522.8 1164.3,220.9 1164.3,110.8 
			1164.3,55.9 		"/>
		<polygon fill="#915740" points="1027,55.9 1027,327.6 1011.8,341.4 996.7,327.6 996.7,55.9 		"/>
		<polygon fill="#915740" points="1194.7,55.9 1194.7,327.6 1179.5,341.4 1164.3,327.6 1164.3,55.9 		"/>
		<path fill="#6D5F5F" d="M1028.4,305h-33.2c-1.9,0-3.5-1.6-3.5-3.5v-29.9c0-1.9,1.6-3.5,3.5-3.5h33.2c1.9,0,3.5,1.6,3.5,3.5v29.9
			C1032,303.4,1030.4,305,1028.4,305z"/>
		<path fill="#915740" d="M1024.6,301.5h-25.5c-1.9,0-3.5-1.6-3.5-3.5v-22.9c0-1.9,1.6-3.5,3.5-3.5h25.5c1.9,0,3.5,1.6,3.5,3.5v22.9
			C1028.1,299.9,1026.5,301.5,1024.6,301.5z"/>
		<path fill="#6D5F5F" d="M1196.1,305h-33.2c-1.9,0-3.5-1.6-3.5-3.5v-29.9c0-1.9,1.6-3.5,3.5-3.5h33.2c1.9,0,3.5,1.6,3.5,3.5v29.9
			C1199.6,303.4,1198,305,1196.1,305z"/>
		<path fill="#915740" d="M1192.3,301.5h-25.5c-1.9,0-3.5-1.6-3.5-3.5v-22.9c0-1.9,1.6-3.5,3.5-3.5h25.5c1.9,0,3.5,1.6,3.5,3.5v22.9
			C1195.8,299.9,1194.2,301.5,1192.3,301.5z"/>
		<rect x="1055.9" y="406.4" fill="#FFFFFF" width="83.1" height="50.6"/>
		<rect x="1060.6" y="410.2" fill="none" stroke="#000000" stroke-miterlimit="10" width="73.8" height="43"/>
		<line fill="none" stroke="#000000" stroke-width="0.7" stroke-miterlimit="10" x1="1072.5" y1="438.2" x2="1122.4" y2="438.2"/>
		<line fill="none" stroke="#000000" stroke-width="0.7" stroke-miterlimit="10" x1="1072.5" y1="426.6" x2="1122.4" y2="426.6"/>
	</g>
	<g>
		<g id="Iphone_bg">
			<g>
				<path fill="#FFFFFF" d="M714.8,328.3h-2.3c-0.2-0.3-0.5-0.6-0.9-0.6h-13c-0.4,0-0.8,0.2-0.9,0.6h-45.3c-6.2,0-11.2,5-11.2,11.2
					v14.1c-0.4,0.2-0.7,0.6-0.7,1v5.9c0,0.5,0.3,0.9,0.7,1v8.7c-0.4,0.2-0.7,0.6-0.7,1v4.5c0,0.5,0.3,0.8,0.7,1v8.1
					c-0.4,0.2-0.7,0.6-0.7,1v4.5c0,0.5,0.3,0.8,0.7,1v104.3c0,6.2,5,11.2,11.2,11.2h62.5c6.2,0,11.2-5,11.2-11.2V339.5
					C726,333.3,721,328.3,714.8,328.3z"/>
			</g>
		</g>
		
			<image overflow="visible" width="643" height="1140" id="Screen_xA0_Image_1_" xlink:href="CB9884D0F9471F96.png"  transform="matrix(0.112 0 0 0.112 648.1042 353.7081)">
		</image>
		<g id="btn">
			<g>
				<circle fill="#F4F4F4" cx="683.2" cy="494.3" r="8"/>
			</g>
		</g>
		
			<image overflow="visible" width="54" height="54" id="home_btn_xA0_Image_2_" xlink:href="CB9884D0F9471F95.png"  transform="matrix(0.112 0 0 0.112 680.1684 491.1242)">
		</image>
		
			<image overflow="visible" width="31" height="31" id="Camera_xA0_Image_5_" xlink:href="CB9884D0F9471F92.png"  transform="matrix(0.112 0 0 0.112 681.5123 335.3411)">
		</image>
		
			<image overflow="visible" width="17" height="17" id="Camera_xA0_Image_4_" xlink:href="CB9884D0F9471F9D.png"  transform="matrix(0.112 0 0 0.112 682.2963 336.1251)">
		</image>
		<g id="Mic">
			<g>
				<path fill="#E7E7E7" d="M689.4,342.5h-12.3c-0.7,0-1.3,0.6-1.3,1.3s0.6,1.3,1.3,1.3h12.3c0.7,0,1.3-0.6,1.3-1.3
					S690.1,342.5,689.4,342.5z"/>
			</g>
		</g>
	</g>
	<g>
		<rect x="857.3" y="229.3" fill="#5C6266" width="13.7" height="11.5"/>
		<rect x="857.3" y="240.8" fill="#454B4F" width="13.7" height="11.5"/>
		<rect x="707.8" y="240.8" fill="#EFB35B" width="149.4" height="11.5"/>
		<rect x="707.8" y="229.3" fill="#FECB65" width="149.4" height="11.5"/>
		<path fill="#EF766A" d="M880.2,250.8H871v-10h10.6v9C881.6,250.4,880.9,250.8,880.2,250.8z"/>
		<path fill="#FD8B77" d="M881.6,240.8H871v-9.4h9.1c0.8,0,1.4,0.5,1.4,1.1V240.8z"/>
		<polygon fill="#FFFEFD" points="707.8,240.8 684.1,240.8 684.1,236.9 707.8,229.3 		"/>
		<polygon fill="#F5F5F5" points="707.8,252.3 684.1,245 684.1,240.8 707.8,240.8 		"/>
		<polygon fill="#454B4F" points="684.1,245 671.2,241 672,240.8 684.1,240.8 		"/>
		<polygon fill="#5C6266" points="684.1,240.8 672,240.8 684.1,236.9 		"/>
	</g>
	<g>
		<path fill="#E6E7E8" d="M826.6,152.3h10.9c0.6,0,1,0.4,1,1v9.1h-12.9v-9.1C825.6,152.8,826,152.3,826.6,152.3z"/>
		<path fill="#BCBEC0" d="M825.6,162.4h12.9v9.4c0,0.6-0.4,1-1,1h-10.9c-0.6,0-1-0.4-1-1V162.4z"/>
		<path fill="#F1F2F2" d="M881.8,160.5c0.9,0,1.7,0.7,1.9,1.5h-22.2c-0.2-1.2-1.1-2-2.4-2c-1.3,0-2.4,1.1-2.4,2.4c0,0,0,0,0,0.1
			h-18.3v-7.6l20.7-2.5l20.9,9.5C880.3,161,881,160.5,881.8,160.5z"/>
		<path fill="#D1D3D4" d="M859.1,164.7c1.1,0,2-0.8,2.3-1.8h22.2c-0.2,0.8-1,1.4-1.8,1.4c-0.8,0-1.4-0.5-1.7-1.1l-21,9.3l-20.7-2.4
			v-7.7h18.3C856.8,163.7,857.8,164.7,859.1,164.7z"/>
		<path fill="#00B0B0" d="M825.6,156.4v6H671.8c0.1-0.2,0.5-1.5,3-2.3C677.6,159.3,762.1,145.7,825.6,156.4z"/>
		<path fill="#029E96" d="M671.8,162.4h153.8v6.6c0,0-43.3,13.9-150.8-4.3C674.8,164.7,672.3,164.2,671.8,162.4
			C671.8,162.5,671.8,162.4,671.8,162.4z"/>
	</g>
	<g>
		<path fill="#2D2D2D" d="M873.2,61.9h5.9c1.9,0,3.5,1.2,3.5,2.7v18.6h-9.4V61.9z"/>
		<path fill="#231F20" d="M873.2,83.1h9.4v18.4c0,1.5-1.6,2.7-3.5,2.7h-5.9V83.1z"/>
		<rect x="723.1" y="61.9" fill="#2D2D2D" width="5.2" height="21.2"/>
		<rect x="723.1" y="83.1" fill="#231F20" width="5.2" height="21.1"/>
		<rect x="728.3" y="83.1" fill="#F1F2F2" width="2.8" height="21.1"/>
		<rect x="728.3" y="61.9" fill="#FFFFFF" width="2.8" height="21.2"/>
		<rect x="731.1" y="61.9" fill="#2D2D2D" width="139.2" height="21.2"/>
		<rect x="731.1" y="83.1" fill="#231F20" width="139.2" height="21.1"/>
		<rect x="870.3" y="83.1" fill="#F1F2F2" width="2.8" height="21.1"/>
		<rect x="870.3" y="61.9" fill="#FFFFFF" width="2.8" height="21.2"/>
		<polygon fill="#BCBEC0" points="695.8,83.1 723.1,83.1 723.1,104.2 695.8,94.1 		"/>
		<polygon fill="#D1D3D4" points="723.1,61.9 723.1,83.1 695.8,83.1 695.8,72.4 		"/>
		<rect x="684.4" y="83.1" fill="#CECECE" width="11.4" height="9.3"/>
		<rect x="684.4" y="73.8" fill="#DBDBDB" width="11.4" height="9.3"/>
		<polygon fill="#2D2D2D" points="670.1,75.6 684.4,75.6 684.4,83.1 672.8,83.1 		"/>
		<polygon fill="#231F20" points="672.8,83.1 684.4,83.1 684.4,90.7 675.4,90.7 		"/>
	</g>
	<rect x="648.1" y="353.7" fill="#262626" width="72" height="127.7"/>
</g>
</svg>
