<svg xmlns="http://www.w3.org/2000/svg" xmlns:xlink="http://www.w3.org/1999/xlink" viewBox="0 0 1292 916.3" enable-background="new 0 0 1292 916.3"><path fill="#ACB8BF" d="M0 0h1292v916.3h-1292z"/><g><path fill="#D8D8D8" d="M369.9 54v481.3c0 6.6-5.4 12-12 12h-313.1c-6.6 0-12-5.4-12-12v-481.3c0-6.6 5.4-12 12-12h313.1c6.6 0 12 5.4 12 12z"/><g fill="#fff"><path d="M180.6 268.5c3.4 5 8 7.8 14.2 7.4 6.2-.4 10.4-3.8 13.1-9.2.7.2 1.4.5 2 .7 3.1 1.2 6.1 2.8 8.8 4.8 1.3.9 2.6 1.8 3.7 2.9 1.2 1.1 2.2 2.2 2.9 3.6.6 1.2.9 2.6.8 3.9-.1 1.5-.5 2.9-1.1 4.3-.4 1-.9 2-1.2 3.1-.5 1.7-.6 3.4-.4 5.2.2 1.5.6 2.9 1.2 4.3.4 1.1.9 2.1 1.2 3.2.2 1 .4 2 .3 3-.1 1.2-.5 2.2-1.1 3.2-.9 1.4-2.1 2.6-3.4 3.7-5 4.2-10.5 7.2-16.8 8.9-2.2.6-4.4 1.1-6.6 1.3-1.9.2-3.8.3-5.7.1-2.9-.2-5.7-.8-8.3-2-3.5-1.6-6.3-4.1-8.2-7.5-1.1-2-1.8-4.1-2-6.3-.2-2 0-4 .7-5.9l1.5-3.9.6-2c.3-1 .1-1.9-.2-2.9-.4-1.2-.9-2.4-1.4-3.6-.5-1.2-.9-2.4-1.2-3.7-.3-1.4-.4-2.8-.3-4.3.2-2.2.7-4.4 1.7-6.4 1.2-2.4 2.8-4.4 5-5.9.1.1.2.1.2 0zM157 281.1c.5 0 1-.1 1.5 0 3.7.1 6.8 1.5 9.6 3.8 1.8 1.5 3.1 3.3 4 5.4.6 1.5.9 3 .8 4.5 0 .2-.1.2-.2.2-2.3.2-4.5-.2-6.6-1.2-4.5-2-7.3-5.5-8.8-10.1-.2-.7-.4-1.5-.4-2.3.1-.1.1-.2.1-.3z"/></g><path fill="#959596" d="M638.9 146.4v97.3h-221v-97.3c0-54.6 49.5-98.9 110.5-98.9s110.5 44.3 110.5 98.9z"/><path fill="#898989" d="M638.2 280.2h-222.1c-6.6 0-12-5.4-12-12v-60.2c0-6.6 5.4-12 12-12h222.1c6.6 0 12 5.4 12 12v60.2c0 6.6-5.4 12-12 12z"/><path fill="#fff" d="M935 855.9c-7.9 0-15.8.1-23.8 0-6.2-.1-12.4-.4-18.4-2.3-4.8-1.5-8.9-3.8-11.8-8.1-1.9-2.9-2.7-6.2-3.1-9.6-.7-6.3-.7-12.7-.2-19 .4-4 1-7.9 3.3-11.3 2.5-3.7 6.2-6 10.3-7.5 4.2-1.5 8.5-2.3 13-2.5 14.2-.8 28.4-.3 42.5-.4 5.4 0 10.8 0 16.2.2 5.8.2 11.5 1 16.9 3.2 7.4 3 11.4 8.5 12.2 16.5.7 7 .7 14 0 20.9-.5 4.3-1.7 8.3-4.7 11.5-2.8 3.1-6.3 4.8-10.2 6-4.5 1.4-9.2 2-13.9 2.1-9.5.2-19 .2-28.4.3.1.1.1 0 .1 0z"/><g fill="#EFEFEF"><path d="M898.2 829.8c-.6-.8-1.3-1.3-2.3-1.2-1 .1-1.7.6-2.1 1.5l-.3-.1c-.5-.2-1-.5-1.4-.8-.2-.1-.4-.3-.6-.5l-.5-.6c-.1-.2-.1-.4-.1-.6 0-.2.1-.5.2-.7l.2-.5c.1-.3.1-.5.1-.8 0-.2-.1-.5-.2-.7l-.2-.5c0-.2-.1-.3 0-.5 0-.2.1-.4.2-.5.1-.2.3-.4.5-.6.8-.7 1.7-1.2 2.7-1.4.4-.1.7-.2 1.1-.2h.9c.5 0 .9.1 1.3.3.6.3 1 .7 1.3 1.2.2.3.3.7.3 1 0 .3 0 .6-.1.9-.1.2-.2.4-.2.6l-.1.3v.5l.2.6.2.6c.1.2.1.5 0 .7 0 .4-.1.7-.3 1-.2.4-.5.7-.8 1zM902 827.8h-.2c-.6 0-1.1-.2-1.5-.6-.3-.2-.5-.5-.6-.9-.1-.2-.1-.5-.1-.7.4 0 .7 0 1.1.2.7.3 1.2.9 1.4 1.6-.2.1-.2.2-.1.4z"/></g><path fill="#3F2D23" d="M469 815.5c-3.3 1.1-5.8-2.6-6.1-3.1 0 0 0-.1-.1-.1l-38.8-42c-.8-.8-1.8-1.3-3-1.3h-78c-1.1 0-2.2.5-3 1.3l-38.8 42-.1.1c-.3.5-2.9 4.2-6.1 3.1-3.5-1.2-7.2-4.8-2.7-8.8 3.8-3.4 26.5-28.7 33.7-36.7.8-.9.2-2.4-1.1-2.4h-18.1c-.6 0-.9-.7-.5-1.1l7.5-8.8c.1-.2.3-.2.5-.2h135.4c.2 0 .4.1.5.2l7.5 8.8c.4.4.1 1.1-.5 1.1h-18.1c-1.3 0-1.9 1.5-1.1 2.4 7.1 8 29.9 33.4 33.7 36.7 4.5 3.9.8 7.6-2.7 8.8z"/><g><path fill="#3F2D23" d="M338 749c8.6.1 15.1 1 21.5 2.4l15.9 3.4c5.4 1.1 10.7.6 16-.4 6.4-1.3 12.7-2.7 19.1-3.7 8.5-1.4 17-1.8 25.6-.8 9.1 1 18.2 2.2 27.3 3.3 1.2.1 1.5.4 1.5 1.6l.2 8.3c0 1.2-.2 1.4-1.4 1.6-1.3.2-2.1 1-2.8 2-1.1 1.7-1.3 3.7-1.7 5.7-1 5.6-2 11.3-3.8 16.8-1.9 5.7-5.2 10.4-10.6 13.3-3.2 1.7-6.7 2.6-10.3 3-5.7.6-11.5.6-17.2-.4-8.4-1.5-14.9-5.8-19.5-13-3.7-5.7-6.1-12-8.3-18.4-.4-1.2-.8-2.4-1.5-3.5-2.3-3.9-7.8-4.5-10.8-1.1-1.4 1.5-2.2 3.3-3 5.2-1.7 4.1-3.3 8.3-5.2 12.3-2.7 5.5-6.4 10.3-11.6 13.7-4.1 2.6-8.5 4.1-13.3 4.8-6 .9-11.9 1-17.8-.6-4.8-1.3-9.2-3.3-12.7-6.9-2.4-2.4-4-5.4-5-8.7-1.8-6.4-3.2-13-4.3-19.6-.4-2.6-1.7-4.4-4.2-5.2-.8-.2-1.1-.8-1.1-1.5 0-2.8.1-5.6.2-8.4.1-1.5.7-2 2.2-2.1 8.4-.8 16.8-1.6 25.2-2.3 4.4-.6 9-.7 11.4-.8zm-.1 3.3h-5.4c-3.5.1-6.9.4-10.3 1.2-5.7 1.4-9.6 4.8-11.1 10.6-.6 2.5-1 5.1-1.2 7.6-.4 5 0 10.1 1.4 14.9 2.7 8.9 8.5 14.3 17.7 15.9 4.1.7 8.2.6 12.3.1 8.5-.9 15.5-4.4 20.7-11.2 5.2-6.7 7.5-14.5 8.2-22.8.3-3.9-1.3-7-4.4-9.5-2.8-2.2-6-3.6-9.3-4.6-5.9-1.8-12.2-2.4-18.6-2.2zm84.6.2c-3.3 0-7.8.3-12.3 1.2-3.7.7-7.2 1.8-10.4 3.8-4.1 2.6-6.2 6.3-5.9 11.2.5 6 1.8 11.8 4.4 17.3 3.8 8 10 13.5 18.7 15.7 6.6 1.6 13.2 1.7 19.8.4 7.9-1.5 12.9-6.1 15-13.9.9-3.3 1.4-6.6 1.6-10 .3-4.2.6-8.3-.1-12.5-.7-4.6-3-8.2-7.3-10.1-1.9-.9-4-1.5-6.1-2-5.1-1-10.6-1.1-17.4-1.1z"/><path opacity=".37" fill="#fff" d="M337.9 752.3c6.4-.2 12.7.5 18.8 2.3 3.4 1 6.6 2.4 9.3 4.6 3 2.4 4.7 5.5 4.4 9.5-.7 8.3-3 16.1-8.2 22.8-5.2 6.7-12.3 10.3-20.7 11.2-4.1.4-8.2.6-12.3-.1-9.2-1.6-15-7-17.7-15.9-1.5-4.9-1.8-9.9-1.4-14.9.2-2.6.5-5.1 1.2-7.6 1.5-5.8 5.4-9.2 11.1-10.6 3.4-.8 6.8-1.1 10.3-1.2 1.6-.2 3.4-.1 5.2-.1zM422.5 752.5c6.8 0 12.2.1 17.6 1.2 2.1.5 4.2 1.1 6.1 2 4.3 2 6.6 5.5 7.3 10.1.6 4.2.3 8.3.1 12.5-.2 3.4-.7 6.7-1.6 10-2.2 7.7-7.2 12.4-15 13.9-6.6 1.3-13.3 1.2-19.8-.4-8.8-2.2-14.9-7.7-18.7-15.7-2.6-5.4-4-11.3-4.4-17.3-.4-4.9 1.7-8.6 5.9-11.2 3.2-2 6.7-3.1 10.4-3.8 4.3-1 8.9-1.3 12.1-1.3z"/></g><path fill="#D8D8D8" d="M301.3 758.6s3.1-2.9 5.7 0c0 0-2.9 1.8-5.7 0zM457.7 758.6s3.1-2.9 5.7 0c0 0-2.8 1.8-5.7 0z"/><ellipse fill="#fff" cx="513.9" cy="417.3" rx="112.9" ry="113.6"/><ellipse fill="#F5F5F9" cx="513.9" cy="417.3" rx="104.5" ry="105.2"/><ellipse fill="#9D6449" cx="513.9" cy="417.3" rx="102.7" ry="103.4"/><path fill="#6DA429" d="M464.9 304.2s20.9 1.7 21.8 15.7l-8.4 51.7-18.3-23.1s-11.5-30 4.9-44.3zM398.7 450.4s-.3-14.9 16-23.6c16.3-8.7 29 16.2 29 16.2l-15 20.4s-17.3 2.3-30-13zM405.1 365.6s6.3-2.2 9.3-2.9 12.1-6.1 27.3 2.2c15.2 8.3 31.3 20.2 31.3 20.2l5.5 13.4s-24.2-5.5-29.5-6.7c-5.3-1.1-38.7.9-43.9-26.2z"/><path fill="#5F932F" d="M578.6 474.6s7.5 11.3 21.5 4.7l6-3.8.6-9.4s1.1-10.3-13.4-21.1l-62.8-21.4 9.1 16.2 39 34.8z"/><path fill="#6B9B26" d="M592.7 385.5s13.4-2.1 13.4-17.5l-.9-7-8.3-4.5s-8.9-5.3-24.8 3.2c-15.9 8.6-46 47.8-46 47.8l18.5-1.3 48.1-20.7z"/><path fill="#5F932F" d="M594.8 427.7s11.1 7.7 21.8-3.5l4.2-5.7-2.9-9s-2.8-10-20.2-14.7c-17.4-4.7-66.3 3.1-66.3 3.1l14.4 11.7 49 18.1zM541.4 336.4s6.5-21.5-5.4-31.4l-6-3.8-8.8 3.5s-12.5 7.3-16 25l-.6 62.1 21.6-15.1 15.2-40.3z"/><path fill="#83B042" d="M564.3 405s32.2-4.4 48.2 10.7c0 0 8.7 9.1 8.2 17.2 0 0-6.9 16.5-31.3 12.7-24.4-3.9-53.3-21.5-53.3-21.5l-19.7-7.3 47.9-11.8z"/><path fill="#6DA429" d="M461.9 489.2s-2 21.8 8.9 26c0 0 19 .7 23.4-17.5 4.4-18.2 5.9-54.6 5.9-54.6l-38.2 46.1zM509.5 509.5s9.3 19.8 20.8 17.9c0 0 16.7-9.1 11.2-27l-22.7-50-9.3 59.1z"/><path fill="#6B9B26" d="M428.7 390.8s-25.7 3.1-27.3 14.6c0 0 3.7 18.6 22.5 18.7 18.7.1 54.5-6.9 54.5-6.9l-49.7-26.4z"/><path fill="#83B042" d="M449.3 435s-25.5 7.4-24.2 32.1v7.4s10.7 3.2 18.7 1.6 26.4-11.2 26.4-11.2l13.8-43.2-34.7 13.3z"/><path fill="#5F932F" d="M491.7 411.8l-22.7-2s-25.7-.3-43 5.3-17.8 21-17.8 21 11.8 13.1 24.4 8.4c12.7-4.7 60.4-22.9 60.4-22.9l-1.3-9.8zM431.1 335.7s10.2-3.3 20.9 2.4 28.7 22.1 37.1 44.2l12.1 26-17.4-7.6s-18.4-7.2-35.1-24.4c-.1.1-28.1-20.8-17.6-40.6z"/><path fill="#83B042" d="M425.1 385.9s5.8-2 8.4-2.7c2.7-.7 11-5.5 24.8 2l28.4 18.4 5 12.2s-22-5-26.8-6.1-35.2.9-39.8-23.8z"/><path fill="#5F932F" d="M531.3 493.8s.3 13.5 15.6 15.5h7.1l5.6-7.7s6.4-8.1 0-25-41.5-51.8-41.5-51.8l-1.1 18.5 14.3 50.5zM500 445.6s-7 9.8-10.8 19.3c-3.8 9.5-4.7 25.7-28.9 30.3h-6.4l-1.8-5.6s-7.5-18.4 12.9-33.1c20.4-14.7 30.4-32.5 30.4-32.5l8.4.9-3.8 20.7z"/><path fill="#6DA429" d="M486.9 421.7l-18 11.2s-11.5 5-13.3 12.1c-1.8 7.1-1.8 10.2-1.8 10.2s4.2 4.7 7.5 5.3c3.3.7 7.8 2.7 15.3-8.1 7.5-10.8 23.2-25.6 23.2-25.6l-12.9-5.1z"/><path fill="#83B042" d="M497.2 446.3s-6.4 15.1-7.8 28c0 0-9.5 25.5 1.3 35.1l6.4 5.8 9.8-4.7s19.5-9.8 10.1-31.5c-9.4-21.8 0-1.1 0-1.1l-1.9-36.5-17.9 4.9z"/><path fill="#6B9B26" d="M517.5 427.9s9.3 20.5 13.8 27.6c4.5 7.2 24.5 31.5 5.8 46.1 0 0-21.9-.2-24.1-36.9l-7.8-35 12.3-1.8z"/><path fill="#83B042" d="M517.1 427.1s-.1 6.9 9.2 14.2c9.3 7.3 17 24.1 17.6 25.6.6 1.5 9.5 25.5 36.9 23.6 0 0 9.9-18.8-4.8-35.1s-37.8-24.8-37.8-24.8l-21.1-3.5zM475.5 312.7s5.4 1.8 7.8 2.8c2.4 1 21.4 9.8 20.4 38.1s3.5 41.8-1.8 58.8c0 0-15.8-23.8-24.4-47.9 0 0-13.7-28.1-6.4-43.9l4.4-7.9z"/><path fill="#6DA429" d="M500 426.8s-8.3 8-5.1 20.3c0 0 3.8 7.3 10.3 4.8 6.5-2.5 7.2-4.5 7.2-8l-8.5-19-3.9 1.9z"/><path fill="#6B9B26" d="M500 416.6s-7.8-5-12.3 3.5c-4.5 8.5 1.5 11.3 3.8 12.7 2.3 1.3 7.2-9.7 7.2-9.7l1.3-6.5z"/><path fill="#6DA429" d="M502.8 410.8s-8.5-13.6-20-11.2c0 0-4.5 3.8-.8 11.2 3.7 7.3 18 5.8 18 5.8l2.8-5.8z"/><path fill="#83B042" d="M528.5 369.5s8.7-28.4 18.4-35.5c9.8-7.1 18.4-10 27.3-8 0 0 15.5 11.5-1.6 33.5s-55.6 52.3-55.6 52.3l-10-6.8 21.5-35.5z"/><path fill="#6B9B26" d="M501.1 411.3s2.8-22.5 2.7-30.4c-.1-8-2.8-20.2 7.7-26 0 0 3.8-2.7 12.5-1.6 0 0 10.7 8.7 6.4 22 0 0-1.3 4.7-8 14s-12 33.4-12 33.4l-10.4 1.3 1.1-12.7z"/><path fill="#6DA429" d="M513 406.4s22.1-9.6 32-14.5c7-3.5 25.5-19.8 41.1-14.4 15.5 5.3 14 5.1 14 5.1s-2.7 19-19.8 22.4l-63.3 13.6-4-12.2z"/><path fill="#6B9B26" d="M515.2 415.7s12.4 2.4 18.4 2.9c6 .4 15.3-1.8 19.5 12.7 0 0-5.1 11.1-20.4 5.8-15.3-5.3-23.3-11.5-23.3-11.5l5.8-9.9z"/><path fill="#83B042" d="M504.4 420s3.9 10.6-5.7 9.8c-9.6-.9 1.4-15.8 5.7-9.8z"/><path fill="#5F932F" d="M508.8 416.8s-2.8-6-8.7-6.9c-5.9-.9-6.6 5.1-6.6 5.1s2.4 6.7 15.3 1.8zM506.3 418.6s11.8-1.4 8.2 13.3c0 0-1.8 4.2-8.2 2.9 0 0-5.8-8.4 0-16.2z"/><path fill="#83B042" d="M505.2 410.6s3.8 9.4 8.7 9.7c0 0 3.8 4.1 4.2-1.7.4-5.8-2.7-14.2-11.1-13.5 0-.1-3.6 2.1-1.8 5.5z"/><path fill="#A9A1A5" d="M79.4-159l-2 1.4"/><path fill="#702137" d="M1129 49v2.3h-31.9v-21.9h12.4z"/><path fill="#7D2636" d="M1097.1 29.4v21.9h-31.9l-.1-2.2 19.7-19.7z"/><path fill="#772436" d="M1065.1 50.9h19.9v22.2h-19.9zM1109.1 51.3h19.9v22.2h-19.9zM1258.8 501v2.1c0 17.9-14.7 32.6-32.6 32.6h-260c-17.9 0-32.6-14.7-32.6-32.6v-2.1h325.2z"/><path fill="#7D2636" d="M1258.8 156.3v344.7h-325.2v-344.7c0-17.9 14.7-32.6 32.6-32.6h260c17.9 0 32.6 14.7 32.6 32.6z"/><path fill="#702137" d="M1017.4 386.8h161.2v114.2h-161.2zM1240.9 277.9h-289.3c-12.4 0-22.6-10.2-22.6-22.6v-163.9c0-12.4 10.2-22.6 22.6-22.6h289.3c12.4 0 22.6 10.2 22.6 22.6v163.9c-.1 12.4-10.2 22.6-22.6 22.6z"/><path fill="#9D6449" d="M995.8 68.8v466.9h30.3v-466.9zM1193.8 68.8v466.9h-30.4v-466.9z"/><path fill="#915740" d="M1026.1 68.8v271.7l-15.2 13.8-15.1-13.8v-271.7zM1193.8 68.8v271.7l-15.2 13.8-15.2-13.8v-271.7z"/><path fill="#6D5F5F" d="M1027.5 317.9h-33.2c-1.9 0-3.5-1.6-3.5-3.5v-29.9c0-1.9 1.6-3.5 3.5-3.5h33.2c1.9 0 3.5 1.6 3.5 3.5v29.9c.1 1.9-1.5 3.5-3.5 3.5z"/><path fill="#915740" d="M1023.7 314.4h-25.5c-1.9 0-3.5-1.6-3.5-3.5v-22.9c0-1.9 1.6-3.5 3.5-3.5h25.5c1.9 0 3.5 1.6 3.5 3.5v22.9c0 1.9-1.6 3.5-3.5 3.5z"/><path fill="#6D5F5F" d="M1195.2 317.9h-33.2c-1.9 0-3.5-1.6-3.5-3.5v-29.9c0-1.9 1.6-3.5 3.5-3.5h33.2c1.9 0 3.5 1.6 3.5 3.5v29.9c0 1.9-1.6 3.5-3.5 3.5z"/><path fill="#915740" d="M1191.4 314.4h-25.5c-1.9 0-3.5-1.6-3.5-3.5v-22.9c0-1.9 1.6-3.5 3.5-3.5h25.5c1.9 0 3.5 1.6 3.5 3.5v22.9c0 1.9-1.6 3.5-3.5 3.5z"/><path fill="#fff" d="M1055 419.3h83.1v50.6h-83.1z"/><path stroke="#000" stroke-miterlimit="10" fill="none" d="M1059.7 423.1h73.8v43h-73.8z"/><path stroke="#000" stroke-width=".7" stroke-miterlimit="10" fill="none" d="M1071.6 451.1h49.9M1071.6 439.5h49.9"/><path fill="#5C6266" d="M865.4 242.2h13.7v11.5h-13.7z"/><path fill="#454B4F" d="M865.4 253.7h13.7v11.5h-13.7z"/><path fill="#EFB35B" d="M715.9 253.7h149.4v11.5h-149.4z"/><path fill="#FECB65" d="M715.9 242.2h149.4v11.5h-149.4z"/><path fill="#EF766A" d="M888.3 263.7h-9.1v-10h10.6v9c-.1.5-.7 1-1.5 1z"/><path fill="#FD8B77" d="M889.7 253.7h-10.6v-9.4h9.1c.8 0 1.4.5 1.4 1.1v8.3z"/><path fill="#FFFEFD" d="M715.9 253.7h-23.7v-3.9l23.7-7.6z"/><path fill="#F5F5F5" d="M715.9 265.2l-23.7-7.3v-4.2h23.7z"/><path fill="#454B4F" d="M692.2 257.9l-12.9-4 .8-.2h12.1z"/><path fill="#5C6266" d="M692.2 253.7h-12.1l12.1-3.9z"/><path fill="#E6E7E8" d="M834.7 165.2h10.9c.6 0 1 .4 1 1v9.1h-12.9v-9.1c0-.5.4-1 1-1z"/><path fill="#BCBEC0" d="M833.7 175.3h12.9v9.4c0 .6-.4 1-1 1h-10.9c-.6 0-1-.4-1-1v-9.4z"/><path fill="#F1F2F2" d="M890 173.4c.9 0 1.7.7 1.9 1.5h-22.2c-.2-1.2-1.1-2-2.4-2-1.3 0-2.4 1.1-2.4 2.4v.1h-18.3v-7.6l20.7-2.5 20.9 9.5c.2-.9.9-1.4 1.8-1.4z"/><path fill="#D1D3D4" d="M867.2 177.6c1.1 0 2-.8 2.3-1.8h22.2c-.2.8-1 1.4-1.8 1.4s-1.4-.5-1.7-1.1l-21 9.3-20.7-2.4v-7.7h18.3c.1 1.3 1.2 2.3 2.4 2.3z"/><path fill="#00B0B0" d="M833.7 169.3v6h-153.8c.1-.2.5-1.5 3-2.3 2.8-.8 87.3-14.4 150.8-3.7z"/><path fill="#029E96" d="M679.9 175.3h153.8v6.6s-43.3 13.9-150.8-4.3c0 0-2.5-.5-3-2.3z"/><path fill="#2D2D2D" d="M881.3 74.8h5.9c1.9 0 3.5 1.2 3.5 2.7v18.5h-9.4v-21.2z"/><path fill="#231F20" d="M881.3 96h9.4v18.4c0 1.5-1.6 2.7-3.5 2.7h-5.9v-21.1z"/><path fill="#2D2D2D" d="M731.2 74.8h5.2v21.2h-5.2z"/><path fill="#231F20" d="M731.2 96h5.2v21.1h-5.2z"/><path fill="#F1F2F2" d="M736.4 96h2.8v21.1h-2.8z"/><path fill="#fff" d="M736.4 74.8h2.8v21.2h-2.8z"/><path fill="#2D2D2D" d="M739.3 74.8h139.2v21.2h-139.2z"/><path fill="#231F20" d="M739.3 96h139.2v21.1h-139.2z"/><path fill="#F1F2F2" d="M878.4 96h2.8v21.1h-2.8z"/><path fill="#fff" d="M878.4 74.8h2.8v21.2h-2.8z"/><path fill="#BCBEC0" d="M703.9 96h27.3v21.1l-27.3-10.1z"/><path fill="#D1D3D4" d="M731.2 74.8v21.2h-27.3v-10.7z"/><path fill="#CECECE" d="M692.5 96h11.4v9.3h-11.4z"/><path fill="#DBDBDB" d="M692.5 86.7h11.4v9.3h-11.4z"/><path fill="#2D2D2D" d="M678.2 88.5h14.3v7.5h-11.6z"/><path fill="#231F20" d="M680.9 96h11.6v7.5h-9z"/><path fill="#fff" d="M956 565.7h-2.4c-.2-.3-.6-.6-1-.6h-13.6c-.4 0-.8.2-1 .6h-47.3c-6.5 0-11.7 5.2-11.7 11.7v14.7c-.4.2-.7.6-.7 1.1v6.2c0 .5.3.9.7 1.1v9.1c-.4.2-.7.6-.7 1.1v4.7c0 .5.3.9.7 1.1v8.5c-.4.2-.7.6-.7 1.1v4.7c0 .5.3.9.7 1.1v108.9c0 6.5 5.2 11.7 11.7 11.7h65.3c6.5 0 11.7-5.2 11.7-11.7v-163.4c0-6.4-5.2-11.7-11.7-11.7z"/><image overflow="visible" width="643" height="1140" xlink:href="CB9884D0F9471F93.png" transform="matrix(.117 0 0 .117 886.415 592.296)"/><circle fill="#F4F4F4" cx="923.1" cy="739.1" r="8.4"/><image overflow="visible" width="54" height="54" xlink:href="CB9884D0F9471F91.png" transform="matrix(.117 0 0 .117 919.901 735.806)"/><image overflow="visible" width="31" height="31" xlink:href="CB9884D0F9471F97.png" transform="matrix(.117 0 0 .117 921.305 573.115)"/><image overflow="visible" width="17" height="17" xlink:href="CB9884D0F9471F90.png" transform="matrix(.117 0 0 .117 922.124 573.933)"/><path fill="#E7E7E7" d="M929.6 580.6h-12.9c-.7 0-1.3.6-1.3 1.3s.6 1.3 1.3 1.3h12.9c.7 0 1.3-.6 1.3-1.3s-.6-1.3-1.3-1.3z"/><path fill="#303030" d="M886.4 592.3h75.2v133.3h-75.2z"/><path fill="#fff" d="M33.2 588.6s.4-9.9 10.3-10.3h206.6s14.5-1 15.3 10.3v277.6s1 14.1-11.2 13.5c-12.2-.6-208 0-208 0s-11.9 1.1-12.9-9.8c-1.1-10.9-.1-281.3-.1-281.3z"/><path fill="#303030" d="M56.5 605.5h185.9v247.7h-185.9z"/><circle fill="#F4F4F4" cx="149" cy="866.2" r="8.2"/><image overflow="visible" width="54" height="54" xlink:href="CB9884D0F9471F9E.png" transform="matrix(.114 0 0 .114 145.872 862.956)"/><image overflow="visible" width="31" height="31" xlink:href="CB9884D0F9471F9F.png" transform="matrix(.114 0 0 .114 147.322 590.223)"/><image overflow="visible" width="17" height="17" xlink:href="CB9884D0F9471F92.png" transform="matrix(.114 0 0 .114 148.122 591.023)"/><path fill="#C63E2C" d="M336.7 611.4v51.1c0 8.7-7 15.7-15.7 15.7h-.1v-66.6h13v-.2h2.8z"/><path fill="#DC4A30" d="M320.9 611.6v66.6c-8.6-.1-15.5-7.1-15.5-15.7v-51.1h2.8v.2h12.7z"/><path fill="#1F3E51" d="M320.9 607.2h13v4.4h-13z"/><path fill="#35586D" d="M308.2 607.2h12.7v4.4h-12.7z"/><path fill="#EFEFEF" d="M310.2 592.1v15.1h10.7v-15.1h-10.7zm6.7 4.4h-3.2v-1.5h3.2v1.5z"/><path fill="#E5E1DC" d="M320.9 592.1v15.1h10.7v-15.1h-10.7zm7.2 4.4h-3.2v-1.5h3.2v1.5z"/><path fill="#35586D" d="M313.7 594.9h3.2v1.5h-3.2z"/><path fill="#1F3E51" d="M324.9 594.9h3.2v1.5h-3.2z"/><path fill="#EFB35B" d="M396.8 611.4v51.1c0 8.7-7 15.7-15.7 15.7h-.1v-66.6h13v-.2h2.8z"/><path fill="#FECB65" d="M381 611.6v66.6c-8.6-.1-15.5-7.1-15.5-15.7v-51.1h2.8v.2h12.7z"/><path fill="#1F3E51" d="M381 607.2h13v4.4h-13z"/><path fill="#35586D" d="M368.3 607.2h12.7v4.4h-12.7z"/><path fill="#EFEFEF" d="M370.3 592.1v15.1h10.7v-15.1h-10.7zm6.7 4.4h-3.2v-1.5h3.2v1.5z"/><path fill="#E5E1DC" d="M381 592.1v15.1h10.7v-15.1h-10.7zm7.2 4.4h-3.2v-1.5h3.2v1.5z"/><path fill="#35586D" d="M373.8 594.9h3.2v1.5h-3.2z"/><path fill="#1F3E51" d="M385 594.9h3.2v1.5h-3.2z"/><path fill="#029E96" d="M455.4 611.4v51.1c0 8.7-7 15.7-15.7 15.7h-.1v-66.6h13v-.2h2.8z"/><path fill="#00B0B0" d="M439.6 611.6v66.6c-8.6-.1-15.5-7.1-15.5-15.7v-51.1h2.8v.2h12.7z"/><path fill="#1F3E51" d="M439.6 607.2h13v4.4h-13z"/><path fill="#35586D" d="M426.9 607.2h12.7v4.4h-12.7z"/><path fill="#EFEFEF" d="M429 592.1v15.1h10.7v-15.1h-10.7zm6.7 4.4h-3.2v-1.5h3.2v1.5z"/><path fill="#E5E1DC" d="M439.6 592.1v15.1h10.7v-15.1h-10.7zm7.2 4.4h-3.2v-1.5h3.2v1.5z"/><path fill="#35586D" d="M432.4 594.9h3.2v1.5h-3.2z"/><path fill="#1F3E51" d="M443.6 594.9h3.2v1.5h-3.2z"/><path fill="#FCFCFC" d="M853.2 400.8h43.2c2.6 0 4.6 2.1 4.6 4.6v14.7c0 2.6-2.1 4.6-4.6 4.6h-43.2c-2.6 0-4.6-2.1-4.6-4.6v-14.7c0-2.5 2.1-4.6 4.6-4.6z"/><circle fill="#fff" cx="766" cy="415.1" r="90.7"/><circle fill="#915740" cx="766" cy="415.1" r="70.6"/><path fill="#9D6449" d="M757.1 345c2.9-.4 5.9-.6 8.9-.6 39 0 70.6 31.6 70.6 70.6s-31.6 70.7-70.6 70.7c-3 0-6-.2-8.9-.6 34.8-4.4 61.8-34.1 61.8-70.1s-27-65.6-61.8-70z"/><path fill="#DC4A30" d="M1054.6 861.6v37.8l-6.5-6-6.6 6v-37.8z"/><path fill="#FCFCFC" d="M1244.3 864.3h-214.5c-3.1 0-5.7-2.5-5.7-5.7v-287.3c0-3.1 2.5-5.7 5.7-5.7h214.5c3.1 0 5.7 2.5 5.7 5.7v287.4c0 3.1-2.6 5.6-5.7 5.6z"/><path fill="#00B0B0" d="M1241 861.6h-214.5c-3.1 0-5.7-2.5-5.7-5.7v-287.3c0-3.1 2.5-5.7 5.7-5.7h214.5c3.1 0 5.7 2.5 5.7 5.7v287.4c0 3.1-2.5 5.6-5.7 5.6z"/><path fill="#029E96" d="M1037.7 562.9h20v298.7h-20z"/><path fill="#FECB65" d="M534 581.7c0-3.7 3-6.8 6.8-6.8h.2v-14.9h-27.9v320.4h27.9v-291.9h-.2c-3.7 0-6.8-3-6.8-6.8z"/><path fill="#EFB35B" d="M560.1 869.3v-3.2h8.9v-10.9h-17.7v-3.2h17.7v-10.7h-8.9v-3.2h8.9v-10.9h-17.7v-3.2h17.7v-10h-8.9v-3.2h8.9v-10.9h-17.7v-3.2h17.7v-10.7h-8.9v-3.2h8.9v-10.9h-17.7v-3.2h17.7v-10.7h-8.9v-3.2h8.9v-10.9h-17.7v-3.2h17.7v-10.7h-8.9v-3.2h8.9v-10.9h-17.7v-3.2h17.7v-10.6h-8.9v-3.2h8.9v-10.9h-17.7v-3.2h17.7v-10.8h-8.9v-3.2h8.9v-10.9h-17.7v-3.2h17.7v-10.6h-8.9v-3.2h8.9v-10.9h-17.7v-3.2h17.7v-10.7h-8.9v-3.2h8.9v-10.9h-17.7v-3.2h17.7v-40.6h-28v14.8c3.6.1 6.5 3.1 6.5 6.8s-2.9 6.6-6.5 6.8v292.1h28v-11.3h-8.9z"/><path stroke="#59636C" stroke-miterlimit="10" fill="none" d="M560.1 866.1h8.9v3.2h-8.9zM551.3 851.9h17.7v3.2h-17.7zM560.1 838.1h8.9v3.2h-8.9zM551.3 823.9h17.7v3.2h-17.7zM560.1 810.8h8.9v3.2h-8.9zM551.3 796.7h17.7v3.2h-17.7zM560.1 782.8h8.9v3.2h-8.9zM551.3 768.6h17.7v3.2h-17.7zM560.1 754.8h8.9v3.2h-8.9zM551.3 740.7h17.7v3.2h-17.7zM560.1 726.8h8.9v3.2h-8.9zM551.3 712.7h17.7v3.2h-17.7zM560.1 698.9h8.9v3.2h-8.9zM551.3 684.7h17.7v3.2h-17.7zM560.1 670.8h8.9v3.2h-8.9zM551.3 656.7h17.7v3.2h-17.7zM560.1 642.9h8.9v3.2h-8.9zM551.3 628.8h17.7v3.2h-17.7zM560.1 614.9h8.9v3.2h-8.9zM551.3 600.8h17.7v3.2h-17.7z"/><path fill="#59636C" d="M551.3 600.8h17.7v3.2h-17.7zM560.1 614.9h8.9v3.2h-8.9zM551.3 628.8h17.7v3.2h-17.7zM560.1 642.9h8.9v3.2h-8.9zM551.3 656.7h17.7v3.2h-17.7zM560.1 670.8h8.9v3.2h-8.9zM551.3 684.7h17.7v3.2h-17.7zM560.1 698.9h8.9v3.2h-8.9zM551.3 712.7h17.7v3.2h-17.7zM560.1 726.8h8.9v3.2h-8.9zM551.3 740.7h17.7v3.2h-17.7zM560.1 754.8h8.9v3.2h-8.9zM551.3 768.6h17.7v3.2h-17.7zM560.1 782.8h8.9v3.2h-8.9zM551.3 796.7h17.7v3.2h-17.7zM560.1 810.8h8.9v3.2h-8.9zM551.3 823.9h17.7v3.2h-17.7zM560.1 838.1h8.9v3.2h-8.9zM551.3 851.9h17.7v3.2h-17.7zM560.1 866.1h8.9v3.2h-8.9z"/><path fill="#7A7B82" d="M673.8 867.7h56.4v10.3h-56.4zM759.5 855.7h26.8v8.3h-26.8z"/><path fill="#424242" d="M646.1 742.3l5.5 10h-18.6s-17.6 4.8-16.4 24.2l-8.6 51.1-.5 13.2s2.6 12.2 16.8 15.5l36.7.9s5.2 12.5 15 13.1h53.5s14.5-.5 16-17.3l49.5-88.8-19.5.3-24-10.3 6.5-11.9h-111.9z"/><path d="M646.3 664.3l113.7 1.2 2.6 16.1h-119.4z"/><path fill="#FECB65" d="M645.1 670.9h115.9l.6 3.3h-117.3z"/><path fill="#424242" d="M633.6 587.7h2.4l7.7 10.9 5.6-24.6s1.3-7.7 8.9-9.4c0 0 46.1-4.2 82.7 0 0 0 7.5.3 10.5 6.9 3 6.5 7.9 29.2 7.9 29.2l10.5-13.4 2.9.5-2.7 42.3-10.2 13h-113.5l-10.8-13.3-2.5-41.8"/><path fill="#DC4A30" d="M635.5 629.7h134.5l.1-1.9h-134.6z"/><path fill="#424242" d="M646.3 647h113.7v18.9h-113.7z"/><path d="M646.3 642.9h113.7v5.1h-113.7z"/><path fill="#6E8386" d="M646.3 648.8h2v16.4h-2zM651.1 648.8h2v16.4h-2zM655.5 648.8h2v16.4h-2zM660.3 648.8h2v16.4h-2zM665.4 648.8h2v16.4h-2zM670.2 648.8h2v16.4h-2zM674.6 648.8h2v16.4h-2zM679.4 648.8h2v16.4h-2zM684.3 648.8h2v16.4h-2zM689.1 648.8h2v16.4h-2zM693.6 648.8h2v16.4h-2zM698.4 648.8h2v16.4h-2zM703 648.8h2v16.4h-2zM707.8 648.8h2v16.4h-2zM712.2 648.8h2v16.4h-2zM717 648.8h2v16.4h-2zM721.6 648.8h2v16.4h-2zM726.4 648.8h2v16.4h-2zM730.8 648.8h2v16.4h-2zM735.6 648.8h2v16.4h-2zM739.9 648.8h2v16.4h-2zM744.7 648.8h2v16.4h-2zM749.1 648.8h2v16.4h-2zM753.9 648.8h2v16.4h-2zM758.3 648.8h1.7v16.4h-1.7z"/><path fill="#414141" d="M756.3 736.9h-107.5c-5.5 0-10-4.5-10-10v-37.4c0-5.5 4.5-10 10-10h107.5c5.5 0 10 4.5 10 10v37.4c0 5.5-4.5 10-10 10z"/><path d="M646.1 736.9h111.9v5.4h-111.9z"/><path fill="#565656" d="M638.8 688.4h3.7v31h-3.7zM647 688.4h3.7v31h-3.7zM655.5 688.4h3.7v31h-3.7zM663.6 688.4h3.7v31h-3.7zM671.7 688.4h3.7v31h-3.7zM679.8 688.4h3.7v31h-3.7zM688.3 688.4h3.7v31h-3.7zM696.5 688.4h3.7v31h-3.7zM704.4 688.4h3.7v31h-3.7zM712.5 688.4h3.7v31h-3.7zM721 688.4h3.7v31h-3.7zM729.2 688.4h3.7v31h-3.7zM737.8 688.4h3.7v31h-3.7zM746 688.4h3.7v31h-3.7zM754.5 688.4h3.7v31h-3.7zM762.6 688.4h3.7v31h-3.7z"/><path fill="#6E8386" d="M646.3 725h23.9v6.2h-23.9zM735.9 725h23.9v6.2h-23.9zM690.6 725h23.9v6.2h-23.9z"/><path fill="#282324" d="M607.7 790.5s1.2-13.7 15-16h36.5s-3.1-20.2 16.2-24.2h50.5s17.2-2.2 20.1 18.8v15.3s6.1 10.8 29.9 1.5c0 0 12.2-9 19.5-29.8 7.3-20.8 32.7-10.7 40 2.5 0 0 32.2 39.2 9.5 87.9 0 0-9.5 15.6-22.9 5.4l-24.4-.1s1.5 4.5-4.2 5.4h-42l-3.5-1.9h-23.1v-60s-9.1-29.4-25.1-39.1c0 0-19.9 13.6-24 36.1v62s-10.5-1-14.9-13.4h-37.9s-14.8-2-15.2-16.4c-.4-14.3 0-34 0-34z"/><path d="M640.8 782.3c-14.8 0-26.7 12-26.7 26.7 0 14.8 11.9 26.7 26.7 26.7 14.7 0 26.7-12 26.7-26.7s-12-26.7-26.7-26.7zm0 50.6c-13.2 0-23.9-10.7-23.9-23.9s10.7-23.9 23.9-23.9 23.9 10.7 23.9 23.9-10.7 23.9-23.9 23.9z"/><path fill="#4C4C4C" d="M657.2 806.3h5.3v4h-5.3z"/><circle fill="#4C4C4C" cx="641.3" cy="809.9" r="9.1"/><path fill="#E4E4E4" d="M703.2 851.3c0 1.4-.9 2.6-2.1 3.1v11.2h-2.5v-11.1c-1.3-.5-2.2-1.7-2.2-3.1 0-1.8 1.5-3.3 3.3-3.3s3.5 1.4 3.5 3.2zM682.5 865.6h11.3v-22.8h12.2v22.8h11.4v-28h-34.9zM731.4 842.7h10.1v4.4h-10.1z"/><path fill="#929292" d="M760.5 808.3h72.3v29.2h-72.3z"/><path fill="#C2C2C2" d="M832.2 841.5h5.5v5.5h-5.5zM766.3 798h14.6v6.2h-14.6zM785.2 798h15.2v6.2h-15.2zM804.5 798h14.8v6.2h-14.8z"/><path d="M796.7 783.7h10.2v4.8h-10.2zM811.9 783.7h10.9v4.2h-10.9zM827.8 783.7h11.7v4.2h-11.7z"/><circle cx="813.9" cy="763.6" r="10.1"/><circle fill="#C2C2C2" cx="821" cy="844.7" r="3"/><circle fill="#C2C2C2" cx="832.3" cy="801.7" r="3.2"/></g></svg>