<?xml version="1.0" encoding="utf-8"?>
<!-- Generator: Adobe Illustrator 18.1.0, SVG Export Plug-In . SVG Version: 6.00 Build 0)  -->
<svg version="1.1" xmlns="http://www.w3.org/2000/svg" xmlns:xlink="http://www.w3.org/1999/xlink" x="0px" y="0px"
	 viewBox="0 0 1292 916.3" enable-background="new 0 0 1292 916.3" xml:space="preserve">
<g id="background">
	<rect y="0" fill="#ACB8BF" width="1292" height="916.3"/>
</g>
<g id="Layer_1">
	<g>
		<path fill="#D8D8D8" d="M369.9,54v481.3c0,6.6-5.4,12-12,12H44.8c-6.6,0-12-5.4-12-12V54c0-6.6,5.4-12,12-12h313.1
			C364.5,42,369.9,47.4,369.9,54z"/>
		<g id="MeQbFJ.tif">
			<g>
				<path fill="#FFFFFF" d="M180.6,268.5c3.4,5,8,7.8,14.2,7.4c6.2-0.4,10.4-3.8,13.1-9.2c0.7,0.2,1.4,0.5,2,0.7
					c3.1,1.2,6.1,2.8,8.8,4.8c1.3,0.9,2.6,1.8,3.7,2.9c1.2,1.1,2.2,2.2,2.9,3.6c0.6,1.2,0.9,2.6,0.8,3.9c-0.1,1.5-0.5,2.9-1.1,4.3
					c-0.4,1-0.9,2-1.2,3.1c-0.5,1.7-0.6,3.4-0.4,5.2c0.2,1.5,0.6,2.9,1.2,4.3c0.4,1.1,0.9,2.1,1.2,3.2c0.2,1,0.4,2,0.3,3
					c-0.1,1.2-0.5,2.2-1.1,3.2c-0.9,1.4-2.1,2.6-3.4,3.7c-5,4.2-10.5,7.2-16.8,8.9c-2.2,0.6-4.4,1.1-6.6,1.3
					c-1.9,0.2-3.8,0.3-5.7,0.1c-2.9-0.2-5.7-0.8-8.3-2c-3.5-1.6-6.3-4.1-8.2-7.5c-1.1-2-1.8-4.1-2-6.3c-0.2-2,0-4,0.7-5.9
					c0.5-1.3,1-2.6,1.5-3.9c0.2-0.7,0.4-1.3,0.6-2c0.3-1,0.1-1.9-0.2-2.9c-0.4-1.2-0.9-2.4-1.4-3.6c-0.5-1.2-0.9-2.4-1.2-3.7
					c-0.3-1.4-0.4-2.8-0.3-4.3c0.2-2.2,0.7-4.4,1.7-6.4c1.2-2.4,2.8-4.4,5-5.9C180.5,268.6,180.6,268.6,180.6,268.5z"/>
				<path fill="#FFFFFF" d="M157,281.1c0.5,0,1-0.1,1.5,0c3.7,0.1,6.8,1.5,9.6,3.8c1.8,1.5,3.1,3.3,4,5.4c0.6,1.5,0.9,3,0.8,4.5
					c0,0.2-0.1,0.2-0.2,0.2c-2.3,0.2-4.5-0.2-6.6-1.2c-4.5-2-7.3-5.5-8.8-10.1c-0.2-0.7-0.4-1.5-0.4-2.3
					C157,281.3,157,281.2,157,281.1z"/>
			</g>
		</g>
	</g>
	<g>
		<path fill="#959596" d="M638.9,146.4v97.3h-221v-97.3c0-54.6,49.5-98.9,110.5-98.9C589.4,47.5,638.9,91.8,638.9,146.4z"/>
		<path fill="#898989" d="M638.2,280.2H416.1c-6.6,0-12-5.4-12-12V208c0-6.6,5.4-12,12-12h222.1c6.6,0,12,5.4,12,12v60.2
			C650.2,274.8,644.8,280.2,638.2,280.2z"/>
	</g>
	<g>
		<g id="bwihba.tif">
			<g>
				<path fill="#FFFFFF" d="M935,855.9c-7.9,0-15.8,0.1-23.8,0c-6.2-0.1-12.4-0.4-18.4-2.3c-4.8-1.5-8.9-3.8-11.8-8.1
					c-1.9-2.9-2.7-6.2-3.1-9.6c-0.7-6.3-0.7-12.7-0.2-19c0.4-4,1-7.9,3.3-11.3c2.5-3.7,6.2-6,10.3-7.5c4.2-1.5,8.5-2.3,13-2.5
					c14.2-0.8,28.4-0.3,42.5-0.4c5.4,0,10.8,0,16.2,0.2c5.8,0.2,11.5,1,16.9,3.2c7.4,3,11.4,8.5,12.2,16.5c0.7,7,0.7,14,0,20.9
					c-0.5,4.3-1.7,8.3-4.7,11.5c-2.8,3.1-6.3,4.8-10.2,6c-4.5,1.4-9.2,2-13.9,2.1c-9.5,0.2-19,0.2-28.4,0.3
					C935,856,935,855.9,935,855.9z"/>
			</g>
		</g>
		<g id="MeQbFJ.tif_1_">
			<g>
				<path fill="#EFEFEF" d="M898.2,829.8c-0.6-0.8-1.3-1.3-2.3-1.2c-1,0.1-1.7,0.6-2.1,1.5c-0.1,0-0.2-0.1-0.3-0.1
					c-0.5-0.2-1-0.5-1.4-0.8c-0.2-0.1-0.4-0.3-0.6-0.5c-0.2-0.2-0.3-0.4-0.5-0.6c-0.1-0.2-0.1-0.4-0.1-0.6c0-0.2,0.1-0.5,0.2-0.7
					c0.1-0.2,0.1-0.3,0.2-0.5c0.1-0.3,0.1-0.5,0.1-0.8c0-0.2-0.1-0.5-0.2-0.7c-0.1-0.2-0.1-0.3-0.2-0.5c0-0.2-0.1-0.3,0-0.5
					c0-0.2,0.1-0.4,0.2-0.5c0.1-0.2,0.3-0.4,0.5-0.6c0.8-0.7,1.7-1.2,2.7-1.4c0.4-0.1,0.7-0.2,1.1-0.2c0.3,0,0.6,0,0.9,0
					c0.5,0,0.9,0.1,1.3,0.3c0.6,0.3,1,0.7,1.3,1.2c0.2,0.3,0.3,0.7,0.3,1c0,0.3,0,0.6-0.1,0.9c-0.1,0.2-0.2,0.4-0.2,0.6
					c0,0.1-0.1,0.2-0.1,0.3c0,0.2,0,0.3,0,0.5c0.1,0.2,0.1,0.4,0.2,0.6c0.1,0.2,0.1,0.4,0.2,0.6c0.1,0.2,0.1,0.5,0,0.7
					c0,0.4-0.1,0.7-0.3,1C898.8,829.2,898.5,829.5,898.2,829.8C898.2,829.8,898.2,829.8,898.2,829.8z"/>
				<path fill="#EFEFEF" d="M902,827.8c-0.1,0-0.2,0-0.2,0c-0.6,0-1.1-0.2-1.5-0.6c-0.3-0.2-0.5-0.5-0.6-0.9
					c-0.1-0.2-0.1-0.5-0.1-0.7c0,0,0,0,0,0c0.4,0,0.7,0,1.1,0.2c0.7,0.3,1.2,0.9,1.4,1.6C901.9,827.5,901.9,827.6,902,827.8
					C902,827.7,902,827.7,902,827.8z"/>
			</g>
		</g>
	</g>
	<g>
		<path fill="#3F2D23" d="M469,815.5c-3.3,1.1-5.8-2.6-6.1-3.1c0,0,0-0.1-0.1-0.1l-38.8-42c-0.8-0.8-1.8-1.3-3-1.3h-78
			c-1.1,0-2.2,0.5-3,1.3l-38.8,42c0,0-0.1,0.1-0.1,0.1c-0.3,0.5-2.9,4.2-6.1,3.1c-3.5-1.2-7.2-4.8-2.7-8.8
			c3.8-3.4,26.5-28.7,33.7-36.7c0.8-0.9,0.2-2.4-1.1-2.4h-18.1c-0.6,0-0.9-0.7-0.5-1.1l7.5-8.8c0.1-0.2,0.3-0.2,0.5-0.2h135.4
			c0.2,0,0.4,0.1,0.5,0.2l7.5,8.8c0.4,0.4,0.1,1.1-0.5,1.1h-18.1c-1.3,0-1.9,1.5-1.1,2.4c7.1,8,29.9,33.4,33.7,36.7
			C476.2,810.6,472.5,814.3,469,815.5z"/>
		<g id="LBtqpC.tif_1_">
			<g>
				<path fill="#3F2D23" d="M338,749c8.6,0.1,15.1,1,21.5,2.4c5.3,1.1,10.6,2.3,15.9,3.4c5.4,1.1,10.7,0.6,16-0.4
					c6.4-1.3,12.7-2.7,19.1-3.7c8.5-1.4,17-1.8,25.6-0.8c9.1,1,18.2,2.2,27.3,3.3c1.2,0.1,1.5,0.4,1.5,1.6c0.1,2.8,0.1,5.5,0.2,8.3
					c0,1.2-0.2,1.4-1.4,1.6c-1.3,0.2-2.1,1-2.8,2c-1.1,1.7-1.3,3.7-1.7,5.7c-1,5.6-2,11.3-3.8,16.8c-1.9,5.7-5.2,10.4-10.6,13.3
					c-3.2,1.7-6.7,2.6-10.3,3c-5.7,0.6-11.5,0.6-17.2-0.4c-8.4-1.5-14.9-5.8-19.5-13c-3.7-5.7-6.1-12-8.3-18.4
					c-0.4-1.2-0.8-2.4-1.5-3.5c-2.3-3.9-7.8-4.5-10.8-1.1c-1.4,1.5-2.2,3.3-3,5.2c-1.7,4.1-3.3,8.3-5.2,12.3
					c-2.7,5.5-6.4,10.3-11.6,13.7c-4.1,2.6-8.5,4.1-13.3,4.8c-6,0.9-11.9,1-17.8-0.6c-4.8-1.3-9.2-3.3-12.7-6.9
					c-2.4-2.4-4-5.4-5-8.7c-1.8-6.4-3.2-13-4.3-19.6c-0.4-2.6-1.7-4.4-4.2-5.2c-0.8-0.2-1.1-0.8-1.1-1.5c0-2.8,0.1-5.6,0.2-8.4
					c0.1-1.5,0.7-2,2.2-2.1c8.4-0.8,16.8-1.6,25.2-2.3C331,749.2,335.6,749.1,338,749z M337.9,752.3c-1.8,0-3.6,0-5.4,0
					c-3.5,0.1-6.9,0.4-10.3,1.2c-5.7,1.4-9.6,4.8-11.1,10.6c-0.6,2.5-1,5.1-1.2,7.6c-0.4,5,0,10.1,1.4,14.9
					c2.7,8.9,8.5,14.3,17.7,15.9c4.1,0.7,8.2,0.6,12.3,0.1c8.5-0.9,15.5-4.4,20.7-11.2c5.2-6.7,7.5-14.5,8.2-22.8
					c0.3-3.9-1.3-7-4.4-9.5c-2.8-2.2-6-3.6-9.3-4.6C350.6,752.7,344.3,752.1,337.9,752.3z M422.5,752.5c-3.3,0-7.8,0.3-12.3,1.2
					c-3.7,0.7-7.2,1.8-10.4,3.8c-4.1,2.6-6.2,6.3-5.9,11.2c0.5,6,1.8,11.8,4.4,17.3c3.8,8,10,13.5,18.7,15.7
					c6.6,1.6,13.2,1.7,19.8,0.4c7.9-1.5,12.9-6.1,15-13.9c0.9-3.3,1.4-6.6,1.6-10c0.3-4.2,0.6-8.3-0.1-12.5c-0.7-4.6-3-8.2-7.3-10.1
					c-1.9-0.9-4-1.5-6.1-2C434.8,752.6,429.3,752.5,422.5,752.5z"/>
				<path opacity="0.37" fill="#FFFFFF" d="M337.9,752.3c6.4-0.2,12.7,0.5,18.8,2.3c3.4,1,6.6,2.4,9.3,4.6c3,2.4,4.7,5.5,4.4,9.5
					c-0.7,8.3-3,16.1-8.2,22.8c-5.2,6.7-12.3,10.3-20.7,11.2c-4.1,0.4-8.2,0.6-12.3-0.1c-9.2-1.6-15-7-17.7-15.9
					c-1.5-4.9-1.8-9.9-1.4-14.9c0.2-2.6,0.5-5.1,1.2-7.6c1.5-5.8,5.4-9.2,11.1-10.6c3.4-0.8,6.8-1.1,10.3-1.2
					C334.3,752.2,336.1,752.3,337.9,752.3z"/>
				<path opacity="0.37" fill="#FFFFFF" d="M422.5,752.5c6.8,0,12.2,0.1,17.6,1.2c2.1,0.5,4.2,1.1,6.1,2c4.3,2,6.6,5.5,7.3,10.1
					c0.6,4.2,0.3,8.3,0.1,12.5c-0.2,3.4-0.7,6.7-1.6,10c-2.2,7.7-7.2,12.4-15,13.9c-6.6,1.3-13.3,1.2-19.8-0.4
					c-8.8-2.2-14.9-7.7-18.7-15.7c-2.6-5.4-4-11.3-4.4-17.3c-0.4-4.9,1.7-8.6,5.9-11.2c3.2-2,6.7-3.1,10.4-3.8
					C414.7,752.8,419.3,752.5,422.5,752.5z"/>
			</g>
		</g>
		<path fill="#D8D8D8" d="M301.3,758.6c0,0,3.1-2.9,5.7,0C307,758.6,304.1,760.4,301.3,758.6z"/>
		<path fill="#D8D8D8" d="M457.7,758.6c0,0,3.1-2.9,5.7,0C463.4,758.6,460.6,760.4,457.7,758.6z"/>
	</g>
	<g>
		<ellipse fill="#FFFFFF" cx="513.9" cy="417.3" rx="112.9" ry="113.6"/>
		<ellipse fill="#F5F5F9" cx="513.9" cy="417.3" rx="104.5" ry="105.2"/>
		<ellipse fill="#934E1B" cx="513.9" cy="417.3" rx="102.7" ry="103.4"/>
		<path fill="#6DA429" d="M464.9,304.2c0,0,20.9,1.7,21.8,15.7s-8.4,51.7-8.4,51.7L460,348.5C460,348.5,448.5,318.5,464.9,304.2z"/>
		<path fill="#6DA429" d="M398.7,450.4c0,0-0.3-14.9,16-23.6c16.3-8.7,29,16.2,29,16.2l-15,20.4
			C428.7,463.4,411.4,465.7,398.7,450.4z"/>
		<path fill="#6DA429" d="M405.1,365.6c0,0,6.3-2.2,9.3-2.9s12.1-6.1,27.3,2.2c15.2,8.3,31.3,20.2,31.3,20.2l5.5,13.4
			c0,0-24.2-5.5-29.5-6.7C443.7,390.7,410.3,392.7,405.1,365.6z"/>
		<path fill="#5F932F" d="M578.6,474.6c0,0,7.5,11.3,21.5,4.7l6-3.8l0.6-9.4c0,0,1.1-10.3-13.4-21.1s-62.8-21.4-62.8-21.4l9.1,16.2
			L578.6,474.6z"/>
		<path fill="#6B9B26" d="M592.7,385.5c0,0,13.4-2.1,13.4-17.5l-0.9-7l-8.3-4.5c0,0-8.9-5.3-24.8,3.2c-15.9,8.6-46,47.8-46,47.8
			l18.5-1.3L592.7,385.5z"/>
		<path fill="#5F932F" d="M594.8,427.7c0,0,11.1,7.7,21.8-3.5l4.2-5.7l-2.9-9c0,0-2.8-10-20.2-14.7c-17.4-4.7-66.3,3.1-66.3,3.1
			l14.4,11.7L594.8,427.7z"/>
		<path fill="#5F932F" d="M541.4,336.4c0,0,6.5-21.5-5.4-31.4l-6-3.8l-8.8,3.5c0,0-12.5,7.3-16,25s-0.6,62.1-0.6,62.1l21.6-15.1
			L541.4,336.4z"/>
		<path fill="#83B042" d="M564.3,405c0,0,32.2-4.4,48.2,10.7c0,0,8.7,9.1,8.2,17.2c0,0-6.9,16.5-31.3,12.7
			c-24.4-3.9-53.3-21.5-53.3-21.5l-19.7-7.3L564.3,405z"/>
		<path fill="#6DA429" d="M461.9,489.2c0,0-2,21.8,8.9,26c0,0,19,0.7,23.4-17.5c4.4-18.2,5.9-54.6,5.9-54.6L461.9,489.2z"/>
		<path fill="#6DA429" d="M509.5,509.5c0,0,9.3,19.8,20.8,17.9c0,0,16.7-9.1,11.2-27s-22.7-50-22.7-50L509.5,509.5z"/>
		<path fill="#6B9B26" d="M428.7,390.8c0,0-25.7,3.1-27.3,14.6c0,0,3.7,18.6,22.5,18.7c18.7,0.1,54.5-6.9,54.5-6.9L428.7,390.8z"/>
		<path fill="#83B042" d="M449.3,435c0,0-25.5,7.4-24.2,32.1v7.4c0,0,10.7,3.2,18.7,1.6c8-1.6,26.4-11.2,26.4-11.2l13.8-43.2
			L449.3,435z"/>
		<path fill="#5F932F" d="M491.7,411.8l-22.7-2c0,0-25.7-0.3-43,5.3c-17.3,5.6-17.8,21-17.8,21s11.8,13.1,24.4,8.4
			c12.7-4.7,60.4-22.9,60.4-22.9L491.7,411.8z"/>
		<path fill="#5F932F" d="M431.1,335.7c0,0,10.2-3.3,20.9,2.4s28.7,22.1,37.1,44.2s12.1,26,12.1,26l-17.4-7.6
			c0,0-18.4-7.2-35.1-24.4C448.6,376.4,420.6,355.5,431.1,335.7z"/>
		<path fill="#83B042" d="M425.1,385.9c0,0,5.8-2,8.4-2.7c2.7-0.7,11-5.5,24.8,2s28.4,18.4,28.4,18.4l5,12.2c0,0-22-5-26.8-6.1
			S429.7,410.6,425.1,385.9z"/>
		<path fill="#5F932F" d="M531.3,493.8c0,0,0.3,13.5,15.6,15.5h7.1l5.6-7.7c0,0,6.4-8.1,0-25c-6.4-16.9-41.5-51.8-41.5-51.8
			l-1.1,18.5L531.3,493.8z"/>
		<path fill="#5F932F" d="M500,445.6c0,0-7,9.8-10.8,19.3c-3.8,9.5-4.7,25.7-28.9,30.3h-6.4l-1.8-5.6c0,0-7.5-18.4,12.9-33.1
			c20.4-14.7,30.4-32.5,30.4-32.5l8.4,0.9L500,445.6z"/>
		<path fill="#6DA429" d="M486.9,421.7l-18,11.2c0,0-11.5,5-13.3,12.1c-1.8,7.1-1.8,10.2-1.8,10.2s4.2,4.7,7.5,5.3
			c3.3,0.7,7.8,2.7,15.3-8.1c7.5-10.8,23.2-25.6,23.2-25.6L486.9,421.7z"/>
		<path fill="#83B042" d="M497.2,446.3c0,0-6.4,15.1-7.8,28c0,0-9.5,25.5,1.3,35.1l6.4,5.8l9.8-4.7c0,0,19.5-9.8,10.1-31.5
			c-9.4-21.8,0-1.1,0-1.1l-1.9-36.5L497.2,446.3z"/>
		<path fill="#6B9B26" d="M517.5,427.9c0,0,9.3,20.5,13.8,27.6c4.5,7.2,24.5,31.5,5.8,46.1c0,0-21.9-0.2-24.1-36.9l-7.8-35
			L517.5,427.9z"/>
		<path fill="#83B042" d="M517.1,427.1c0,0-0.1,6.9,9.2,14.2c9.3,7.3,17,24.1,17.6,25.6c0.6,1.5,9.5,25.5,36.9,23.6
			c0,0,9.9-18.8-4.8-35.1c-14.7-16.3-37.8-24.8-37.8-24.8L517.1,427.1z"/>
		<path fill="#83B042" d="M475.5,312.7c0,0,5.4,1.8,7.8,2.8c2.4,1,21.4,9.8,20.4,38.1c-1,28.3,3.5,41.8-1.8,58.8
			c0,0-15.8-23.8-24.4-47.9c0,0-13.7-28.1-6.4-43.9L475.5,312.7z"/>
		<path fill="#6DA429" d="M500,426.8c0,0-8.3,8-5.1,20.3c0,0,3.8,7.3,10.3,4.8c6.5-2.5,7.2-4.5,7.2-8s-8.5-19-8.5-19L500,426.8z"/>
		<path fill="#6B9B26" d="M500,416.6c0,0-7.8-5-12.3,3.5c-4.5,8.5,1.5,11.3,3.8,12.7c2.3,1.3,7.2-9.7,7.2-9.7L500,416.6z"/>
		<path fill="#6DA429" d="M502.8,410.8c0,0-8.5-13.6-20-11.2c0,0-4.5,3.8-0.8,11.2c3.7,7.3,18,5.8,18,5.8L502.8,410.8z"/>
		<path fill="#83B042" d="M528.5,369.5c0,0,8.7-28.4,18.4-35.5c9.8-7.1,18.4-10,27.3-8c0,0,15.5,11.5-1.6,33.5
			c-17.1,22-55.6,52.3-55.6,52.3L507,405L528.5,369.5z"/>
		<path fill="#6B9B26" d="M501.1,411.3c0,0,2.8-22.5,2.7-30.4c-0.1-8-2.8-20.2,7.7-26c0,0,3.8-2.7,12.5-1.6c0,0,10.7,8.7,6.4,22
			c0,0-1.3,4.7-8,14c-6.7,9.3-12,33.4-12,33.4L500,424L501.1,411.3z"/>
		<path fill="#6DA429" d="M513,406.4c0,0,22.1-9.6,32-14.5c7-3.5,25.5-19.8,41.1-14.4c15.5,5.3,14,5.1,14,5.1s-2.7,19-19.8,22.4
			S517,418.6,517,418.6L513,406.4z"/>
		<path fill="#6B9B26" d="M515.2,415.7c0,0,12.4,2.4,18.4,2.9c6,0.4,15.3-1.8,19.5,12.7c0,0-5.1,11.1-20.4,5.8
			c-15.3-5.3-23.3-11.5-23.3-11.5L515.2,415.7z"/>
		<path fill="#83B042" d="M504.4,420c0,0,3.9,10.6-5.7,9.8C489.1,428.9,500.1,414,504.4,420z"/>
		<path fill="#5F932F" d="M508.8,416.8c0,0-2.8-6-8.7-6.9c-5.9-0.9-6.6,5.1-6.6,5.1S495.9,421.7,508.8,416.8z"/>
		<path fill="#5F932F" d="M506.3,418.6c0,0,11.8-1.4,8.2,13.3c0,0-1.8,4.2-8.2,2.9C506.3,434.8,500.5,426.4,506.3,418.6z"/>
		<path fill="#83B042" d="M505.2,410.6c0,0,3.8,9.4,8.7,9.7c0,0,3.8,4.1,4.2-1.7c0.4-5.8-2.7-14.2-11.1-13.5
			C507,405,503.4,407.2,505.2,410.6z"/>
	</g>
	<line fill="#A9A1A5" x1="79.4" y1="-159" x2="77.4" y2="-157.6"/>
	<g>
		<g>
			<polygon fill="#702137" points="1129,49 1129,51.3 1097.1,51.3 1097.1,29.4 1109.5,29.4 			"/>
			<polygon fill="#7D2636" points="1097.1,29.4 1097.1,51.3 1065.2,51.3 1065.1,49.1 1084.8,29.4 			"/>
			<rect x="1065.1" y="50.9" fill="#772436" width="19.9" height="22.2"/>
			<rect x="1109.1" y="51.3" fill="#772436" width="19.9" height="22.2"/>
		</g>
		<path fill="#772436" d="M1258.8,501v2.1c0,17.9-14.7,32.6-32.6,32.6h-260c-17.9,0-32.6-14.7-32.6-32.6V501H1258.8z"/>
		<path fill="#7D2636" d="M1258.8,156.3V501H933.6V156.3c0-17.9,14.7-32.6,32.6-32.6h260C1244.1,123.7,1258.8,138.4,1258.8,156.3z"
			/>
		<rect x="1017.4" y="386.8" fill="#702137" width="161.2" height="114.2"/>
		<path fill="#702137" d="M1240.9,277.9H951.6c-12.4,0-22.6-10.2-22.6-22.6V91.4c0-12.4,10.2-22.6,22.6-22.6h289.3
			c12.4,0,22.6,10.2,22.6,22.6v163.9C1263.4,267.7,1253.3,277.9,1240.9,277.9z"/>
		<polygon fill="#9D6449" points="995.8,68.8 995.8,123.7 995.8,233.8 995.8,535.7 1026.1,535.7 1026.1,233.8 1026.1,123.7 
			1026.1,68.8 		"/>
		<polygon fill="#9D6449" points="1193.8,68.8 1193.8,123.7 1193.8,233.8 1193.8,535.7 1163.4,535.7 1163.4,233.8 1163.4,123.7 
			1163.4,68.8 		"/>
		<polygon fill="#915740" points="1026.1,68.8 1026.1,340.5 1010.9,354.3 995.8,340.5 995.8,68.8 		"/>
		<polygon fill="#915740" points="1193.8,68.8 1193.8,340.5 1178.6,354.3 1163.4,340.5 1163.4,68.8 		"/>
		<path fill="#6D5F5F" d="M1027.5,317.9h-33.2c-1.9,0-3.5-1.6-3.5-3.5v-29.9c0-1.9,1.6-3.5,3.5-3.5h33.2c1.9,0,3.5,1.6,3.5,3.5v29.9
			C1031.1,316.3,1029.5,317.9,1027.5,317.9z"/>
		<path fill="#915740" d="M1023.7,314.4h-25.5c-1.9,0-3.5-1.6-3.5-3.5v-22.9c0-1.9,1.6-3.5,3.5-3.5h25.5c1.9,0,3.5,1.6,3.5,3.5v22.9
			C1027.2,312.8,1025.6,314.4,1023.7,314.4z"/>
		<path fill="#6D5F5F" d="M1195.2,317.9H1162c-1.9,0-3.5-1.6-3.5-3.5v-29.9c0-1.9,1.6-3.5,3.5-3.5h33.2c1.9,0,3.5,1.6,3.5,3.5v29.9
			C1198.7,316.3,1197.1,317.9,1195.2,317.9z"/>
		<path fill="#915740" d="M1191.4,314.4h-25.5c-1.9,0-3.5-1.6-3.5-3.5v-22.9c0-1.9,1.6-3.5,3.5-3.5h25.5c1.9,0,3.5,1.6,3.5,3.5v22.9
			C1194.9,312.8,1193.3,314.4,1191.4,314.4z"/>
		<rect x="1055" y="419.3" fill="#FFFFFF" width="83.1" height="50.6"/>
		<rect x="1059.7" y="423.1" fill="none" stroke="#000000" stroke-miterlimit="10" width="73.8" height="43"/>
		<line fill="none" stroke="#000000" stroke-width="0.7" stroke-miterlimit="10" x1="1071.6" y1="451.1" x2="1121.5" y2="451.1"/>
		<line fill="none" stroke="#000000" stroke-width="0.7" stroke-miterlimit="10" x1="1071.6" y1="439.5" x2="1121.5" y2="439.5"/>
	</g>
	<g>
		<rect x="865.4" y="242.2" fill="#5C6266" width="13.7" height="11.5"/>
		<rect x="865.4" y="253.7" fill="#454B4F" width="13.7" height="11.5"/>
		<rect x="715.9" y="253.7" fill="#EFB35B" width="149.4" height="11.5"/>
		<rect x="715.9" y="242.2" fill="#FECB65" width="149.4" height="11.5"/>
		<path fill="#EF766A" d="M888.3,263.7h-9.1v-10h10.6v9C889.7,263.2,889.1,263.7,888.3,263.7z"/>
		<path fill="#FD8B77" d="M889.7,253.7h-10.6v-9.4h9.1c0.8,0,1.4,0.5,1.4,1.1V253.7z"/>
		<polygon fill="#FFFEFD" points="715.9,253.7 692.2,253.7 692.2,249.8 715.9,242.2 		"/>
		<polygon fill="#F5F5F5" points="715.9,265.2 692.2,257.9 692.2,253.7 715.9,253.7 		"/>
		<polygon fill="#454B4F" points="692.2,257.9 679.3,253.9 680.1,253.7 692.2,253.7 		"/>
		<polygon fill="#5C6266" points="692.2,253.7 680.1,253.7 692.2,249.8 		"/>
	</g>
	<g>
		<path fill="#E6E7E8" d="M834.7,165.2h10.9c0.6,0,1,0.4,1,1v9.1h-12.9v-9.1C833.7,165.7,834.1,165.2,834.7,165.2z"/>
		<path fill="#BCBEC0" d="M833.7,175.3h12.9v9.4c0,0.6-0.4,1-1,1h-10.9c-0.6,0-1-0.4-1-1V175.3z"/>
		<path fill="#F1F2F2" d="M890,173.4c0.9,0,1.7,0.7,1.9,1.5h-22.2c-0.2-1.2-1.1-2-2.4-2c-1.3,0-2.4,1.1-2.4,2.4c0,0,0,0,0,0.1h-18.3
			v-7.6l20.7-2.5l20.9,9.5C888.4,173.9,889.1,173.4,890,173.4z"/>
		<path fill="#D1D3D4" d="M867.2,177.6c1.1,0,2-0.8,2.3-1.8h22.2c-0.2,0.8-1,1.4-1.8,1.4c-0.8,0-1.4-0.5-1.7-1.1l-21,9.3l-20.7-2.4
			v-7.7h18.3C864.9,176.6,866,177.6,867.2,177.6z"/>
		<path fill="#00B0B0" d="M833.7,169.3v6H679.9c0.1-0.2,0.5-1.5,3-2.3C685.7,172.2,770.2,158.6,833.7,169.3z"/>
		<path fill="#029E96" d="M679.9,175.3h153.8v6.6c0,0-43.3,13.9-150.8-4.3C682.9,177.6,680.4,177.1,679.9,175.3
			C679.9,175.3,679.9,175.3,679.9,175.3z"/>
	</g>
	<g>
		<path fill="#2D2D2D" d="M881.3,74.8h5.9c1.9,0,3.5,1.2,3.5,2.7V96h-9.4V74.8z"/>
		<path fill="#231F20" d="M881.3,96h9.4v18.4c0,1.5-1.6,2.7-3.5,2.7h-5.9V96z"/>
		<rect x="731.2" y="74.8" fill="#2D2D2D" width="5.2" height="21.2"/>
		<rect x="731.2" y="96" fill="#231F20" width="5.2" height="21.1"/>
		<rect x="736.4" y="96" fill="#F1F2F2" width="2.8" height="21.1"/>
		<rect x="736.4" y="74.8" fill="#FFFFFF" width="2.8" height="21.2"/>
		<rect x="739.3" y="74.8" fill="#2D2D2D" width="139.2" height="21.2"/>
		<rect x="739.3" y="96" fill="#231F20" width="139.2" height="21.1"/>
		<rect x="878.4" y="96" fill="#F1F2F2" width="2.8" height="21.1"/>
		<rect x="878.4" y="74.8" fill="#FFFFFF" width="2.8" height="21.2"/>
		<polygon fill="#BCBEC0" points="703.9,96 731.2,96 731.2,117.1 703.9,107 		"/>
		<polygon fill="#D1D3D4" points="731.2,74.8 731.2,96 703.9,96 703.9,85.3 		"/>
		<rect x="692.5" y="96" fill="#CECECE" width="11.4" height="9.3"/>
		<rect x="692.5" y="86.7" fill="#DBDBDB" width="11.4" height="9.3"/>
		<polygon fill="#2D2D2D" points="678.2,88.5 692.5,88.5 692.5,96 680.9,96 		"/>
		<polygon fill="#231F20" points="680.9,96 692.5,96 692.5,103.5 683.5,103.5 		"/>
	</g>
	<g>
		<g>
			<g id="Iphone_bg">
				<g>
					<path fill="#FFFFFF" d="M956,565.7h-2.4c-0.2-0.3-0.6-0.6-1-0.6h-13.6c-0.4,0-0.8,0.2-1,0.6h-47.3c-6.5,0-11.7,5.2-11.7,11.7
						v14.7c-0.4,0.2-0.7,0.6-0.7,1.1v6.2c0,0.5,0.3,0.9,0.7,1.1v9.1c-0.4,0.2-0.7,0.6-0.7,1.1v4.7c0,0.5,0.3,0.9,0.7,1.1v8.5
						c-0.4,0.2-0.7,0.6-0.7,1.1v4.7c0,0.5,0.3,0.9,0.7,1.1v108.9c0,6.5,5.2,11.7,11.7,11.7H956c6.5,0,11.7-5.2,11.7-11.7V577.4
						C967.7,571,962.5,565.7,956,565.7z"/>
				</g>
			</g>
			
				<image overflow="visible" width="643" height="1140" id="Screen_xA0_Image_1_" xlink:href="CB9884D0F9471FC0.png"  transform="matrix(0.117 0 0 0.117 886.4153 592.296)">
			</image>
			<g id="btn">
				<g>
					<circle fill="#F4F4F4" cx="923.1" cy="739.1" r="8.4"/>
				</g>
			</g>
			
				<image overflow="visible" width="54" height="54" id="home_btn_xA0_Image_2_" xlink:href="CB9884D0F9471FC1.png"  transform="matrix(0.117 0 0 0.117 919.9014 735.8063)">
			</image>
			
				<image overflow="visible" width="31" height="31" id="Camera_xA0_Image_5_" xlink:href="CB9884D0F9471FCC.png"  transform="matrix(0.117 0 0 0.117 921.3049 573.1145)">
			</image>
			
				<image overflow="visible" width="17" height="17" id="Camera_xA0_Image_4_" xlink:href="CB9884D0F9471FCD.png"  transform="matrix(0.117 0 0 0.117 922.1237 573.9332)">
			</image>
			<g id="Mic">
				<g>
					<path fill="#E7E7E7" d="M929.6,580.6h-12.9c-0.7,0-1.3,0.6-1.3,1.3s0.6,1.3,1.3,1.3h12.9c0.7,0,1.3-0.6,1.3-1.3
						S930.3,580.6,929.6,580.6z"/>
				</g>
			</g>
		</g>
		<rect x="886.4" y="592.3" fill="#303030" width="75.2" height="133.3"/>
	</g>
	<g>
		<path fill="#FFFFFF" d="M33.2,588.6c0,0,0.4-9.9,10.3-10.3s206.6,0,206.6,0s14.5-1,15.3,10.3v277.6c0,0,1,14.1-11.2,13.5
			c-12.2-0.6-208,0-208,0s-11.9,1.1-12.9-9.8C32.2,859,33.2,588.6,33.2,588.6z"/>
		<rect x="56.5" y="605.5" fill="#303030" width="185.9" height="247.7"/>
		<g id="btn_2_">
			<g>
				<circle fill="#F4F4F4" cx="149" cy="866.2" r="8.2"/>
			</g>
		</g>
		
			<image overflow="visible" width="54" height="54" id="home_btn_xA0_Image_1_" xlink:href="CB9884D0F9471FCE.png"  transform="matrix(0.1143 0 0 0.1143 145.872 862.9562)">
		</image>
		
			<image overflow="visible" width="31" height="31" id="Camera_xA0_Image_2_" xlink:href="CB9884D0F9471FCF.png"  transform="matrix(0.1143 0 0 0.1143 147.3218 590.2228)">
		</image>
		
			<image overflow="visible" width="17" height="17" id="Camera_xA0_Image_1_" xlink:href="CB9884D0F9471FC9.png"  transform="matrix(0.1143 0 0 0.1143 148.1218 591.0228)">
		</image>
	</g>
	<g>
		<path fill="#C63E2C" d="M336.7,611.4v51.1c0,8.7-7,15.7-15.7,15.7h-0.1v-66.6h13v-0.2H336.7z"/>
		<path fill="#DC4A30" d="M320.9,611.6v66.6c-8.6-0.1-15.5-7.1-15.5-15.7v-51.1h2.8v0.2H320.9z"/>
		<rect x="320.9" y="607.2" fill="#1F3E51" width="13" height="4.4"/>
		<rect x="308.2" y="607.2" fill="#35586D" width="12.7" height="4.4"/>
		<path fill="#EFEFEF" d="M310.2,592.1v15.1h10.7v-15.1H310.2z M316.9,596.5h-3.2v-1.5h3.2V596.5z"/>
		<path fill="#E5E1DC" d="M320.9,592.1v15.1h10.7v-15.1H320.9z M328.1,596.5h-3.2v-1.5h3.2V596.5z"/>
		<rect x="313.7" y="594.9" fill="#35586D" width="3.2" height="1.5"/>
		<rect x="324.9" y="594.9" fill="#1F3E51" width="3.2" height="1.5"/>
	</g>
	<g>
		<path fill="#EFB35B" d="M396.8,611.4v51.1c0,8.7-7,15.7-15.7,15.7H381v-66.6h13v-0.2H396.8z"/>
		<path fill="#FECB65" d="M381,611.6v66.6c-8.6-0.1-15.5-7.1-15.5-15.7v-51.1h2.8v0.2H381z"/>
		<rect x="381" y="607.2" fill="#1F3E51" width="13" height="4.4"/>
		<rect x="368.3" y="607.2" fill="#35586D" width="12.7" height="4.4"/>
		<path fill="#EFEFEF" d="M370.3,592.1v15.1H381v-15.1H370.3z M377,596.5h-3.2v-1.5h3.2V596.5z"/>
		<path fill="#E5E1DC" d="M381,592.1v15.1h10.7v-15.1H381z M388.2,596.5H385v-1.5h3.2V596.5z"/>
		<rect x="373.8" y="594.9" fill="#35586D" width="3.2" height="1.5"/>
		<rect x="385" y="594.9" fill="#1F3E51" width="3.2" height="1.5"/>
	</g>
	<g>
		<path fill="#029E96" d="M455.4,611.4v51.1c0,8.7-7,15.7-15.7,15.7h-0.1v-66.6h13v-0.2H455.4z"/>
		<path fill="#00B0B0" d="M439.6,611.6v66.6c-8.6-0.1-15.5-7.1-15.5-15.7v-51.1h2.8v0.2H439.6z"/>
		<rect x="439.6" y="607.2" fill="#1F3E51" width="13" height="4.4"/>
		<rect x="426.9" y="607.2" fill="#35586D" width="12.7" height="4.4"/>
		<path fill="#EFEFEF" d="M429,592.1v15.1h10.7v-15.1H429z M435.7,596.5h-3.2v-1.5h3.2V596.5z"/>
		<path fill="#E5E1DC" d="M439.6,592.1v15.1h10.7v-15.1H439.6z M446.8,596.5h-3.2v-1.5h3.2V596.5z"/>
		<rect x="432.4" y="594.9" fill="#35586D" width="3.2" height="1.5"/>
		<rect x="443.6" y="594.9" fill="#1F3E51" width="3.2" height="1.5"/>
	</g>
	<g>
		<path fill="#FCFCFC" d="M853.2,400.8h43.2c2.6,0,4.6,2.1,4.6,4.6v14.7c0,2.6-2.1,4.6-4.6,4.6h-43.2c-2.6,0-4.6-2.1-4.6-4.6v-14.7
			C848.6,402.9,850.7,400.8,853.2,400.8z"/>
		<circle fill="#FFFFFF" cx="766" cy="415.1" r="90.7"/>
		<circle fill="#915740" cx="766" cy="415.1" r="70.6"/>
		<path fill="#9D6449" d="M757.1,345c2.9-0.4,5.9-0.6,8.9-0.6c39,0,70.6,31.6,70.6,70.6S805,485.7,766,485.7c-3,0-6-0.2-8.9-0.6
			c34.8-4.4,61.8-34.1,61.8-70.1S791.9,349.4,757.1,345z"/>
	</g>
	<g>
		<polygon fill="#DC4A30" points="1054.6,861.6 1054.6,899.4 1048.1,893.4 1041.5,899.4 1041.5,861.6 		"/>
		<path fill="#FCFCFC" d="M1244.3,864.3h-214.5c-3.1,0-5.7-2.5-5.7-5.7V571.3c0-3.1,2.5-5.7,5.7-5.7h214.5c3.1,0,5.7,2.5,5.7,5.7
			v287.4C1250,861.8,1247.4,864.3,1244.3,864.3z"/>
		<path fill="#00B0B0" d="M1241,861.6h-214.5c-3.1,0-5.7-2.5-5.7-5.7V568.6c0-3.1,2.5-5.7,5.7-5.7H1241c3.1,0,5.7,2.5,5.7,5.7V856
			C1246.7,859.1,1244.2,861.6,1241,861.6z"/>
		<rect x="1037.7" y="562.9" fill="#029E96" width="20" height="298.7"/>
	</g>
	<g>
		<path fill="#FECB65" d="M534,581.7c0-3.7,3-6.8,6.8-6.8c0.1,0,0.1,0,0.2,0v-14.9h-27.9v320.4H541V588.5c-0.1,0-0.1,0-0.2,0
			C537.1,588.5,534,585.5,534,581.7z"/>
		<path fill="#EFB35B" d="M560.1,869.3v-3.2h8.9v-10.9h-17.7v-3.2H569v-10.7h-8.9v-3.2h8.9v-10.9h-17.7v-3.2H569v-10h-8.9v-3.2h8.9
			v-10.9h-17.7v-3.2H569V786h-8.9v-3.2h8.9v-10.9h-17.7v-3.2H569V758h-8.9v-3.2h8.9v-10.9h-17.7v-3.2H569V730h-8.9v-3.2h8.9v-10.9
			h-17.7v-3.2H569v-10.6h-8.9v-3.2h8.9v-10.9h-17.7v-3.2H569V674h-8.9v-3.2h8.9v-10.9h-17.7v-3.2H569v-10.6h-8.9v-3.2h8.9V632h-17.7
			v-3.2H569v-10.7h-8.9v-3.2h8.9V604h-17.7v-3.2H569v-40.6H541V575c3.6,0.1,6.5,3.1,6.5,6.8s-2.9,6.6-6.5,6.8v292.1H569v-11.3H560.1
			z"/>
		<rect x="560.1" y="866.1" fill="none" stroke="#59636C" stroke-miterlimit="10" width="8.9" height="3.2"/>
		<rect x="551.3" y="851.9" fill="none" stroke="#59636C" stroke-miterlimit="10" width="17.7" height="3.2"/>
		<rect x="560.1" y="838.1" fill="none" stroke="#59636C" stroke-miterlimit="10" width="8.9" height="3.2"/>
		<rect x="551.3" y="823.9" fill="none" stroke="#59636C" stroke-miterlimit="10" width="17.7" height="3.2"/>
		<rect x="560.1" y="810.8" fill="none" stroke="#59636C" stroke-miterlimit="10" width="8.9" height="3.2"/>
		<rect x="551.3" y="796.7" fill="none" stroke="#59636C" stroke-miterlimit="10" width="17.7" height="3.2"/>
		<rect x="560.1" y="782.8" fill="none" stroke="#59636C" stroke-miterlimit="10" width="8.9" height="3.2"/>
		<rect x="551.3" y="768.6" fill="none" stroke="#59636C" stroke-miterlimit="10" width="17.7" height="3.2"/>
		<rect x="560.1" y="754.8" fill="none" stroke="#59636C" stroke-miterlimit="10" width="8.9" height="3.2"/>
		<rect x="551.3" y="740.7" fill="none" stroke="#59636C" stroke-miterlimit="10" width="17.7" height="3.2"/>
		<rect x="560.1" y="726.8" fill="none" stroke="#59636C" stroke-miterlimit="10" width="8.9" height="3.2"/>
		<rect x="551.3" y="712.7" fill="none" stroke="#59636C" stroke-miterlimit="10" width="17.7" height="3.2"/>
		<rect x="560.1" y="698.9" fill="none" stroke="#59636C" stroke-miterlimit="10" width="8.9" height="3.2"/>
		<rect x="551.3" y="684.7" fill="none" stroke="#59636C" stroke-miterlimit="10" width="17.7" height="3.2"/>
		<rect x="560.1" y="670.8" fill="none" stroke="#59636C" stroke-miterlimit="10" width="8.9" height="3.2"/>
		<rect x="551.3" y="656.7" fill="none" stroke="#59636C" stroke-miterlimit="10" width="17.7" height="3.2"/>
		<rect x="560.1" y="642.9" fill="none" stroke="#59636C" stroke-miterlimit="10" width="8.9" height="3.2"/>
		<rect x="551.3" y="628.8" fill="none" stroke="#59636C" stroke-miterlimit="10" width="17.7" height="3.2"/>
		<rect x="560.1" y="614.9" fill="none" stroke="#59636C" stroke-miterlimit="10" width="8.9" height="3.2"/>
		<rect x="551.3" y="600.8" fill="none" stroke="#59636C" stroke-miterlimit="10" width="17.7" height="3.2"/>
		<rect x="551.3" y="600.8" fill="#59636C" width="17.7" height="3.2"/>
		<rect x="560.1" y="614.9" fill="#59636C" width="8.9" height="3.2"/>
		<rect x="551.3" y="628.8" fill="#59636C" width="17.7" height="3.2"/>
		<rect x="560.1" y="642.9" fill="#59636C" width="8.9" height="3.2"/>
		<rect x="551.3" y="656.7" fill="#59636C" width="17.7" height="3.2"/>
		<rect x="560.1" y="670.8" fill="#59636C" width="8.9" height="3.2"/>
		<rect x="551.3" y="684.7" fill="#59636C" width="17.7" height="3.2"/>
		<rect x="560.1" y="698.9" fill="#59636C" width="8.9" height="3.2"/>
		<rect x="551.3" y="712.7" fill="#59636C" width="17.7" height="3.2"/>
		<rect x="560.1" y="726.8" fill="#59636C" width="8.9" height="3.2"/>
		<rect x="551.3" y="740.7" fill="#59636C" width="17.7" height="3.2"/>
		<rect x="560.1" y="754.8" fill="#59636C" width="8.9" height="3.2"/>
		<rect x="551.3" y="768.6" fill="#59636C" width="17.7" height="3.2"/>
		<rect x="560.1" y="782.8" fill="#59636C" width="8.9" height="3.2"/>
		<rect x="551.3" y="796.7" fill="#59636C" width="17.7" height="3.2"/>
		<rect x="560.1" y="810.8" fill="#59636C" width="8.9" height="3.2"/>
		<rect x="551.3" y="823.9" fill="#59636C" width="17.7" height="3.2"/>
		<rect x="560.1" y="838.1" fill="#59636C" width="8.9" height="3.2"/>
		<rect x="551.3" y="851.9" fill="#59636C" width="17.7" height="3.2"/>
		<rect x="560.1" y="866.1" fill="#59636C" width="8.9" height="3.2"/>
	</g>
	<g>
		<rect x="673.8" y="867.7" fill="#7A7B82" width="56.4" height="10.3"/>
		<rect x="759.5" y="855.7" fill="#7A7B82" width="26.8" height="8.3"/>
		<path fill="#424242" d="M646.1,742.3l5.5,10H633c0,0-17.6,4.8-16.4,24.2l-8.6,51.1l-0.5,13.2c0,0,2.6,12.2,16.8,15.5l36.7,0.9
			c0,0,5.2,12.5,15,13.1h53.5c0,0,14.5-0.5,16-17.3l49.5-88.8l-19.5,0.3l-24-10.3l6.5-11.9H646.1z"/>
		<polygon points="646.3,664.3 760,665.5 762.6,681.6 643.2,681.6 		"/>
		<polygon fill="#FECB65" points="645.1,670.9 761,670.9 761.6,674.2 644.3,674.2 		"/>
		<path fill="#424242" d="M633.6,587.7h2.4l7.7,10.9l5.6-24.6c0,0,1.3-7.7,8.9-9.4c0,0,46.1-4.2,82.7,0c0,0,7.5,0.3,10.5,6.9
			c3,6.5,7.9,29.2,7.9,29.2l10.5-13.4l2.9,0.5l-2.7,42.3l-10.2,13H646.3l-10.8-13.3L633,588"/>
		<polygon fill="#DC4A30" points="635.5,629.7 770,629.7 770.1,627.8 635.5,627.8 		"/>
		<rect x="646.3" y="647" fill="#424242" width="113.7" height="18.9"/>
		<rect x="646.3" y="642.9" width="113.7" height="5.1"/>
		<rect x="646.3" y="648.8" fill="#6E8386" width="2" height="16.4"/>
		<rect x="651.1" y="648.8" fill="#6E8386" width="2" height="16.4"/>
		<rect x="655.5" y="648.8" fill="#6E8386" width="2" height="16.4"/>
		<rect x="660.3" y="648.8" fill="#6E8386" width="2" height="16.4"/>
		<rect x="665.4" y="648.8" fill="#6E8386" width="2" height="16.4"/>
		<rect x="670.2" y="648.8" fill="#6E8386" width="2" height="16.4"/>
		<rect x="674.6" y="648.8" fill="#6E8386" width="2" height="16.4"/>
		<rect x="679.4" y="648.8" fill="#6E8386" width="2" height="16.4"/>
		<rect x="684.3" y="648.8" fill="#6E8386" width="2" height="16.4"/>
		<rect x="689.1" y="648.8" fill="#6E8386" width="2" height="16.4"/>
		<rect x="693.6" y="648.8" fill="#6E8386" width="2" height="16.4"/>
		<rect x="698.4" y="648.8" fill="#6E8386" width="2" height="16.4"/>
		<rect x="703" y="648.8" fill="#6E8386" width="2" height="16.4"/>
		<rect x="707.8" y="648.8" fill="#6E8386" width="2" height="16.4"/>
		<rect x="712.2" y="648.8" fill="#6E8386" width="2" height="16.4"/>
		<rect x="717" y="648.8" fill="#6E8386" width="2" height="16.4"/>
		<rect x="721.6" y="648.8" fill="#6E8386" width="2" height="16.4"/>
		<rect x="726.4" y="648.8" fill="#6E8386" width="2" height="16.4"/>
		<rect x="730.8" y="648.8" fill="#6E8386" width="2" height="16.4"/>
		<rect x="735.6" y="648.8" fill="#6E8386" width="2" height="16.4"/>
		<rect x="739.9" y="648.8" fill="#6E8386" width="2" height="16.4"/>
		<rect x="744.7" y="648.8" fill="#6E8386" width="2" height="16.4"/>
		<rect x="749.1" y="648.8" fill="#6E8386" width="2" height="16.4"/>
		<rect x="753.9" y="648.8" fill="#6E8386" width="2" height="16.4"/>
		<rect x="758" y="648.8" fill="#6E8386" width="2" height="16.4"/>
		<path fill="#414141" d="M756.3,736.9H648.8c-5.5,0-10-4.5-10-10v-37.4c0-5.5,4.5-10,10-10h107.5c5.5,0,10,4.5,10,10v37.4
			C766.3,732.4,761.8,736.9,756.3,736.9z"/>
		<rect x="646.1" y="736.9" width="111.9" height="5.4"/>
		<rect x="638.8" y="688.4" fill="#565656" width="3.7" height="31"/>
		<rect x="647" y="688.4" fill="#565656" width="3.7" height="31"/>
		<rect x="655.5" y="688.4" fill="#565656" width="3.7" height="31"/>
		<rect x="663.6" y="688.4" fill="#565656" width="3.7" height="31"/>
		<rect x="671.7" y="688.4" fill="#565656" width="3.7" height="31"/>
		<rect x="679.8" y="688.4" fill="#565656" width="3.7" height="31"/>
		<rect x="688.3" y="688.4" fill="#565656" width="3.7" height="31"/>
		<rect x="696.5" y="688.4" fill="#565656" width="3.7" height="31"/>
		<rect x="704.4" y="688.4" fill="#565656" width="3.7" height="31"/>
		<rect x="712.5" y="688.4" fill="#565656" width="3.7" height="31"/>
		<rect x="721" y="688.4" fill="#565656" width="3.7" height="31"/>
		<rect x="729.2" y="688.4" fill="#565656" width="3.7" height="31"/>
		<rect x="737.8" y="688.4" fill="#565656" width="3.7" height="31"/>
		<rect x="746" y="688.4" fill="#565656" width="3.7" height="31"/>
		<rect x="754.5" y="688.4" fill="#565656" width="3.7" height="31"/>
		<rect x="762.6" y="688.4" fill="#565656" width="3.7" height="31"/>
		<rect x="646.3" y="725" fill="#6E8386" width="23.9" height="6.2"/>
		<rect x="735.9" y="725" fill="#6E8386" width="23.9" height="6.2"/>
		<rect x="690.6" y="725" fill="#6E8386" width="23.9" height="6.2"/>
		<path fill="#282324" d="M607.7,790.5c0,0,1.2-13.7,15-16h36.5c0,0-3.1-20.2,16.2-24.2h50.5c0,0,17.2-2.2,20.1,18.8v15.3
			c0,0,6.1,10.8,29.9,1.5c0,0,12.2-9,19.5-29.8c7.3-20.8,32.7-10.7,40,2.5c0,0,32.2,39.2,9.5,87.9c0,0-9.5,15.6-22.9,5.4l-24.4-0.1
			c0,0,1.5,4.5-4.2,5.4h-42l-3.5-1.9h-23.1v-60c0,0-9.1-29.4-25.1-39.1c0,0-19.9,13.6-24,36.1v62c0,0-10.5-1-14.9-13.4h-37.9
			c0,0-14.8-2-15.2-16.4C607.3,810.2,607.7,790.5,607.7,790.5z"/>
		<path d="M640.8,782.3c-14.8,0-26.7,12-26.7,26.7c0,14.8,11.9,26.7,26.7,26.7c14.7,0,26.7-12,26.7-26.7
			C667.5,794.3,655.5,782.3,640.8,782.3z M640.8,832.9c-13.2,0-23.9-10.7-23.9-23.9s10.7-23.9,23.9-23.9c13.2,0,23.9,10.7,23.9,23.9
			S654,832.9,640.8,832.9z"/>
		<rect x="657.2" y="806.3" fill="#4C4C4C" width="5.3" height="4"/>
		<circle fill="#4C4C4C" cx="641.3" cy="809.9" r="9.1"/>
		<path fill="#E4E4E4" d="M703.6,850.7c0,1.6-1,2.9-2.3,3.5v12.5h-2.8v-12.5c-1.4-0.5-2.4-1.9-2.4-3.5c0-2.1,1.7-3.8,3.8-3.8
			S703.6,848.6,703.6,850.7z"/>
		<polygon fill="#E4E4E4" points="682.5,865.6 693.8,865.6 693.8,842.8 706,842.8 706,865.6 717.4,865.6 717.4,837.6 682.5,837.6 		
			"/>
		<rect x="731.4" y="842.7" fill="#E4E4E4" width="10.1" height="4.4"/>
		<rect x="760.5" y="808.3" fill="#929292" width="72.3" height="29.2"/>
		<rect x="832.2" y="841.5" fill="#C2C2C2" width="5.5" height="5.5"/>
		<rect x="766.3" y="798" fill="#C2C2C2" width="14.6" height="6.2"/>
		<rect x="785.2" y="798" fill="#C2C2C2" width="15.2" height="6.2"/>
		<rect x="804.5" y="798" fill="#C2C2C2" width="14.8" height="6.2"/>
		<rect x="796.7" y="783.7" width="10.2" height="4.8"/>
		<rect x="811.9" y="783.7" width="10.9" height="4.2"/>
		<rect x="827.8" y="783.7" width="11.7" height="4.2"/>
		<circle cx="813.9" cy="763.6" r="10.1"/>
		<circle fill="#C2C2C2" cx="821" cy="844.7" r="3"/>
		<circle fill="#C2C2C2" cx="832.3" cy="801.7" r="3.2"/>
	</g>
</g>
</svg>
