<svg xmlns="http://www.w3.org/2000/svg" viewBox="0 0 612 586.2" enable-background="new 0 0 612 586.2"><circle fill="#3E4C4C" cx="306.9" cy="301" r="249.6"/><path fill="#F1F2F2" d="M424.3 202.8v222.8h-201.4v-277.8h147.7"/><path fill="#D1D3D4" d="M370.6 202.8h53.7l-53.7-55z"/><path fill="#414042" d="M241 190.7h56.3v4.1h-56.3zm0 9.2h56.3v4.1h-56.3z"/><circle fill="#00B0B0" cx="245.7" cy="176.4" r="6.3"/><circle fill="#D86866" cx="269.2" cy="176.4" r="6.3"/><circle fill="#FECB65" cx="290.8" cy="176.4" r="6.3"/><path fill="#E6E7E8" d="M370.6 233.1h98.6v62h-98.6z"/><circle fill="#00B0B0" cx="383.1" cy="249.2" r="5"/><circle fill="#D86866" cx="401.7" cy="249.2" r="5"/><circle fill="#FECB65" cx="418.9" cy="249.2" r="5"/><path fill="#414042" d="M378.1 262.7h50.5v3h-50.5zm0 8.5h69.8v3h-69.8zm0 8.4h50.5v3h-50.5zm-85.1 175.1h-70.1v-38.5h57.8z"/><path fill="#212121" d="M222.9 416.2v38.5h-70.2l12.7-38.5z"/><path fill="#414042" d="M158 454.7h64.9v8.5h-64.9z"/><path fill="#58595B" d="M222.9 454.7h66.3v8.5h-66.3z"/><path fill="#414042" d="M191.2 403.5h31.7v12.7h-31.7z"/><path fill="#58595B" d="M222.9 403.5h33.8v12.7h-33.8z"/><path fill="#414042" d="M245.6 403.5h-22.7v-13h14.4z"/><path fill="#212121" d="M222.9 390.5v13h-21l7.9-13z"/><path fill="#D86866" d="M254.9 275.5c0 1.1 0 2.2-.2 3.3v.2l-1.7 7.2-18.7 80.3v24h-11.4v-146.4h.5c17.4-.1 31.5 14 31.5 31.4z"/><path fill="#D15C56" d="M222.9 244.1v146.4h-10.4v-24l-18.6-80.4-1.7-7.2v-.2c-.1-1.1-.2-2.2-.2-3.3 0-17.1 13.8-31.1 30.9-31.3z"/></svg>