<?xml version="1.0" encoding="utf-8"?>
<!-- Generator: Adobe Illustrator 18.1.0, SVG Export Plug-In . SVG Version: 6.00 Build 0)  -->
<svg version="1.1" id="Layer_1" xmlns="http://www.w3.org/2000/svg" xmlns:xlink="http://www.w3.org/1999/xlink" x="0px" y="0px"
	 viewBox="0 0 508 512" enable-background="new 0 0 508 512" xml:space="preserve">
<circle fill="#3E4C4C" cx="254.3" cy="252.3" r="213.4"/>
<g>
	<path fill="#E6E7E8" d="M188.7,324.3v17.6c0,0.9-0.7,1.6-1.6,1.6h-14.7v-20.8h14.7C188,322.6,188.7,323.4,188.7,324.3z"/>
	<path fill="#BCBEC0" d="M172.4,322.6v20.8h-15.3c-0.9,0-1.6-0.7-1.6-1.6v-17.6c0-0.9,0.7-1.6,1.6-1.6H172.4z"/>
	<path fill="#F1F2F2" d="M175.5,413.8c0,1.5-1.1,2.8-2.5,3v-36c1.9-0.3,3.3-1.9,3.3-3.8c0-2.1-1.7-3.9-3.8-3.9c0,0-0.1,0-0.1,0
		v-29.7h12.4l4,33.5l-15.3,33.8C174.6,411.3,175.5,412.4,175.5,413.8z"/>
	<path fill="#D1D3D4" d="M168.6,377c0,1.8,1.2,3.3,2.9,3.7v36c-1.3-0.4-2.2-1.6-2.2-3c0-1.2,0.7-2.3,1.8-2.8L156,377l3.9-33.5h12.5
		v29.7C170.3,373.2,168.6,374.9,168.6,377z"/>
	<path fill="#00B0B0" d="M182.1,322.6h-9.8V73.4c0.4,0.1,2.5,0.9,3.7,4.9C177.4,82.7,199.4,219.8,182.1,322.6z"/>
	<path fill="#029E96" d="M172.4,73.4v249.2h-10.6c0,0-22.6-70.2,6.9-244.3C168.6,78.3,169.4,74.2,172.4,73.4
		C172.3,73.4,172.3,73.4,172.4,73.4z"/>
</g>
<g>
	<rect x="242.5" y="380" fill="#5C6266" width="17" height="22.3"/>
	<rect x="225.6" y="380" fill="#454B4F" width="17" height="22.3"/>
	<rect x="225.6" y="137.4" fill="#EFB35B" width="17" height="242.6"/>
	<rect x="242.5" y="137.4" fill="#FECB65" width="17" height="242.6"/>
	<path fill="#EF766A" d="M227.7,417.2v-14.8h14.8v17.2h-13.2C228.4,419.5,227.7,418.5,227.7,417.2z"/>
	<path fill="#FD8B77" d="M242.5,419.5v-17.2h13.8v14.8c0,1.3-0.7,2.3-1.6,2.3H242.5z"/>
	<polygon fill="#FFFEFD" points="242.5,137.4 242.5,98.9 248.3,98.9 259.5,137.4 	"/>
	<polygon fill="#F5F5F5" points="225.6,137.4 236.3,98.9 242.5,98.9 242.5,137.4 	"/>
	<polygon fill="#454B4F" points="236.3,98.9 242.1,77.9 242.5,79.2 242.5,98.9 	"/>
	<polygon fill="#5C6266" points="242.5,98.9 242.5,79.2 248.3,98.9 	"/>
</g>
<g>
	<path fill="#2D2D2D" d="M369.1,406.9v9.6c0,3.1-1.9,5.6-4.3,5.6h-30.1v-15.2H369.1z"/>
	<path fill="#231F20" d="M334.7,406.9v15.2h-29.9c-2.4,0-4.3-2.5-4.3-5.6v-9.6H334.7z"/>
	<rect x="334.7" y="163.7" fill="#2D2D2D" width="34.4" height="8.4"/>
	<rect x="300.5" y="163.7" fill="#231F20" width="34.2" height="8.4"/>
	<rect x="300.5" y="172.2" fill="#F1F2F2" width="34.2" height="4.6"/>
	<rect x="334.7" y="172.2" fill="#FFFFFF" width="34.4" height="4.6"/>
	<rect x="334.7" y="176.8" fill="#2D2D2D" width="34.4" height="225.5"/>
	<rect x="300.5" y="176.8" fill="#231F20" width="34.2" height="225.5"/>
	<rect x="300.5" y="402.3" fill="#F1F2F2" width="34.2" height="4.6"/>
	<rect x="334.7" y="402.3" fill="#FFFFFF" width="34.4" height="4.6"/>
	<polygon fill="#BCBEC0" points="334.7,119.6 334.7,163.7 300.5,163.7 317,119.6 	"/>
	<polygon fill="#D1D3D4" points="369.1,163.7 334.7,163.7 334.7,119.6 352.1,119.6 	"/>
	<rect x="319.5" y="101.1" fill="#CECECE" width="15.1" height="18.5"/>
	<rect x="334.7" y="101.1" fill="#DBDBDB" width="15.1" height="18.5"/>
	<polygon fill="#2D2D2D" points="346.9,77.9 346.9,101.1 334.7,101.1 334.7,82.1 	"/>
	<polygon fill="#231F20" points="334.7,82.1 334.7,101.1 322.5,101.1 322.5,86.4 	"/>
</g>
</svg>
