<svg xmlns="http://www.w3.org/2000/svg" viewBox="0 0 508 512" enable-background="new 0 0 508 512"><circle fill="#3E4C4C" cx="254.3" cy="252.3" r="213.4"/><path fill="#E6E7E8" d="M188.7 324.3v17.6c0 .9-.7 1.6-1.6 1.6h-14.7v-20.8h14.7c.9-.1 1.6.7 1.6 1.6z"/><path fill="#BCBEC0" d="M172.4 322.6v20.8h-15.3c-.9 0-1.6-.7-1.6-1.6v-17.6c0-.9.7-1.6 1.6-1.6h15.3z"/><path fill="#F1F2F2" d="M175.5 413.8c0 1.5-1.1 2.8-2.5 3v-36c1.9-.3 3.3-1.9 3.3-3.8 0-2.1-1.7-3.9-3.8-3.9h-.1v-29.7h12.4l4 33.5-15.3 33.8c1.1.6 2 1.7 2 3.1z"/><path fill="#D1D3D4" d="M168.6 377c0 1.8 1.2 3.3 2.9 3.7v36c-1.3-.4-2.2-1.6-2.2-3 0-1.2.7-2.3 1.8-2.8l-15.1-33.9 3.9-33.5h12.5v29.7c-2.1 0-3.8 1.7-3.8 3.8z"/><path fill="#00B0B0" d="M182.1 322.6h-9.8v-249.2c.4.1 2.5.9 3.7 4.9 1.4 4.4 23.4 141.5 6.1 244.3z"/><path fill="#029E96" d="M172.4 73.4v249.2h-10.6s-22.6-70.2 6.9-244.3c-.1 0 .7-4.1 3.7-4.9z"/><path fill="#5C6266" d="M242.5 380h17v22.3h-17z"/><path fill="#454B4F" d="M225.6 380h17v22.3h-17z"/><path fill="#EFB35B" d="M225.6 137.4h17v242.6h-17z"/><path fill="#FECB65" d="M242.5 137.4h17v242.6h-17z"/><path fill="#EF766A" d="M227.7 417.2v-14.8h14.8v17.2h-13.2c-.9-.1-1.6-1.1-1.6-2.4z"/><path fill="#FD8B77" d="M242.5 419.5v-17.2h13.8v14.8c0 1.3-.7 2.3-1.6 2.3h-12.2z"/><path fill="#FFFEFD" d="M242.5 137.4v-38.5h5.8l11.2 38.5z"/><path fill="#F5F5F5" d="M225.6 137.4l10.7-38.5h6.2v38.5z"/><path fill="#454B4F" d="M236.3 98.9l5.8-21 .4 1.3v19.7z"/><path fill="#5C6266" d="M242.5 98.9v-19.7l5.8 19.7z"/><path fill="#2D2D2D" d="M369.1 406.9v9.6c0 3.1-1.9 5.6-4.3 5.6h-30.1v-15.2h34.4z"/><path fill="#231F20" d="M334.7 406.9v15.2h-29.9c-2.4 0-4.3-2.5-4.3-5.6v-9.6h34.2z"/><path fill="#2D2D2D" d="M334.7 163.7h34.4v8.4h-34.4z"/><path fill="#231F20" d="M300.5 163.7h34.2v8.4h-34.2z"/><path fill="#F1F2F2" d="M300.5 172.2h34.2v4.6h-34.2z"/><path fill="#fff" d="M334.7 172.2h34.4v4.6h-34.4z"/><path fill="#2D2D2D" d="M334.7 176.8h34.4v225.5h-34.4z"/><path fill="#231F20" d="M300.5 176.8h34.2v225.5h-34.2z"/><path fill="#F1F2F2" d="M300.5 402.3h34.2v4.6h-34.2z"/><path fill="#fff" d="M334.7 402.3h34.4v4.6h-34.4z"/><path fill="#BCBEC0" d="M334.7 119.6v44.1h-34.2l16.5-44.1z"/><path fill="#D1D3D4" d="M369.1 163.7h-34.4v-44.1h17.4z"/><path fill="#CECECE" d="M319.5 101.1h15.1v18.5h-15.1z"/><path fill="#DBDBDB" d="M334.7 101.1h15.1v18.5h-15.1z"/><path fill="#2D2D2D" d="M346.9 77.9v23.2h-12.2v-19z"/><path fill="#231F20" d="M334.7 82.1v19h-12.2v-14.7z"/></svg>