<?xml version="1.0" encoding="utf-8"?>
<!-- Generator: Adobe Illustrator 18.1.0, SVG Export Plug-In . SVG Version: 6.00 Build 0)  -->
<svg version="1.1" id="Layer_1" xmlns="http://www.w3.org/2000/svg" xmlns:xlink="http://www.w3.org/1999/xlink" x="0px" y="0px"
	 viewBox="0 0 612 341.9" enable-background="new 0 0 612 341.9" xml:space="preserve">
<g>
	<path fill="#333333" d="M181.3,34.3c0,25.4-1.5,63.5-4.4,114.2c-3,50.8-4.5,88.9-4.5,114.2c0,4.2-5.4,7.4-16.1,9.7
		c-4.2,0.9-7.9,1.3-11.2,1.1c-3.3-0.1-5-0.8-5-2c0-21.6,0.8-47.8,2.4-78.6c-5.2-0.9-29.9,0.8-34.2,0.5c-4,12.4-8,25.6-11.9,39.7
		c-0.4,1.4-2.6,3-6.6,4.8c-3.7,1.8-7.8,3.1-12.2,3.9c-9.7,1.7-14,0.7-13-3c4.7-16.9,18.3-59,18.3-59c5.5-15.8,11.4-30.7,17.5-44.8
		c2.6-6,6.2-14.3,10.9-24.9c5.3-11.9,9-20.2,11-24.9c11.5-26,18.7-40.9,21.6-44.7c3.1-4.1,9.4-7,18.9-8.8
		C168.2,30.7,181.3,33,181.3,34.3z M143.2,179.6c2.7-47.8,4.2-76.5,4.5-86.1c-8,18.1-13.3,30-15.7,35.8
		c-6.7,15.6-13.1,32.3-19.2,50.1C126.2,180.1,140.7,179.8,143.2,179.6z"/>
</g>
<g>
	<path fill="#333333" d="M273.9,80.8c2.4-0.5,4.8-0.6,7.2-0.6c4,0.1,5.5,1.2,4.6,3.2c-17.8,37.9-28.9,61.8-33.3,71.8
		c-12.9,29.2-23.1,48.2-30.7,57c-2.4,2.9-7.7,5-16,6.5c-8.1,1.5-12.1,1-12-1.4c0.1-9-0.3-29.8-1.2-62.4c-0.6-25.7-0.5-46.5,0.4-62.5
		c0.2-3.9,5.2-6.8,15.1-8.7c3.8-0.7,7.1-1,10.1-0.8c2.9,0.1,4.4,0.6,4.4,1.7c-0.9,16.7-0.9,42.6,0,77.8c0.8-1.9,1.6-3.5,2.2-4.7
		c12.4-27.2,22-47.8,31.9-68.9C258.2,85.2,264,82.6,273.9,80.8z"/>
</g>
<g>
	<path fill="#333333" d="M358.9,104.1c0.9,10.5-1.3,23.4-6.4,38.6c-0.6,1.8-3.7,3.7-9.1,5.8c-4.4,1.5-8.1,2.3-11.1,2.4
		c-2,0.1-7.5,0.1-16.5,0c-7,0-12.5,0.2-16.5,0.7c-1.4,7.1-2.4,15.1-2.9,24c-0.4,9.8-0.1,17,1.1,21.4c1.1,4.1,2.5,6.9,4.2,8.4
		c2-1.7,3.6-3.3,4.8-4.8c5.5-7,8.9-14.1,10.2-21.4c0.2-1.2,2.1-2.6,5.9-4.4c3.2-1.5,6.8-2.6,10.8-3.3c8.1-1.4,11.9-0.5,11.4,2.7
		c-2,11.6-8.2,21.7-18.8,30.4c-6.1,5-12.4,8.6-18.9,10.7c-10.9,3.7-19.4,4.7-25.4,3.2c-9.3-2.3-13.9-10.9-13.9-25.7
		c-0.1-9.1,0.7-19.5,2.4-31.2c3.1-20.3,7.7-35.6,13.7-46.1c3.8-8.5,8.2-15.1,13-19.8c7.1-7,16.5-11.5,28.4-13.7
		c12.8-2.3,21.6-1.1,26.4,3.8C355.9,89.9,358.4,96.1,358.9,104.1z M296.5,209.3c-0.1,0.1-0.2,0.1-0.4,0.1L296.5,209.3z M301.7,139.5
		c6.8-1,15-0.3,25.4-0.5c3.3-12.3,4.2-20.9,3.2-28.2c-0.8-8.3-3-13.8-6.6-16.5c-0.5-0.4-1-0.6-1.3-0.8c-0.5,0.4-0.7,0.6-0.4,0.4
		c-1.1,1.1-2,2.1-2.7,3.2c-2.1,3-4.1,6.2-5.8,9.5C310,113.9,302.8,134.4,301.7,139.5z M325.8,90.5c0.1,0,0.1,0,0.1-0.1
		C326,90.4,325.9,90.5,325.8,90.5z"/>
</g>
<path fill="#333333" d="M445.9,90.6c5.9,3.5,8.3,9.9,7,19.1c-1.3,8.7-4.3,17.5-8.9,26.3s-8.7,13.4-12.9,17.1
	c-4.6,3.9-11.7,8-20.5,8.9c-7,1.5-0.2-12.5,3.5-19.7c4.6-8.5,7.4-16.2,8.6-23c0.8-4.4,1-8.1,0.4-11.2c-34,20.8-37.6,95-39.6,102.2
	c-0.9,3.2-6.2,5.7-15.8,7.5c-9.5,1.9-14.1,1.6-13.9-0.8l0.1-1.4c1.5-17.5,12.2-62.4,13.5-67.7c7.6-31,11.1-49.9,10.3-56.7
	c-0.4-3.6,4.4-6.6,14.4-8.9c4-0.9,7.5-1.3,10.5-1.3c3.2,0.2,4.8,0.9,5,2.2c0.6,4.9,0.5,10.3-0.3,16l0.1-0.1l0.1-0.1
	c5.6-4.3,11.7-7.2,18.4-8.8C435.1,88,441.7,88.1,445.9,90.6z"/>
<path fill="#333333" d="M516.4,91.9c1.3-2.3,6-4.5,14.1-6.6c8.3-2.3,12.4-2,12.4,0.6c0,12.1-1.3,25.8-3.9,41.2
	c-2.4,14.3-7.3,36.6-14.6,66.7c-4.5,18.4-9.7,33.6-15.6,45.5c-4.3,8.6-8.9,15.3-13.6,20.1c-6.9,7-16.1,11.6-27.5,13.8
	c-13.7,2.7-23,0.4-28-6.8c-3.4-4.8-4.4-12.7-2.9-23.6c0.4-3,4.5-5.5,12.4-7.6c2.1-0.5,4.7-0.9,7.8-1.3c4.7-0.4,6.9,0.2,6.6,1.8
	c-0.1,0.7-9.1,22.1,6.6,25.4c10.1-2.4,15.1-20.3,21.6-40.2c2.1-6.3,4.2-13.6,6.3-21.9c-1.9,1.7-3.8,3-5.8,4.1
	c-11.2,6.1-21,8.1-29.4,6c-7.6-1.8-11.3-7.4-11.3-16.6c0-14.1,0.6-25.2,1.9-33.4c3.8-26.2,11-49.5,21.4-69.9
	c1.7-3.3,6.9-5.7,15.8-7.3c2.2-0.4,4.4-0.6,6.6-0.5c3.6,0.2,4.9,1.2,4,3c-32.4,57.1-22.5,108-21.8,109.7
	C509.4,175,514.3,95.6,516.4,91.9z"/>
<text transform="matrix(1 0 0 1 203.4208 280.1894)"><tspan x="0" y="0" fill="#333333" stroke="#333333" stroke-width="0.5" stroke-miterlimit="10" font-family="'SignPainter-HouseScript'" font-size="84.5657" letter-spacing="-4">B</tspan><tspan x="34.1" y="0" fill="#333333" stroke="#333333" stroke-width="0.5" stroke-miterlimit="10" font-family="'SignPainter-HouseScript'" font-size="84.5657">urnett</tspan></text>
</svg>
