<svg id="Layer_1" data-name="Layer 1" xmlns="http://www.w3.org/2000/svg" viewBox="0 0 604.93 405.39"><defs><style>.cls-1{fill:#abdcdb;stroke:#352c2c;stroke-linecap:round;stroke-linejoin:round;stroke-width:0.18px;}.cls-2{fill:#461a51;}.cls-3{fill:#6cc9cb;}</style></defs><title>logo</title><path class="cls-1" d="M414.12,314.86" transform="translate(-101.01 -104.56)"/><path class="cls-2" d="M704.7,219.15a20.08,20.08,0,0,0-4.47-8.62c-2.06-2.3-4.23-4.59-7.46-5.4-3-.75-6.09-1.54-9.23-1.31-3.67.26-7.31,0.75-11,1.1-8.68.85-15.42,5.45-21.43,11.3a61.57,61.57,0,0,0-6,7.17c-1.85,2.49-3.64,5.07-5.23,7.73-2.28,3.87-4.36,7.84-6.52,11.78-1,1.8-1.87,3.64-2.93,5.71l-1-1.51a54.79,54.79,0,0,0-3.26-4.73A51,51,0,0,0,615,233c-3.48-2.29-7.48-3.15-11.42-4.2a64.7,64.7,0,0,0-29.75-.53,12.57,12.57,0,0,0-8,4.93,15.39,15.39,0,0,0,2,1,27.52,27.52,0,0,1,7.48,4.27,7.62,7.62,0,0,1,2.55,10,13.75,13.75,0,0,0-1.34,6.27c0,1.84.08,3.68,0.12,5.52a13.77,13.77,0,0,1-1.92,7.58,7.73,7.73,0,0,1-4.2,3.79c-0.75-1.92-1.38-3.74-2.14-5.49A27.34,27.34,0,0,0,558.56,254c-3.45-2.33-6.88-4.69-10.24-7.14a20.63,20.63,0,0,1-8.07-11.6c-1.69-6.28-1.58-12.68-.87-19.07,0.57-5.17.48-10.22-2-15a26.65,26.65,0,0,1-1.27-2.85,5.54,5.54,0,0,0-3.37-3.22,15,15,0,0,0-7.81-.6c-4.81.82-9.62,1.62-14.4,2.64a106.86,106.86,0,0,0-16,4.28c-3.49,1.35-5.52,3.6-5.88,7.39-0.22,2.3-.53,4.61-0.94,6.9-0.29,1.51-.46,3.12-1.55,4.27a32.08,32.08,0,0,0-5.07-1.81,37.34,37.34,0,0,0-19,1.4c-5,1.73-9.91,3.64-14.75,5.74a28.15,28.15,0,0,0-6.94,4.23c-3.15,2.7-5.94,5.79-8.9,8.72-0.52.52-1,1-1.76,1.72-0.2-.72-0.34-1-0.38-1.32-0.79-5.75-3.71-10.27-8-14a23.22,23.22,0,0,0-11.3-5.47c-4.39-.79-8.6-0.56-12.47,1.95a2.55,2.55,0,0,1-.44.2c-4.13,1.58-6.72,4.88-8.86,8.45-2,3.27-3.45,6.84-5.17,10.28-0.79,1.61-1.64,3.19-2.59,5.08a52.37,52.37,0,0,0-2.93-5.34c-3.8-5.28-8.44-9.61-14.53-12.16-0.82-.33-1.65-0.65-2.43-1a26.6,26.6,0,0,0-15.46-2.15c-2.67.34-5.32,0.87-8.17,1.35a34.54,34.54,0,0,1-.6-3.44q-0.76-12.58-1.43-25.17a33.42,33.42,0,0,0-.15-4.06c-1-5.58.19-11,.87-16.47,0.41-3.23,1.53-6.37,2.26-9.57a48.6,48.6,0,0,0,1.09-5.89,9.07,9.07,0,0,0-2.4-7.31c-1.36-1.47-2.75-2.9-4.14-4.35-3.07-3.2-7.06-4.28-11.29-4.63-2.45-.2-4.95,0-7.42-0.05-4.17,0-8.34-.18-12.34-1.54-1.21-.41-2.44-0.8-3.67-1.13a49,49,0,0,1-17.91-9.47c-1.43-1.16-3-2.13-4.5-3.18-0.86-.59-1.76-1.1-2.58-1.73-8.17-6.33-16.28-12.68-25.57-17.34A60.54,60.54,0,0,0,228,104.87c-6.19-.85-12.28.12-18.29,1.69a56.17,56.17,0,0,0-11.94,4.27c-3.29,1.68-6.56,3.34-9.77,5.14a40.09,40.09,0,0,0-5,3.31,60.87,60.87,0,0,0-13.2,13.84c-2.56,3.75-5.45,7.31-7.68,11.26-3,5.34-5.6,10.95-8.15,16.54-1.27,2.74-2.07,5.7-3.08,8.56-1.57,4.44-3.27,8.83-4.62,13.35-0.94,3.14-.55,6.22,2.22,8.51a60,60,0,0,0,4.93,3.79c2.32,1.51,3.52,3.44,3,6.24-0.11.56-.16,1.12-0.23,1.68-0.35,3.08-.74,6.18-1,9.27a4,4,0,0,0,.25,1.88c1.57,3.84,7.08,6.91,11.21,6.38a27.6,27.6,0,0,0,11.1-4.31c2.11-1.32,3.24-1.25,4.74.71a24.85,24.85,0,0,1,3,5.13,8.84,8.84,0,0,0,4.81,5.08c4.92,1.88,9.46.6,13.61-2.17a13.7,13.7,0,0,0,4.72-6.24c1.83-4.24,3.12-8.52,2.44-13.26-0.64-4.35-1-8.74-1.5-13.1a14,14,0,0,1,.74-6.53c0.42,0.53.63,0.86,0.89,1.12,1.94,1.92,4.24,3.48,6.93,3.35,4.34-.19,8.22-1.66,11.11-5.32a13.13,13.13,0,0,0,2.88-7.7c0.14-3,0-6.08,0-9.12a20.55,20.55,0,0,1,2.34-10.42c1.12-2.1,2.52-2.75,4.76-2.07a6.92,6.92,0,0,1,3,1.77A16.46,16.46,0,0,1,247,168.94a72,72,0,0,1-.3,7.68,29.81,29.81,0,0,0,.26,8.6,9.22,9.22,0,0,0,13.07,7l2.34-1a4.1,4.1,0,0,1-.79,2.33q-4,5.54-8.08,11c-1.19,1.61-2.47,3.15-3.71,4.72-3.6,4.5-7.24,9-10,14.1a15.28,15.28,0,0,0-2.21,8.71,15.66,15.66,0,0,1-.1,2.14c-2,.46-4,1-6.09,1.34a84.85,84.85,0,0,1-12.9.72c-6.56,0-13.1.49-19.66,0.78l-3.35.14-22.29,1.2a18.71,18.71,0,0,0-2.62.26c-5.55,1.13-11.15,1.81-16.65,3.39-6.16,1.79-12.28,3.56-17.9,6.69-3.56,2-7,4.12-10.43,6.34a48.17,48.17,0,0,0-11.23,10,58.38,58.38,0,0,0-9.27,15.6,61.76,61.76,0,0,0-4,16.45,15.75,15.75,0,0,0,3.75,12.47,4.2,4.2,0,0,1,1.15,2.52c-0.08,4.61.89,9.07,1.59,13.58a21.14,21.14,0,0,0,3.52,9.34,6.83,6.83,0,0,1,1.25,4.29,21.13,21.13,0,0,0,.33,5,36.81,36.81,0,0,0,7,14.6,11.11,11.11,0,0,1,2.73,8.11,51,51,0,0,0,.16,7.91c0.33,3.18,1.4,6.16,4,8.18a22.4,22.4,0,0,0,5,2.79c5.25,2.18,10.51.71,14.27-3.54a32.56,32.56,0,0,0,5.33-8.48,10.59,10.59,0,0,1,2.51-3.44c3.22-2.89,10.54-2.45,13.25,1.32a43.57,43.57,0,0,0,4.89,5.28c3.8,3.71,8.53,5.19,13.73,5.52,2.19,0.14,2.14.19,2.88,2.33s1.83,4.54,4,5.86a22.26,22.26,0,0,0,13.47,3.57,17.78,17.78,0,0,0,9.19-3.76,25.76,25.76,0,0,0,10.12-13.28,46.24,46.24,0,0,1,2.93-6.3,7.8,7.8,0,0,1,1.23-1.34c0.55,1.46,1,2.66,1.42,3.84a12.65,12.65,0,0,0,4.44,6.12,21.26,21.26,0,0,0,17,3.26,13.63,13.63,0,0,0,8.52-5.43c4.69-6.58,5.94-14,5.29-21.89a15.57,15.57,0,0,0-.79-3.49c-1.47-4.73-3-9.45-4.5-14.18-0.45-1.46-.87-2.92-1.21-4.4-0.27-1.13-.38-2.3-0.56-3.46,1.3-.41,2.28-0.74,3.26-1a8.6,8.6,0,0,0,6.41-6.46,26.51,26.51,0,0,0,.7-10.93A48.41,48.41,0,0,1,270.78,292a7,7,0,0,1,1.7-3.44c0.87,2.26,1.62,4.46,2.56,6.56a5.48,5.48,0,0,0,4.35,3.44c3.22,0.45,6.23,0,8.63-2.52,0.79-.83,1.51-1.74,2.28-2.63a8.34,8.34,0,0,1-.22,3.83c-0.94,3.14-1.89,6.28-3.08,9.34a30.18,30.18,0,0,0-.89,19.77c1.08,3.68,2.14,7.33,2.92,11.12a131.3,131.3,0,0,1,2,23.87c0.08,5.92-.1,11.85-0.44,17.75-0.3,5.44,1.55,10.2,4,14.86a3.62,3.62,0,0,0,1.27,1.38,15.72,15.72,0,0,0,10,2.82c4.55-.35,7.95-2.44,9.86-6.52,2.55-5.44,3-11.26,2.28-17.16-0.07-.61-0.08-1.23-0.14-2.24,1,0.53,1.65.91,2.32,1.25a15.51,15.51,0,0,0,2.56,1.28,25.42,25.42,0,0,0,17.38-.9,2.78,2.78,0,0,1,2.67.12,68.55,68.55,0,0,0,6.72,3.16,5.31,5.31,0,0,0,2.79.35,15.11,15.11,0,0,0,9.94-6.16c1.64-2.26,2.88-4.78,4.28-7.2l0.91-1.57c0.57,0.68,1,1.2,1.47,1.74a7.63,7.63,0,0,0,8,3.07,46.33,46.33,0,0,0,4.8-1.47c5.74-1.95,8.78-6.34,10-11.91a38.22,38.22,0,0,0,.52-10c-0.19-3.26-1-6.48-1.53-9.71a29.55,29.55,0,0,1-.63-6.42c0.53-6.18,3.37-11.44,7.27-16.15a0.59,0.59,0,0,1,.4-0.07c0.2,2.59.23,5.14,0.63,7.65,0.79,5,3.8,8.6,7.92,11.22a5.51,5.51,0,0,1,2.6,3.12,38.35,38.35,0,0,0,8.74,15.05,9.21,9.21,0,0,1,2.6,6.63c0.15,4.24.33,8.48,0.56,12.72a13.59,13.59,0,0,0,6.65,10.84,12.08,12.08,0,0,0,12.79.56,25.29,25.29,0,0,0,4.74-3.18c1.62-1.39,3-3.07,4.73-4.91,0.6,0.93,1,1.68,1.57,2.39A16.2,16.2,0,0,0,459,380c6.75,2.4,11.71-.41,15.77-5.81a15.26,15.26,0,0,0,3-6.8c1.87-.59,3.64-0.79,5-1.65a19.62,19.62,0,0,0,6.38-6.73c1.47-2.63,3.07-5.18,4.65-7.84a3.94,3.94,0,0,1,.68.53c1.46,2.09,2.93,4.17,4.35,6.3a2.6,2.6,0,0,1,.23,1.35,65.08,65.08,0,0,0,1.73,14.26,25.42,25.42,0,0,0,2.17,6.34c2.41,4.53,7.65,7.77,13.09,5.15a21,21,0,0,0,3.67-2.25c1.46-1.09,2.78-2.36,4.29-3.67,0.65,0.85,1.28,1.65,1.89,2.48a16.6,16.6,0,0,0,7.17,5.85c4.76,1.87,9.49,1.83,13.89-1.39a18.09,18.09,0,0,0,5.86-6.53,3.48,3.48,0,0,1,3.3-2.24,12.51,12.51,0,0,0,7.21-2.94c0.86-.71,1.64-1.69,2.88-1.91,0.53,1.74,1,3.35,1.51,4.95,1.06,3.22,2.71,5.93,5.78,7.66,4.81,2.7,9.67,2.92,14.3-.12a83.8,83.8,0,0,0,7.59-6.2c0.5-.42,1-0.9,1.64-1.5a8.6,8.6,0,0,1-.83,5.47c-1.55,3.5-3.14,7-4.61,10.55a33.14,33.14,0,0,0-2.4,11.22,11.63,11.63,0,0,0,1,3.87,6.71,6.71,0,0,0,.83,1.43c-0.76,1.4-1.39,2.79-2.21,4.06-4.34,6.75-10.1,11.3-18.38,12-1.28.11-2.55,0.27-3.83,0.3-3.71.08-6.91-1-9.23-4.12-3.52-4.76-4.54-10.32-5.23-16-0.42-3.46.56-6.83,1-10.24,0.14-1,.55-2.07-0.6-3.12a15.88,15.88,0,0,0-1.8.75,52.2,52.2,0,0,0-9.34,6.26,51.07,51.07,0,0,0-14.67,20.73,20.52,20.52,0,0,0-1.1,12.49c0.46,1.87,1,3.74,1.32,5.62a22.78,22.78,0,0,0,3.49,8.37,15.17,15.17,0,0,1,2.55,9.31c-0.14,2.88-.26,5.77-0.37,8.64-0.19,4.42.18,8.71,3.27,12.2A40,40,0,0,0,540,480.7c0.41,2.41.65,4.81,1.25,7.12a11.43,11.43,0,0,0,8.06,8.47c6.22,2,11.51.14,16.13-4.06a8.86,8.86,0,0,0,1.7-2.81c1.65-3.64,3.2-7.32,4.88-11a8.5,8.5,0,0,1,3.84-3.83c2-1.12,3.48-.74,4.59,1.34a9.45,9.45,0,0,1,1.34,5.74c-0.45,3.82-1,7.63-1.16,11.46a13.15,13.15,0,0,0,3.08,9.8c2.59,2.92,5.92,4.58,9.39,6.07,6.93,3,16.51-1.7,18.91-8.38a27.92,27.92,0,0,0,1.64-6.24,85.41,85.41,0,0,0,.46-10.06,47.27,47.27,0,0,1,4.68-21.85,30.19,30.19,0,0,1,5.9-8.42c2.71-2.59,5.66-4.93,8.42-7.47a42.57,42.57,0,0,0,4.12-4.34c1.16-1.4,2.11-3,3.18-4.5h2.15a8.87,8.87,0,0,0,5.82-1.95,19,19,0,0,0,5.18-6.8c3.22-7.24,3.11-14.76,2.15-22.4-0.65-5.23-1.17-10.5-1.77-15.73a2.75,2.75,0,0,1,1.76-3.22,10.74,10.74,0,0,0,3.26-2.73,17.48,17.48,0,0,0,4.24-10.48c0.16-2.39.25-4.8,0.33-7.2,0.27-9.19.46-18.38,0.08-27.58a150.34,150.34,0,0,1,.83-19.64c0.44-5.08,1.68-10.09,2.28-15.17,1.21-10.39,4-20.41,6.61-30.47a3.18,3.18,0,0,1,2.24-2.56,11.73,11.73,0,0,0,1.5-.74c4.55-2.29,7-6.18,8.29-10.92a8.67,8.67,0,0,0,0-2.85c-0.07-1.32-.25-2.64-0.4-4.12,2.09,0.12,4,.27,5.88.34a9.21,9.21,0,0,0,6.22-2.09c3.69-2.82,5.59-6.83,6.94-11A37.51,37.51,0,0,0,704.7,219.15Zm-10.95,9.26a34.41,34.41,0,0,1-4.43,11.6,8.4,8.4,0,0,1-3.86,3.49c-1.72.8-3,.11-3.26-1.8s0.57-3.44,1.39-5c0.74-1.42,1.65-2.75,2.34-4.19a13.14,13.14,0,0,0,1.21-8.86c-0.83-3.41-2.63-5-6-5.25-0.89-.07-1.8,0-2.06,1.23,1,1.76,3.3.33,4.43,1.87-1.28,2.07-2.51,4.23-3.89,6.26-2.69,4-3.68,8.48-4.46,13.07-0.85,5.13-1.49,10.29-2.34,15.42a12.5,12.5,0,0,1-2.49,5.9c-1,1.3-2.29,2.17-3.93,1.64a4.14,4.14,0,0,1-2.71-3.39c-0.12-.68-0.19-1.36-0.3-2.14a1.43,1.43,0,0,0-1.47,1.89,11.4,11.4,0,0,0,1.2,3.09,18,18,0,0,0,1.77,2.34c-0.64,1.83-1.21,3.67-1.92,5.44a58.05,58.05,0,0,0-3.41,13c-1.25,8.37-2.37,16.8-4.44,25-0.89,3.56-1.46,7.21-2.36,10.77-0.79,3.11-1.84,6.15-4.64,8.18a2.14,2.14,0,0,0-.29.79c2.33,0.34,3.44-1.3,5-3.12,0,1.47.1,2.45,0,3.42-0.35,3.42-.76,6.83-1.19,10.25-0.93,7.62-1.91,15.23-2.77,22.86a26.15,26.15,0,0,0,.12,5.26,42.21,42.21,0,0,1-1.12,11.91c-0.83,4.14-6.49,6.48-9.5,2.92a0.81,0.81,0,0,0-1-.07c-1,1-.59,1.39.46,2a17.83,17.83,0,0,0,3.76,1.42,9.87,9.87,0,0,0,2.11.22c0,0.79,0,1.49,0,2.18-0.26,3.94.35,7.8,0.7,11.71,0.53,6,.71,12,0.82,18a7.88,7.88,0,0,1-1.39,4,3.69,3.69,0,0,1-5.82.26,6.57,6.57,0,0,1-1.83-5.52c0.4-2.19.93-4.38,1.32-6.58a64.05,64.05,0,0,0,1-6.63,8,8,0,0,0-.57-3.27c-0.27-.71-0.86-2-2-1.65-0.5.19-.33,1.06-0.18,1.49,1.53,4,.41,7.88-0.38,11.82-0.52,2.58-.8,5.19-1.21,7.8a5,5,0,0,1-.46,1.8c-2.7,4.44-5.28,9-8.23,13.24a56.46,56.46,0,0,1-11.59,12.72,28.33,28.33,0,0,1-4.76,3,14.42,14.42,0,0,1,4.49-6.22c0.7-.6,1.19-1,0.53-2.4-0.91-.5-1.45.49-1.95,1.08-1.35,1.57-2.55,3.26-3.78,4.92-0.19.25-4.38,9.39-4,17.31,0.1,1.87.29,3.82,0.57,5.71a46.37,46.37,0,0,1-.55,16.45,20,20,0,0,1-1.6,4.74,8,8,0,0,1-7.74,4.24,3.65,3.65,0,0,1-3.63-3.5,26.56,26.56,0,0,1,.15-8.11c0.82-5.29,1.94-10.55,1.58-16,0-.48,0-1-0.1-1.43-0.68-5-3-7.13-8-6.88a98.38,98.38,0,0,0-9.77,1.12A23.63,23.63,0,0,1,565,460.13c-1.79-.53-2-1-1.35-2.88,0.34-1,1-1.8,1.4-2.74a1.65,1.65,0,0,0,0-1.31,1,1,0,0,0-1.27.11,4.79,4.79,0,0,0-1.3,1.66,11.54,11.54,0,0,0-1,6.54c0.38,2,.79,4.08,1.21,6.12,0.72,3.42.91,6.82-.52,10.12a12,12,0,0,1-4.21,5.1c-3.93,2.81-10.37-.31-10.62-5.25-0.15-3.27.08-6.37,1.76-9.28a40.14,40.14,0,0,0,3.07-6.24,43.57,43.57,0,0,0,1.65-6.72,6.82,6.82,0,0,0-.23-2.6,1.06,1.06,0,0,0-.89-0.55,1.29,1.29,0,0,0-.71.79,2,2,0,0,0,0,.94c0.49,3.69-.93,6.94-2.39,10.16-0.63,1.36-1.51,2.6-2.33,4a4.53,4.53,0,0,1-3.78-3,11.76,11.76,0,0,1-.5-7.31,18.64,18.64,0,0,0-1.58-14.16c-3.82-7.09-5.28-14.46-3.29-22.45,1-3.8,2.82-7.12,4.39-10.62a2.71,2.71,0,0,1,.63-0.56c1,2.92,2.13,5.71,3,8.56a51.17,51.17,0,0,0,9.08,16.54c3,3.68,7.14,5.55,11.81,6.31,5.64,0.91,10.78-.83,15.69-3.3,8.4-4.21,13.73-11.27,17.69-19.55,0.7-1.45,1.46-2.85,2.06-4.32,0.79-2,1.5-4,2.15-6.08a3.33,3.33,0,0,1,2.71-2.58c5-1.19,7.29-5.49,8-9.79,0.07-.41.3-1.35-0.27-1.46-1.28.37-1.12,1.45-1.28,2.15a9.37,9.37,0,0,1-3.53,5.56c-0.3.25-.63,0.49-1,0.71-3.27,1.95-5.58.87-6.11-2.94a25.73,25.73,0,0,1,1.72-12.49c0.87-2.4,2-4.73,2.82-7.14a83.09,83.09,0,0,0,4.93-24.85,27.43,27.43,0,0,1,1.16-5.85,3,3,0,0,0-.34-2.89c-5.85,2.19-11.75,4.27-18.43,4.31,0.34-1,.56-1.62.78-2.29a2.08,2.08,0,0,0-.63-0.42,3,3,0,0,0-2.85,1.81,16.37,16.37,0,0,0-2.3,9.43c0.14,2.07.5,4.13,0.63,6.2a31.36,31.36,0,0,1-.05,4.53,5,5,0,0,1-3.3,4.34c-2,.91-3.56.35-4-1.85a23.55,23.55,0,0,1-.23-5.71c0.22-2.79.74-5.56,1.06-8.34a38,38,0,0,0,.23-4.31,9.4,9.4,0,0,0-3-6.6c-0.44-.46-0.87-1.09-1.61-0.56s0.1,2,.15,2.32c-3.18.35-5.48-1.25-7.63-3.2a16.43,16.43,0,0,1-1.08-1.3c-1.38-1.53-2.24-1.62-3.54-.12a17.58,17.58,0,0,0-4,6.79,24.87,24.87,0,0,1-1.28,4.12c-1.59,3.37-4.08,5.7-8,6.08a1,1,0,0,1-1-.22c-0.75-2.21,1.19-4,1.34-6.11a1.25,1.25,0,0,0-1.88.93c-0.55,1.68-1.09,3.35-1.53,5.06a17.44,17.44,0,0,1-4.31,8.17c-3,3-7.23,2.89-9.72-.6a83.42,83.42,0,0,1-4.5-7.62c-0.83-1.46-1.51-3-2.36-4.44-0.4-.7-0.93-1.24-1.45,0-0.27.65,0.75,2.26,1.51,3.86a11.08,11.08,0,0,1-5.52-2.41,23.74,23.74,0,0,1-4.57-4.87c-0.64-1-.42-2.58-0.41-3.9a13.29,13.29,0,0,1,.78-2.82c0.05-1.73-1.51.5-1.61,0.8a11.18,11.18,0,0,0-.89,3.67c0.11,3.84.45,7.68,0.71,11.51,0.07,0.94.25,1.89,0.33,2.86a4.82,4.82,0,0,1-1.15,3.56,4.21,4.21,0,0,1-4.43,1.74c-1.79-.4-2.43-1.92-2.56-3.42a28.56,28.56,0,0,1,0-7.16,62.48,62.48,0,0,1,3.94-14.31,32.33,32.33,0,0,0,1.46-5.78,3.32,3.32,0,0,0,0-1.42,1.52,1.52,0,0,0-.68-0.82,1.24,1.24,0,0,0-1,1,28.6,28.6,0,0,0-.5,3.07,3.68,3.68,0,0,1-.8-1.35c-2.21-7.61-2.43-15.13.86-22.55a35.37,35.37,0,0,1,8.79-11.57c1.08-1,4.39-3.45,2.94-3.6-2-.07-2.67,1.84-4.43,2.4a8.81,8.81,0,0,1,.41-1.54A82.21,82.21,0,0,1,530,291.5c2.94-3.78,5.86-7.59,8.66-11.49,2.06-2.85,3.18-6.69.71-10.29a9.79,9.79,0,0,0-5.36-3.86c-3.45-1-7-1.73-10.5-2.52-3-.7-2.21,1-2.06,1.1,1.47,1.15,1.55,1.21.79,2.66-1.12,2.13-2.29,4.23-3.54,6.27-2.18,3.53-4.43,7-6.68,10.54-1.59,2.48-3.26,4.93-4.81,7.44a20.48,20.48,0,0,0-3.14,10.92,78.63,78.63,0,0,1-.85,8.34,10.9,10.9,0,0,1-2.41,5.17,4.8,4.8,0,0,1-2.07,1.51c-1.85.7-3-.14-2.85-2.14s0.56-4.27.87-6.39c0.25-1.74.59-3.46,0.76-5.22,0.08-.72.23-1.95-0.25-2.21-1.28-.08-1.55.53-1.5,1.34,0.19,2.62-.57,5.06-1.25,7.53a19.44,19.44,0,0,0-.7,4.5c-0.08,3.15-1.72,5.4-3.83,7.47s-4.31,4.06-6.24,6.28a19.71,19.71,0,0,0-4.93,17.12,11.87,11.87,0,0,1,.14,2.86,4.15,4.15,0,0,1-3.89,3.9,2.86,2.86,0,0,1-3.08-3.19,25.76,25.76,0,0,1,.9-5.66c0.7-2.63,1.76-5.21,1.3-8a8,8,0,0,0-1.21-3c-0.45-.7-1.3-0.94-2.07.11,0.37,0.53.82,1.08,1.16,1.68,0.9,1.66.76,3.19-.57,4.34-3.5,3-4.43,6.84-4.23,11.22,0.16,3.44.22,6.87,0.2,10.32,0,3-.94,4.13-3.29,4.43a4.31,4.31,0,0,1-4.95-3.53,23.15,23.15,0,0,1-.12-6.65,74.21,74.21,0,0,1,1.64-7.25c0.4-1.72.8-3.44,1.1-5.15a6.1,6.1,0,0,0-.91-4.61,1.65,1.65,0,0,0-1.31-.64c-0.68.16-.64,0.79-0.3,1.35a3.54,3.54,0,0,1,.33.64c1.31,3.78.63,4.77-3.29,5.49-5.23,1-10.37.22-15.54-.45-1.24-.16-3.42-0.55-4.54-0.74-0.9-1.58,1.61-3.3,0-4.53-2.69,2.19-3.34,6-1.91,9.8,1.16,3.05,2.15,6.19,3.11,9.32a16.63,16.63,0,0,1,.56,3.79,6.85,6.85,0,0,1-1.77,5.3c-1.23,1.32-2.69,1.6-4,.45a9.57,9.57,0,0,1-2.63-3.33,21.59,21.59,0,0,1-.87-15.94c1.47-4.27,1.77-8.49-.71-12.09q-2.58-3.76-5.41-7.35c-1.83-2.29-1.45,1-.9,1.69,1.34,1.8,2.66,3.61,3.94,5.44a3,3,0,0,1,.67,2.81c-5.11-2.52-11.37-12.71-11.44-16.84,3.67-2.32,5.17-5.52,3.87-8.34a1,1,0,0,0-1.16,1.15,22.78,22.78,0,0,1-.27,2.39c-0.5,2.15-1.68,3-4,3.07a3.63,3.63,0,0,1-4-3.08,18,18,0,0,1,.75-9.22c0.89-2.92,1.95-5.77,2.79-8.68,0.79-2.75,1.4-5.58,2.09-8.37,0.46-1.91.94-3.83,1.47-6a23,23,0,0,1-11.68-5.94,52.92,52.92,0,0,0-3.57,4.79c-3.37,5.81-6.86,11.57-9.84,17.57-2.86,5.7-5.17,11.7-7.72,17.56-0.38.86-.82,1.7-1.4,2.92-0.86-1.95,0-3.6-.25-5.11a0.9,0.9,0,0,0-1.51.64,28,28,0,0,0-.59,4.5c-0.08,4.35.94,8.57,1.74,12.81a37.58,37.58,0,0,1-.6,18.53,7.18,7.18,0,0,1-.6,1.55,2.89,2.89,0,0,1-3.24,1.49,2.83,2.83,0,0,1-2.07-2.64,16.23,16.23,0,0,1,.26-4.06,104.26,104.26,0,0,0,1.8-15.94,13,13,0,0,0-1.36-6,2.87,2.87,0,0,0-.78-1.2,3.72,3.72,0,0,0-1.39-.27c-0.6.2,0.29,1.61,0.4,1.81,1.76,3.54,1.88,4.5-.55,7.08A36.88,36.88,0,0,1,361.46,343c-2,.86-3.94,1.65-6.08,2.55-0.72-3,0-5.73.3-9.07-0.49-1.46-1.34,1-1.42,1.34a18.07,18.07,0,0,0-.79,4.69c0.12,3.75.61,7.5,0.8,11.25,0.12,2.54,0,5.1,0,7.66a5.07,5.07,0,0,1-.22,1.17c-0.46,1.68-1.79,3-3,3s-2.4-1-3-2.74A31.65,31.65,0,0,1,346.67,352a94.27,94.27,0,0,0-.08-9.82,14.16,14.16,0,0,0-1.65-4.42c-0.26-.56-1-1.09-1.54-0.41a1.54,1.54,0,0,0,.08,1.43c1.54,2.1,1.46,4.47,1.58,7-2.45,0-4.09-.89-5.13-3-1.57-3.16-1.32-6.35-.35-9.58,0.38-1.31,1-2.55,1.31-3.86,0.25-1,1.81-4,.4-3.48-2.39,1.28-1.38,3.74-2.94,5-1.43-1.7-1.47-3.78-1.31-5.78a59.83,59.83,0,0,1,1-7.13c1.09-5.74,2.21-11.48,3.45-17.18,0.55-2.49,1.4-4.92,2.11-7.38,1-3.71,2.07-7.4,3.07-11.11,1.31-4.87,2.69-9.71,3.8-14.61a19.78,19.78,0,0,0-.22-10.91c-0.38-1.13-.86-2.22-1.31-3.39,0-1,2-1.38.89-2.85a3.94,3.94,0,0,0-2.49,2,13.5,13.5,0,0,0-2.62,7.59,18.31,18.31,0,0,1-.23,3.12c-0.25,1.45-1.09,2.17-2.19,2s-1.69-.83-1.59-2.26c0.15-2,.56-4,0.8-5.93a16.46,16.46,0,0,0,.25-3.56,4.21,4.21,0,0,0-3.11-3.57c-1.73-.33-2.88.55-3.82,1.89a8.54,8.54,0,0,0-1.7,4.89,87.13,87.13,0,0,0,.55,12.21,66.88,66.88,0,0,1,.26,10.06,4,4,0,0,1-1.94,3.65c-1.79,1-3.31.59-4.13-1.3a14,14,0,0,1-.93-3.22A34.53,34.53,0,0,1,327,266c0.23-1.34.48-2.67,0.68-4a6.93,6.93,0,0,0,.12-1.91c-0.16-1.31,0-3-1.61-3.44a4.1,4.1,0,0,0-4.27,1.59,13.81,13.81,0,0,0-3,7.93c-0.2,3.44-.3,6.88-0.19,10.32,0.22,7.12.61,14.22,0.91,21.33a84,84,0,0,1-1.27,16,23.51,23.51,0,0,1-1,3.2c-0.23.79-2,3.09-.67,2.75,2-1.3,1.94-3,3.29-4.36,0.31,1.59.64,3,.87,4.46,0.94,5.83,1.68,11.71,2.82,17.5s2.63,11.21,4,16.78a22.6,22.6,0,0,0,1.34,3.33c0.9,2.15,1.85,4.27,2.69,6.43,0.6,1.58.14,2.26-1.54,2.39a16.3,16.3,0,0,1-9.8-2.7c-2.9-1.81-5.52-4.09-8.26-6.18-1.77-1.36-2.47-3.05-1.58-5.25,0.33-.8.45-1.7,0.72-2.55a2,2,0,0,0-.5-2.25,5.41,5.41,0,0,0-1.85,3.56,62.6,62.6,0,0,0-1.3,17.89c0.23,2.36,1.21,4.63,1.66,7a24.26,24.26,0,0,1,.52,5.68,4.68,4.68,0,0,1-9.37,0,58.66,58.66,0,0,1,.71-10.5,102.62,102.62,0,0,0,1-29.39,131.63,131.63,0,0,0-2.84-14.57c-0.14-.61-0.18-1.24-0.26-1.89,1.45-.91,6.84-1.23,4.55-2.47a7.9,7.9,0,0,0-2.09.3,4.1,4.1,0,0,1-4.81-3,14.64,14.64,0,0,1-.15-8.52,135.15,135.15,0,0,0,4-28.23c0.14-5.28.53-10.55,0.78-15.83a22.93,22.93,0,0,0,0-3.35,3.73,3.73,0,0,0-3-3.61c-5.85-1.39-11.42.68-13.41,7.21a27.43,27.43,0,0,0-1,13,36.28,36.28,0,0,1,.55,4.53,4.59,4.59,0,0,1-.49,2.52,2.69,2.69,0,0,1-1.92,1.12,2.08,2.08,0,0,1-1.51-1.23,9.41,9.41,0,0,1-.68-3.49c0.1-3.2.45-6.38,0.6-9.57,0.15-2.81.18-5.6,0.22-8.4a21.41,21.41,0,0,0-1.61-7.48c-0.27-.78-0.83-2-1.66-1.2-0.65.61-.12,1,0.19,1.74s1.06,1.21,1,2.69c-3.46-.79-4.14,1-4.76,2.78a67.57,67.57,0,0,1-9,17.42,92.93,92.93,0,0,0-5,7.92,50.49,50.49,0,0,0-2.67,5.37,18.67,18.67,0,0,0-.9,11.78,21.69,21.69,0,0,1-.08,8.59c-0.45,2.58-2.28,4-4.64,3.67-1-2.94,1-5.71.83-8.7-1.43,0-1.39,1-1.65,1.77-1.8,5.38-1.61,10.88-.87,16.39,0.27,2,.5,4,0.82,5.94s0.71,4.08,1.12,6.11c1.06,5.49,2.21,11,3.24,16.5a12.42,12.42,0,0,1-1,7.28,8.54,8.54,0,0,1-11.42,4.27,6.1,6.1,0,0,1-3.38-3.83,22.46,22.46,0,0,1-.94-11.11q1.92-10.27,3.63-20.57a47.44,47.44,0,0,0-.68-16.47,13.47,13.47,0,0,0-1.13-2.6c-1.25.87-.87,1.77-0.75,2.58,0.26,1.66.56,3.31,0.82,5a3.17,3.17,0,0,1-1.38,3.33c-1.76,1.25-3.39,2.69-5.18,3.9-3.5,2.39-7.12,4.59-10.59,7a39.58,39.58,0,0,0-9.54,9,8.85,8.85,0,0,0-1.87,5.85c0.25,3.67.63,7.31,0.86,11,0.2,3.35.31,6.72,0.37,10.07a10.44,10.44,0,0,1-.42,3.31,6.28,6.28,0,0,1-8.18,4.2,3.1,3.1,0,0,1-2.48-2.62,11.24,11.24,0,0,1-.15-3.08,71.52,71.52,0,0,1,4-15.79c1.06-2.59,2.14-5.19,2.07-8.08,0-1.5-.14-3-1.94-4-0.14,2.19-1.88,2.59-3.31,3.3-1.77.89-3.6,1.68-5.48,2.55-0.68-1.94,2.55-2.43,1.32-4.68a5.71,5.71,0,0,0-1.5,1.1,39.91,39.91,0,0,0-2.73,4.5c-1.06,2.14-2,4.38-2.9,6.6a14.61,14.61,0,0,1-5.26,6.39,9,9,0,0,1-2.6,1.19,4.32,4.32,0,0,1-5.25-1.79c-1.62-2.47-3.31-4.91-4.95-7.38a17.17,17.17,0,0,0-5.45-5.3c-2.18-1.32-4.23-2.86-6.3-4.29-1.09.67-1,1.28-.18,1.91,1.61,1.2,3.22,2.39,4.81,3.6,0.42,0.3.82,0.64,1.35,1-6.27,1.13-12.72-.67-18.62-4.83,0.05-.75.1-1.53,0.19-2.75-0.05-.75-1.4.65-1.8,1a10.29,10.29,0,0,0-2.85,6.94c-0.18,2.89-.15,5.77-0.44,8.63a30.82,30.82,0,0,1-1.25,6.31,5,5,0,0,1-4.57,3.39,4.58,4.58,0,0,1-5.08-4.29,19.43,19.43,0,0,1,1.45-8.7A40.73,40.73,0,0,0,137.08,350a81.92,81.92,0,0,0,.29-8.38,9.55,9.55,0,0,0-1.83-5.38,1.56,1.56,0,0,0-1.15-.6c-1.5-.15-0.3,1.4-0.26,1.47,2.22,4,1.87,8.15,1.16,12.38-3.49,1.28-6.08.53-8.23-2.33a9.68,9.68,0,0,1-2.22-6.68c0.23-3.19.49-6.37,0.6-9.57a20.69,20.69,0,0,0-.35-4.29c-0.15-.79-0.14-4.31-1.24-2.75-1.57,2.36.55,4.27-.42,6.2a6.62,6.62,0,0,1-2.51-4.4c-0.55-3.79-1.1-7.59-1.38-11.42-0.23-3.18,0-6.38,0-9.77,2.85-1,3.59-3.35,4.16-5.94a14.17,14.17,0,0,1,3.42-6.8c0.3-.33,1.47-1.12.9-1.36-1.62-.25-2.41.63-3.16,1.49-1.64,1.87-2.18,4.24-2.88,6.53a10.14,10.14,0,0,1-.5,2.09,3.69,3.69,0,0,1-1.66,1.81,2.14,2.14,0,0,1-2.54-1.35,6.52,6.52,0,0,1-.63-3.44,22.72,22.72,0,0,1,2.52-6.94,117.28,117.28,0,0,1,9.32-12.77,45.6,45.6,0,0,1,13.82-11c1.85-1,3.61-2.06,5.45-3a71.2,71.2,0,0,1,21.84-7c4.42-.74,8.75-1.85,13.16-2.67a137.38,137.38,0,0,1,21.89-2.51c3.44-.07,6.86-0.52,10.29-0.78,0.79-.07,1.6-0.11,2.4-0.11a130.75,130.75,0,0,0,21.27-1.87c4.08-.65,8.06-2,12.11-3a2.46,2.46,0,0,0,2-2.11c0.2-.94.5-1.84,0.63-2.33,2.14-1,3.65-1.76,5.34-2.71,0.52-.3,1.6-1.42.78-2.18-0.57-.44-1,0.87-1.55,1.25-1.47,1.06-3.18,1.24-4.25.46a3.23,3.23,0,0,1-1.2-4,26.79,26.79,0,0,1,3-6c1.92-2.64,4.35-4.92,6.33-7.53,2.25-3,4.25-6.18,6.34-9.3a13.7,13.7,0,0,1,1.38-2c0.42,2.67-1.55,5.48.44,8.11a2,2,0,0,0,1-2.06,44.26,44.26,0,0,1,4.64-18c2.77-5.51,5.58-11,8.14-16.58a74.47,74.47,0,0,0,3.2-9,8.76,8.76,0,0,0,.12-3.33c-0.29-3.24-2.09-5.19-5.22-6.09-3.91-1.13-7.8-2.4-11.7-3.63-0.44-.14-0.86-0.35-1.55-0.64l3.57-3.38c0.9-.83.87-1.62-0.2-2.51-4.44,3.69-9.09,7.23-8.94,13.85a56.83,56.83,0,0,0,.65,6.43c0.3,2.18.48,4.39-.86,6.26a10.23,10.23,0,0,1-3.14,2.84c-1.47.83-2.82,0.18-3.5-1.4a7,7,0,0,1-.25-4.95c1.12-3.5,2.4-6.94,3.52-10.44a25.42,25.42,0,0,0,1.28-5.34,9,9,0,0,0-3.57-8.25c-2.44-1.92-5.06-3.64-7.61-5.43-1.51-1-3-2.09-4.55-3.12-0.45-.31-0.87-0.65-1.51-1.1a11.81,11.81,0,0,1,5.52-2,1.56,1.56,0,0,0,1.58-1.69,6.08,6.08,0,0,0-1.76-.12,17.57,17.57,0,0,0-3.67,1.12c-5,2.41-10,2.24-15.24,1a9.25,9.25,0,0,0-3.52,0c-3,.52-4.44,2.71-5.17,5.4a15.31,15.31,0,0,0-.38,4c0,4.17.29,8.33,0.16,12.49a22.8,22.8,0,0,1-1.21,6.31,3.21,3.21,0,0,1-4.27,2.07,3.31,3.31,0,0,1-2.21-2.32c-1.1-3.07-.8-6.18-0.33-9.26A58.87,58.87,0,0,1,218.47,142a23.25,23.25,0,0,0,1.69-4.21,5.75,5.75,0,0,0-.26-3,2.16,2.16,0,0,0-2.7-1.46,12.71,12.71,0,0,0-2.06.56c-1.49.61-2.89,1.39-4.39,2a14.46,14.46,0,0,1-3.87,1.12c-2.7.25-3.26-.48-2.84-3.19,0-.25.11-0.48,0.15-0.71,0.11-.67.14-1.43-0.71-1.47a1.61,1.61,0,0,0-1,1c-0.59,2.22-1.09,4.46,1.35,6.13a15.24,15.24,0,0,0-1.17,1.59c-1.23,2.14-2.56,4.24-3.59,6.48a59,59,0,0,0-5.36,18.84c-0.38,3.6-.46,7.2.89,10.66,1.15,3,2.17,6,3.48,8.92a12,12,0,0,1,.91,8.62c-0.38,1.31-.46,2.71-0.93,4a10.7,10.7,0,0,0,.11,6.82c0.86,3,1.64,6,1.25,9.22a3.17,3.17,0,0,1-2.36,3,3.3,3.3,0,0,1-3.84-1.24,5.16,5.16,0,0,1-1-2.11,25.38,25.38,0,0,1-.19-5.47A56.56,56.56,0,0,1,195,196.29a19.27,19.27,0,0,0,.7-5.41,2.67,2.67,0,0,0-2.56-2.93c-2.37-.3-4.76-0.59-7.13-0.86a20.31,20.31,0,0,0-2.06,0,21,21,0,0,0,1.45-4c0.16-1.27,1-2.78-.37-4a1.47,1.47,0,0,0-1,1.73,5.82,5.82,0,0,1-3.76,5.78c-4.47,2.11-6.45,6-6.41,10.91,0,1.69.08,3.37,0,5a3.7,3.7,0,0,1-2.43,3.54c-2.93,1.2-5,0-5-3.16a38.12,38.12,0,0,1,.8-6.18c0.29-1.66.82-3.27,1-4.93,0.34-2.93.6-5.88,0.71-8.82a5.68,5.68,0,0,0-2-4.43c-1.27.4-1.23,1.16-.72,2.06,0.8,1.42,1.43,2.86.82,4.61-2,.8-4,0.15-5.75-0.71a3,3,0,0,1-1.27-2.1,5.65,5.65,0,0,1,.59-3c1.68-3.37,3.59-6.61,5.22-10,1.53-3.16,2.88-6.42,4.21-9.68,0.8-2,2.7-6.37,4.49-8,0.56,0.78-.19,3.79.49,4.72,0.9,1.19,1-3.68,1.21-5.41a16.72,16.72,0,0,1,1.62-5.73,41.29,41.29,0,0,1,15.79-17.64,84.4,84.4,0,0,1,11.52-6.35,27.69,27.69,0,0,1,14.56-2.1c2.85,0.37,5.7.76,8.57,1,6.63,0.6,12.42,3.53,18.19,6.49a98,98,0,0,1,9.19,5.18c3.79,2.49,7.4,5.29,11.08,8,0.52,0.37,1,.85,1.46,1.24,3.63,2.92,7.16,5.92,10.87,8.68,7,5.21,14.65,8.51,23.57,8.11a9.07,9.07,0,0,1,1.92.05c4.25,0.7,8.44,0,12.64-.57l0.49-.07c4.43-.74,5.78.1,6.82,4.5a8.2,8.2,0,0,1-1,6.9c-1.65,2.37-3.35,4.68-4.91,7.1a48.49,48.49,0,0,0-2.43,4.65c-0.57,1.17-.37,2.29.53,3.71,0.55-1.53.94-2.79,1.46-4a12.65,12.65,0,0,1,2.29-3.6,15.14,15.14,0,0,1,.34,1.91c0.25,4.62.46,9.26,0.71,13.89,0.29,5.43.74,10.85,0.87,16.29,0.12,5.11,0,10.24-.14,15.35-0.11,5.52-.31,11-0.45,16.55a3.55,3.55,0,0,0,.25,1A88.51,88.51,0,0,1,340,237.81c2.94-.31,5.89-0.55,8.85-0.67,3.83-.15,6.94,1,8.41,5a16.93,16.93,0,0,0,1.06,2c1.73-.82,1-2.25.72-3.54a2.51,2.51,0,0,1,.87.15c5.74,4.39,10.85,9.32,12.87,16.55a77,77,0,0,1,1.85,9.67c1.15,7.54.79,15.16,0.57,22.75a38.38,38.38,0,0,1-.65,5.71c-0.56,3.05-.14,6.07.16,9.08,0.27,2.78,1.85,3.67,4.29,2.32a7,7,0,0,0,2.28-2.07,66.78,66.78,0,0,0,6.27-11.57c1.42-3.22,3.3-6.22,5-9.31,1.13-2.11,2.25-4.24,3.41-6.34,0.61-1.09,1.31-2.14,2.09-3.42-0.23-.31-0.61-0.8-1-1.32a10.58,10.58,0,0,1-1.51-2.43,99.63,99.63,0,0,1-3-10.61c-1-4.81,0-9.56,1.61-14.15,0.8-2.34,1.8-4.61,2.7-6.93a7.91,7.91,0,0,1,3.54-3.79,4.25,4.25,0,0,1,6,1,14.84,14.84,0,0,0,1.31,1.7,1.32,1.32,0,0,0,1.21.27,1.33,1.33,0,0,0,.37-1.2,30.5,30.5,0,0,0-1.51-3c4.32-1.34,8.71,1.13,9.24,5.4a29.77,29.77,0,0,1-.25,7.62c-0.49,3.49-1.36,6.91-2,10.39a15.54,15.54,0,0,0-.19,3.82c0.35,4.08,3,6.37,6.82,8a12.32,12.32,0,0,0,2-2c3.18-5.37,7.51-9.73,11.91-14.06a1.59,1.59,0,0,1,.6-0.35,1,1,0,0,1,.49.05c-0.34,1.61-.74,3.2-1,4.83a5.13,5.13,0,0,0,.44,1.77c1.28-.89,1.49-2.17,1.85-3.33,1.24-3.93,2.78-7.78,5.89-10.58a66.54,66.54,0,0,1,8.36-6,30,30,0,0,1,5.55-2.84,38.87,38.87,0,0,1,14.14-2.14c0.41,0,.8.08,1.2,0.05,6.34-.44,10.52,2.85,13.8,7.87a29.23,29.23,0,0,1,4.36,11.33c0.61,3.63,1.5,7.24,1.74,10.88a29.88,29.88,0,0,1-2.73,14A44.37,44.37,0,0,1,482,291.08c-3.9,4.12-8.06,8-13.71,9.76-3.9,1.19-7.83,2.28-11.7,3.57a72.16,72.16,0,0,0-9.58,3.71c-3.37,1.7-4.83,4.81-4.59,8.57,0.25,3.6,1.46,6.73,4.87,8.57a6.74,6.74,0,0,0,2,.85c3.15,0.52,6.27,1.08,9.5.48a10.17,10.17,0,0,0,4.89-2.37A85.15,85.15,0,0,0,474,313.88c6.15-7.5,12.45-14.87,17.63-23.08,4.79-7.57,10-14.86,13.74-23.07,0.82-1.83,1.61-3.65,2.32-5.53a4.73,4.73,0,0,0-.56-4.31A47.46,47.46,0,0,1,501,241.37c-1.28-7.92-.83-15.8-0.07-23.68,0.31-3.33,2.66-5.29,5.64-6.23,3.65-1.15,7.4-2,11.14-2.9a44.63,44.63,0,0,1,6.15-1.08c2.89-.3,3.74.4,4.14,3.33a53.57,53.57,0,0,1,.46,6.45c0.05,5.21-.1,10.4,0,15.6a47.58,47.58,0,0,0,2.11,13.47c0.6,1.87,2.19,5.56,3.46,4.74,0.34-1.6-.64-2.66-1-3.87s-0.78-2.37-1.16-3.57c-0.27-1.61,3.22,3.84,4.58,5.88a36.62,36.62,0,0,0,6.88,7.63,109.64,109.64,0,0,1,9.52,8.79,29.21,29.21,0,0,1,8,16.33,8.94,8.94,0,0,1-2.56,7.89q-4.21,4.29-8.55,8.42c-1.21,1.15-2.77,2.21-1.79,4.19,0.72,0.71,2.37-2.34,3.56-3.45s2.29-2.09,3.45-3.11l0.45,0.31-1.64,4.89c-1.7,5.25-3.46,10.48-5.13,15.75-1.35,4.27-2.73,8.53-3.87,12.86a96.24,96.24,0,0,0-2,9.86,14.34,14.34,0,0,0,.18,4.31,5,5,0,0,0,6.12,4.23,13.36,13.36,0,0,0,8-4.93c1.81-2.11,3.67-4.21,5.56-6.26a1.58,1.58,0,0,0,.38-2.13c-2-3.31-1.92-7-1.91-10.7a38.65,38.65,0,0,1,4.84-17.9,17.94,17.94,0,0,1,4.28-5.33c-0.1,3.19-.75,6.13,1.45,9.2a20.55,20.55,0,0,0,.26-3c-0.55-6.79,2.41-12.26,6.41-17.35q5.6-7.18,11.12-14.42a22.12,22.12,0,0,0,3.82-7.43,2.22,2.22,0,0,1,1.68-1.8c3-.7,4.39-3,5-5.62a15.38,15.38,0,0,0-.8-9.65,4.84,4.84,0,0,0-.6-0.79c-1.19.29-1,1-.72,1.85a15.06,15.06,0,0,1,.75,6.86,10.79,10.79,0,0,1-.82,3,5.46,5.46,0,0,1-6.05,2.78c-2-.53-3.33-2.19-3.12-4.81,0.22-2.86.8-5.68,1.27-8.52,0.27-1.65.59-3.3,0.9-5a8.8,8.8,0,0,0-2-7.17c-0.57-.74-1.09-1.5-1.65-2.26a1.13,1.13,0,0,1,.38-0.22c6.94,1.16,14,2,20.37,5.17a27.32,27.32,0,0,1,9.2,7.18,15.13,15.13,0,0,1,2.85,14.9c-1.06,3.34-2.1,6.73-3.48,10A31.33,31.33,0,0,0,614,288.1a20.36,20.36,0,0,1,0,4.08,12.89,12.89,0,0,1-1.31,3.79,2.13,2.13,0,0,1-2.49,1,2,2,0,0,1-1.65-2.07q0-2.15.16-4.29c0.15-2.06.46-4.12,0.55-6.19,0.05-1.25-.48-3.57-1.72-3.82-1.51,0-.3,2.11-0.16,2.88a11.11,11.11,0,0,1-2.77,9.53,72.12,72.12,0,0,0-11.06,17.07,58.41,58.41,0,0,0-2.82,7.39,16.44,16.44,0,0,0,.79,10.82,5.84,5.84,0,0,0,5.53,3.94,67.28,67.28,0,0,0,8.12-.38c4.83-.53,8.37-3.2,11.33-7A48.58,48.58,0,0,0,624,310.26c3.24-9.54,6.45-19.1,9.76-28.61,1.1-3.16,2.52-6.23,3.83-9.32,0.31-.71.76-1.36,1.34-2.4,0.27,1.25.26,2.66,0.74,3.44,0.63,0.5.76-1.15,0.87-1.54,0.82-2.93,1.58-5.86,2.43-8.78A85.73,85.73,0,0,1,649,248.68a101.58,101.58,0,0,1,11.76-18.36c3.31-4.09,6.78-8.1,11.18-11.14,0.65-.45,1.23-1,1.88-1.47,4.29-2.93,8.78-4.13,13.74-1.57A11.22,11.22,0,0,1,693.75,228.41Z" transform="translate(-101.01 -104.56)"/><path class="cls-3" d="M687.58,216.14c-5-2.56-9.45-1.36-13.74,1.57-0.65.45-1.23,1-1.88,1.47-4.4,3-7.87,7-11.18,11.14A101.58,101.58,0,0,0,649,248.68,85.73,85.73,0,0,0,642.93,263c-0.85,2.92-1.61,5.85-2.43,8.78-0.11.4-.25,2-0.87,1.54-0.48-.78-0.46-2.18-0.74-3.44-0.57,1-1,1.69-1.34,2.4-1.31,3.09-2.73,6.16-3.83,9.32-3.31,9.52-6.52,19.07-9.76,28.61a48.58,48.58,0,0,1-7.48,14.65c-3,3.76-6.5,6.43-11.33,7a67.28,67.28,0,0,1-8.12.38,5.84,5.84,0,0,1-5.53-3.94,16.44,16.44,0,0,1-.79-10.82,58.41,58.41,0,0,1,2.82-7.39A72.12,72.12,0,0,1,604.58,293a11.11,11.11,0,0,0,2.77-9.53c-0.14-.76-1.35-2.84.16-2.88,1.24,0.25,1.77,2.56,1.72,3.82-0.08,2.07-.4,4.13-0.55,6.19q-0.16,2.15-.16,4.29a2,2,0,0,0,1.65,2.07,2.13,2.13,0,0,0,2.49-1,12.89,12.89,0,0,0,1.31-3.79,20.36,20.36,0,0,0,0-4.08A31.33,31.33,0,0,1,616.43,274c1.38-3.23,2.41-6.63,3.48-10a15.13,15.13,0,0,0-2.85-14.9,27.32,27.32,0,0,0-9.2-7.18c-6.39-3.16-13.43-4-20.37-5.17a1.13,1.13,0,0,0-.38.22c0.56,0.76,1.08,1.53,1.65,2.26a8.8,8.8,0,0,1,2,7.17c-0.31,1.66-.63,3.31-0.9,5-0.46,2.84-1,5.66-1.27,8.52-0.2,2.62,1.08,4.28,3.12,4.81a5.46,5.46,0,0,0,6.05-2.78,10.79,10.79,0,0,0,.82-3,15.06,15.06,0,0,0-.75-6.86c-0.26-.8-0.46-1.57.72-1.85a4.84,4.84,0,0,1,.6.79,15.38,15.38,0,0,1,.8,9.65c-0.6,2.64-2,4.92-5,5.62a2.22,2.22,0,0,0-1.68,1.8,22.12,22.12,0,0,1-3.82,7.43q-5.52,7.24-11.12,14.42c-4,5.1-7,10.57-6.41,17.35a20.55,20.55,0,0,1-.26,3c-2.19-3.07-1.54-6-1.45-9.2a17.94,17.94,0,0,0-4.28,5.33,38.65,38.65,0,0,0-4.84,17.9c0,3.69-.12,7.39,1.91,10.7a1.58,1.58,0,0,1-.38,2.13c-1.89,2-3.75,4.14-5.56,6.26a13.36,13.36,0,0,1-8,4.93,5,5,0,0,1-6.12-4.23,14.34,14.34,0,0,1-.18-4.31,96.24,96.24,0,0,1,2-9.86c1.15-4.32,2.52-8.59,3.87-12.86,1.66-5.26,3.42-10.5,5.13-15.75l1.64-4.89-0.45-.31c-1.16,1-2.33,2-3.45,3.11s-2.84,4.16-3.56,3.45c-1-2,.57-3,1.79-4.19q4.34-4.13,8.55-8.42a8.94,8.94,0,0,0,2.56-7.89,29.21,29.21,0,0,0-8-16.33,109.64,109.64,0,0,0-9.52-8.79,36.62,36.62,0,0,1-6.88-7.63c-1.36-2-4.85-7.48-4.58-5.88,0.38,1.2.76,2.39,1.16,3.57s1.39,2.28,1,3.87c-1.27.82-2.86-2.88-3.46-4.74a47.58,47.58,0,0,1-2.11-13.47c-0.12-5.19,0-10.39,0-15.6a53.57,53.57,0,0,0-.46-6.45c-0.41-2.93-1.25-3.63-4.14-3.33a44.63,44.63,0,0,0-6.15,1.08c-3.74.89-7.48,1.76-11.14,2.9-3,.94-5.33,2.9-5.64,6.23-0.76,7.88-1.21,15.76.07,23.68a47.46,47.46,0,0,0,6.11,16.52,4.73,4.73,0,0,1,.56,4.31c-0.71,1.88-1.5,3.71-2.32,5.53-3.71,8.21-9,15.5-13.74,23.07C486.4,299,480.11,306.38,474,313.88a85.15,85.15,0,0,1-10.35,10.33,10.17,10.17,0,0,1-4.89,2.37c-3.23.6-6.35,0-9.5-.48a6.74,6.74,0,0,1-2-.85c-3.41-1.84-4.62-5-4.87-8.57-0.23-3.76,1.23-6.87,4.59-8.57a72.16,72.16,0,0,1,9.58-3.71c3.87-1.3,7.8-2.39,11.7-3.57,5.66-1.72,9.82-5.64,13.71-9.76a44.37,44.37,0,0,0,8.12-12.68,29.88,29.88,0,0,0,2.73-14c-0.25-3.64-1.13-7.25-1.74-10.88a29.23,29.23,0,0,0-4.36-11.33c-3.27-5-7.46-8.3-13.8-7.87-0.4,0-.79-0.05-1.2-0.05a38.87,38.87,0,0,0-14.14,2.14,30,30,0,0,0-5.55,2.84,66.54,66.54,0,0,0-8.36,6c-3.11,2.79-4.65,6.65-5.89,10.58-0.37,1.16-.57,2.44-1.85,3.33a5.13,5.13,0,0,1-.44-1.77c0.25-1.62.64-3.22,1-4.83a1,1,0,0,0-.49-0.05,1.59,1.59,0,0,0-.6.35c-4.4,4.32-8.74,8.68-11.91,14.06a12.32,12.32,0,0,1-2,2c-3.84-1.65-6.46-3.94-6.82-8a15.54,15.54,0,0,1,.19-3.82c0.6-3.48,1.47-6.9,2-10.39a29.77,29.77,0,0,0,.25-7.62c-0.53-4.27-4.92-6.73-9.24-5.4a30.5,30.5,0,0,1,1.51,3,1.33,1.33,0,0,1-.37,1.2,1.32,1.32,0,0,1-1.21-.27,14.84,14.84,0,0,1-1.31-1.7,4.25,4.25,0,0,0-6-1,7.91,7.91,0,0,0-3.54,3.79c-0.9,2.32-1.89,4.58-2.7,6.93-1.59,4.59-2.56,9.34-1.61,14.15a99.63,99.63,0,0,0,3,10.61,10.58,10.58,0,0,0,1.51,2.43c0.34,0.52.72,1,1,1.32-0.78,1.28-1.47,2.33-2.09,3.42-1.16,2.1-2.28,4.23-3.41,6.34-1.68,3.09-3.56,6.09-5,9.31a66.78,66.78,0,0,1-6.27,11.57,7,7,0,0,1-2.28,2.07c-2.44,1.35-4,.46-4.29-2.32-0.3-3-.72-6-0.16-9.08a38.38,38.38,0,0,0,.65-5.71c0.22-7.59.57-15.21-.57-22.75a77,77,0,0,0-1.85-9.67c-2-7.23-7.13-12.16-12.87-16.55a2.51,2.51,0,0,0-.87-0.15c0.25,1.3,1,2.73-.72,3.54a16.93,16.93,0,0,1-1.06-2c-1.47-3.94-4.58-5.13-8.41-5-3,.12-5.9.35-8.85,0.67A88.51,88.51,0,0,0,322,241.59a3.55,3.55,0,0,1-.25-1c0.14-5.52.34-11,.45-16.55,0.11-5.11.26-10.24,0.14-15.35-0.14-5.44-.59-10.87-0.87-16.29-0.25-4.64-.46-9.27-0.71-13.89a15.14,15.14,0,0,0-.34-1.91,12.65,12.65,0,0,0-2.29,3.6c-0.52,1.21-.91,2.48-1.46,4-0.9-1.42-1.1-2.54-.53-3.71a48.49,48.49,0,0,1,2.43-4.65c1.55-2.43,3.26-4.73,4.91-7.1a8.2,8.2,0,0,0,1-6.9c-1-4.4-2.39-5.23-6.82-4.5l-0.49.07c-4.2.55-8.38,1.27-12.64,0.57a9.07,9.07,0,0,0-1.92-.05c-8.92.4-16.59-2.9-23.57-8.11-3.71-2.77-7.24-5.77-10.87-8.68-0.49-.4-0.94-0.87-1.46-1.24-3.68-2.69-7.29-5.48-11.08-8a98,98,0,0,0-9.19-5.18c-5.77-3-11.56-5.89-18.19-6.49-2.88-.26-5.73-0.65-8.57-1a27.69,27.69,0,0,0-14.56,2.1,84.4,84.4,0,0,0-11.52,6.35,41.29,41.29,0,0,0-15.79,17.64,16.72,16.72,0,0,0-1.62,5.73c-0.16,1.73-.31,6.6-1.21,5.41-0.68-.93.07-3.94-0.49-4.72-1.79,1.61-3.68,6-4.49,8-1.34,3.26-2.69,6.52-4.21,9.68-1.64,3.38-3.54,6.63-5.22,10a5.65,5.65,0,0,0-.59,3,3,3,0,0,0,1.27,2.1c1.79,0.86,3.71,1.51,5.75.71,0.61-1.74,0-3.19-.82-4.61-0.5-.9-0.55-1.66.72-2.06a5.68,5.68,0,0,1,2,4.43c-0.11,2.94-.37,5.89-0.71,8.82-0.2,1.66-.74,3.27-1,4.93a38.12,38.12,0,0,0-.8,6.18c0,3.15,2.1,4.36,5,3.16a3.7,3.7,0,0,0,2.43-3.54c0.05-1.68,0-3.35,0-5,0-4.92,1.94-8.79,6.41-10.91a5.82,5.82,0,0,0,3.76-5.78,1.47,1.47,0,0,1,1-1.73c1.42,1.2.53,2.71,0.37,4a21,21,0,0,1-1.45,4,20.31,20.31,0,0,1,2.06,0c2.37,0.27,4.76.56,7.13,0.86a2.67,2.67,0,0,1,2.56,2.93,19.27,19.27,0,0,1-.7,5.41A56.56,56.56,0,0,0,192,208.12a25.38,25.38,0,0,0,.19,5.47,5.16,5.16,0,0,0,1,2.11,3.3,3.3,0,0,0,3.84,1.24,3.17,3.17,0,0,0,2.36-3c0.38-3.18-.4-6.22-1.25-9.22a10.7,10.7,0,0,1-.11-6.82c0.46-1.27.55-2.67,0.93-4a12,12,0,0,0-.91-8.62c-1.31-2.9-2.33-5.93-3.48-8.92-1.35-3.46-1.27-7.06-.89-10.66A59,59,0,0,1,199,146.9c1-2.24,2.36-4.34,3.59-6.48a15.24,15.24,0,0,1,1.17-1.59c-2.44-1.68-1.94-3.91-1.35-6.13a1.61,1.61,0,0,1,1-1c0.85,0,.82.8,0.71,1.47,0,0.23-.11.46-0.15,0.71-0.42,2.71.14,3.44,2.84,3.19a14.46,14.46,0,0,0,3.87-1.12c1.5-.57,2.9-1.35,4.39-2a12.71,12.71,0,0,1,2.06-.56,2.16,2.16,0,0,1,2.7,1.46,5.75,5.75,0,0,1,.26,3,23.25,23.25,0,0,1-1.69,4.21,58.87,58.87,0,0,0-5.55,16.56c-0.48,3.08-.78,6.19.33,9.26a3.31,3.31,0,0,0,2.21,2.32,3.21,3.21,0,0,0,4.27-2.07,22.8,22.8,0,0,0,1.21-6.31c0.12-4.16-.14-8.32-0.16-12.49a15.31,15.31,0,0,1,.38-4c0.72-2.69,2.18-4.88,5.17-5.4a9.25,9.25,0,0,1,3.52,0c5.21,1.21,10.28,1.39,15.24-1a17.57,17.57,0,0,1,3.67-1.12,6.08,6.08,0,0,1,1.76.12,1.56,1.56,0,0,1-1.58,1.69,11.81,11.81,0,0,0-5.52,2c0.64,0.45,1.06.79,1.51,1.1,1.53,1,3,2.07,4.55,3.12,2.55,1.79,5.17,3.5,7.61,5.43a9,9,0,0,1,3.57,8.25,25.42,25.42,0,0,1-1.28,5.34c-1.12,3.5-2.4,6.94-3.52,10.44a7,7,0,0,0,.25,4.95c0.68,1.58,2,2.24,3.5,1.4a10.23,10.23,0,0,0,3.14-2.84c1.34-1.87,1.16-4.08.86-6.26a56.83,56.83,0,0,1-.65-6.43c-0.15-6.63,4.5-10.16,8.94-13.85,1.08,0.89,1.1,1.68.2,2.51l-3.57,3.38c0.7,0.29,1.12.5,1.55,0.64,3.9,1.23,7.78,2.49,11.7,3.63,3.14,0.9,4.93,2.85,5.22,6.09a8.76,8.76,0,0,1-.12,3.33,74.47,74.47,0,0,1-3.2,9c-2.56,5.59-5.37,11.07-8.14,16.58a44.26,44.26,0,0,0-4.64,18,2,2,0,0,1-1,2.06c-2-2.63,0-5.44-.44-8.11a13.7,13.7,0,0,0-1.38,2c-2.09,3.12-4.09,6.31-6.34,9.3-2,2.6-4.4,4.88-6.33,7.53a26.79,26.79,0,0,0-3,6,3.23,3.23,0,0,0,1.2,4c1.08,0.78,2.78.6,4.25-.46,0.53-.38,1-1.69,1.55-1.25,0.82,0.76-.26,1.88-0.78,2.18-1.69,1-3.2,1.74-5.34,2.71-0.12.49-.42,1.39-0.63,2.33a2.46,2.46,0,0,1-2,2.11c-4,1-8,2.32-12.11,3a130.75,130.75,0,0,1-21.27,1.87c-0.8,0-1.61,0-2.4.11-3.44.26-6.86,0.71-10.29,0.78A137.38,137.38,0,0,0,182.73,254c-4.4.82-8.74,1.94-13.16,2.67a71.2,71.2,0,0,0-21.84,7c-1.84,1-3.6,2.09-5.45,3a45.6,45.6,0,0,0-13.82,11,117.28,117.28,0,0,0-9.32,12.77,22.72,22.72,0,0,0-2.52,6.94,6.52,6.52,0,0,0,.63,3.44,2.14,2.14,0,0,0,2.54,1.35,3.69,3.69,0,0,0,1.66-1.81,10.14,10.14,0,0,0,.5-2.09c0.7-2.29,1.24-4.66,2.88-6.53,0.75-.86,1.54-1.73,3.16-1.49,0.57,0.25-.6,1-0.9,1.36a14.17,14.17,0,0,0-3.42,6.8c-0.57,2.59-1.31,4.95-4.16,5.94,0,3.39-.19,6.6,0,9.77,0.27,3.83.83,7.63,1.38,11.42a6.62,6.62,0,0,0,2.51,4.4c1-1.94-1.15-3.84.42-6.2,1.1-1.55,1.09,2,1.24,2.75a20.69,20.69,0,0,1,.35,4.29c-0.11,3.2-.37,6.38-0.6,9.57a9.68,9.68,0,0,0,2.22,6.68c2.15,2.86,4.74,3.61,8.23,2.33,0.71-4.23,1.06-8.42-1.16-12.38,0-.07-1.24-1.62.26-1.47a1.56,1.56,0,0,1,1.15.6,9.55,9.55,0,0,1,1.83,5.38,81.92,81.92,0,0,1-.29,8.38,40.73,40.73,0,0,1-2.82,10.63,19.43,19.43,0,0,0-1.45,8.7,4.58,4.58,0,0,0,5.08,4.29,5,5,0,0,0,4.57-3.39,30.82,30.82,0,0,0,1.25-6.31c0.29-2.86.26-5.74,0.44-8.63A10.29,10.29,0,0,1,147,348.3c0.4-.38,1.74-1.79,1.8-1-0.1,1.23-.14,2-0.19,2.75,5.9,4.16,12.35,6,18.62,4.83-0.53-.41-0.93-0.75-1.35-1-1.59-1.21-3.2-2.4-4.81-3.6-0.85-.63-0.91-1.24.18-1.91,2.07,1.43,4.12,3,6.3,4.29a17.17,17.17,0,0,1,5.45,5.3c1.64,2.47,3.33,4.91,4.95,7.38A4.32,4.32,0,0,0,183.2,367a9,9,0,0,0,2.6-1.19,14.61,14.61,0,0,0,5.26-6.39c0.93-2.22,1.84-4.46,2.9-6.6a39.91,39.91,0,0,1,2.73-4.5,5.71,5.71,0,0,1,1.5-1.1c1.23,2.25-2,2.74-1.32,4.68,1.88-.87,3.71-1.66,5.48-2.55,1.43-.71,3.18-1.1,3.31-3.3,1.8,1,1.91,2.55,1.94,4,0.07,2.89-1,5.49-2.07,8.08a71.52,71.52,0,0,0-4,15.79,11.24,11.24,0,0,0,.15,3.08,3.1,3.1,0,0,0,2.48,2.62,6.28,6.28,0,0,0,8.18-4.2,10.44,10.44,0,0,0,.42-3.31c-0.05-3.35-.16-6.72-0.37-10.07-0.23-3.67-.61-7.31-0.86-11a8.85,8.85,0,0,1,1.87-5.85,39.58,39.58,0,0,1,9.54-9c3.48-2.41,7.09-4.62,10.59-7,1.79-1.21,3.42-2.64,5.18-3.9a3.17,3.17,0,0,0,1.38-3.33c-0.26-1.66-.56-3.31-0.82-5-0.12-.8-0.5-1.7.75-2.58a13.47,13.47,0,0,1,1.13,2.6,47.44,47.44,0,0,1,.68,16.47q-1.7,10.31-3.63,20.57a22.46,22.46,0,0,0,.94,11.11,6.1,6.1,0,0,0,3.38,3.83A8.54,8.54,0,0,0,254,364.8a12.42,12.42,0,0,0,1-7.28c-1-5.51-2.18-11-3.24-16.5-0.41-2-.79-4.06-1.12-6.11s-0.55-4-.82-5.94c-0.74-5.51-.93-11,0.87-16.39,0.26-.78.22-1.79,1.65-1.77,0.2,3-1.87,5.75-.83,8.7,2.36,0.33,4.19-1.09,4.64-3.67a21.69,21.69,0,0,0,.08-8.59,18.67,18.67,0,0,1,.9-11.78,50.49,50.49,0,0,1,2.67-5.37,92.93,92.93,0,0,1,5-7.92,67.57,67.57,0,0,0,9-17.42c0.61-1.74,1.3-3.57,4.76-2.78,0-1.47-.78-2-1-2.69s-0.85-1.13-.19-1.74c0.83-.76,1.39.42,1.66,1.2a21.41,21.41,0,0,1,1.61,7.48c0,2.79-.07,5.59-0.22,8.4-0.15,3.19-.5,6.37-0.6,9.57a9.41,9.41,0,0,0,.68,3.49,2.08,2.08,0,0,0,1.51,1.23,2.69,2.69,0,0,0,1.92-1.12,4.59,4.59,0,0,0,.49-2.52,36.28,36.28,0,0,0-.55-4.53,27.43,27.43,0,0,1,1-13c2-6.53,7.57-8.6,13.41-7.21a3.73,3.73,0,0,1,3,3.61,22.93,22.93,0,0,1,0,3.35c-0.25,5.28-.64,10.55-0.78,15.83a135.15,135.15,0,0,1-4,28.23,14.64,14.64,0,0,0,.15,8.52,4.1,4.1,0,0,0,4.81,3,7.9,7.9,0,0,1,2.09-.3c2.29,1.24-3.11,1.55-4.55,2.47,0.08,0.65.12,1.28,0.26,1.89a131.63,131.63,0,0,1,2.84,14.57,102.62,102.62,0,0,1-1,29.39,58.66,58.66,0,0,0-.71,10.5,4.68,4.68,0,0,0,9.37,0,24.26,24.26,0,0,0-.52-5.68c-0.45-2.34-1.43-4.62-1.66-7a62.6,62.6,0,0,1,1.3-17.89,5.41,5.41,0,0,1,1.85-3.56,2,2,0,0,1,.5,2.25c-0.27.85-.4,1.74-0.72,2.55-0.89,2.19-.19,3.89,1.58,5.25,2.74,2.09,5.36,4.36,8.26,6.18a16.3,16.3,0,0,0,9.8,2.7c1.68-.12,2.14-0.8,1.54-2.39-0.83-2.17-1.79-4.28-2.69-6.43a22.6,22.6,0,0,1-1.34-3.33c-1.4-5.58-2.92-11.14-4-16.78s-1.88-11.67-2.82-17.5c-0.23-1.43-.56-2.86-0.87-4.46-1.35,1.36-1.3,3.07-3.29,4.36-1.31.34,0.44-2,.67-2.75a23.51,23.51,0,0,0,1-3.2,84,84,0,0,0,1.27-16c-0.3-7.12-.7-14.22-0.91-21.33-0.11-3.44,0-6.88.19-10.32a13.81,13.81,0,0,1,3-7.93,4.1,4.1,0,0,1,4.27-1.59c1.58,0.41,1.45,2.13,1.61,3.44a6.93,6.93,0,0,1-.12,1.91c-0.2,1.35-.45,2.69-0.68,4a34.53,34.53,0,0,0-.05,12.19,14,14,0,0,0,.93,3.22c0.82,1.88,2.34,2.29,4.13,1.3a4,4,0,0,0,1.94-3.65,66.88,66.88,0,0,0-.26-10.06,87.13,87.13,0,0,1-.55-12.21,8.54,8.54,0,0,1,1.7-4.89c0.94-1.35,2.09-2.22,3.82-1.89a4.21,4.21,0,0,1,3.11,3.57,16.46,16.46,0,0,1-.25,3.56c-0.25,2-.65,3.94-0.8,5.93-0.1,1.43.55,2.14,1.59,2.26s1.95-.59,2.19-2a18.31,18.31,0,0,0,.23-3.12,13.5,13.5,0,0,1,2.62-7.59,3.94,3.94,0,0,1,2.49-2c1.12,1.47-.85,1.88-0.89,2.85,0.45,1.17.93,2.26,1.31,3.39a19.78,19.78,0,0,1,.22,10.91c-1.12,4.91-2.49,9.75-3.8,14.61-1,3.71-2,7.4-3.07,11.11-0.71,2.45-1.57,4.88-2.11,7.38-1.24,5.7-2.36,11.44-3.45,17.18a59.83,59.83,0,0,0-1,7.13c-0.16,2-.12,4.08,1.31,5.78,1.57-1.25.56-3.71,2.94-5,1.42-.52-0.15,2.51-0.4,3.48-0.33,1.31-.93,2.55-1.31,3.86-1,3.23-1.21,6.42.35,9.58,1,2.09,2.67,3,5.13,3-0.12-2.56,0-4.93-1.58-7a1.54,1.54,0,0,1-.08-1.43c0.59-.68,1.28-0.15,1.54.41a14.16,14.16,0,0,1,1.65,4.42,94.27,94.27,0,0,1,.08,9.82A31.65,31.65,0,0,0,348,362.93c0.59,1.77,1.8,2.79,3,2.74s2.58-1.36,3-3a5.07,5.07,0,0,0,.22-1.17c0-2.56.14-5.13,0-7.66-0.19-3.75-.68-7.5-0.8-11.25a18.07,18.07,0,0,1,.79-4.69c0.08-.37.93-2.79,1.42-1.34-0.33,3.34-1,6.05-.3,9.07,2.14-.9,4.12-1.69,6.08-2.55a36.88,36.88,0,0,0,12.11-8.49c2.43-2.58,2.3-3.53.55-7.08-0.11-.2-1-1.61-0.4-1.81a3.72,3.72,0,0,1,1.39.27,2.87,2.87,0,0,1,.78,1.2,13,13,0,0,1,1.36,6,104.26,104.26,0,0,1-1.8,15.94,16.23,16.23,0,0,0-.26,4.06,2.83,2.83,0,0,0,2.07,2.64,2.89,2.89,0,0,0,3.24-1.49,7.18,7.18,0,0,0,.6-1.55,37.58,37.58,0,0,0,.6-18.53c-0.8-4.24-1.83-8.47-1.74-12.81a28,28,0,0,1,.59-4.5,0.9,0.9,0,0,1,1.51-.64c0.25,1.51-.61,3.16.25,5.11,0.59-1.21,1-2.06,1.4-2.92,2.55-5.86,4.85-11.86,7.72-17.56,3-6,6.48-11.76,9.84-17.57a52.92,52.92,0,0,1,3.57-4.79,23,23,0,0,0,11.68,5.94c-0.53,2.13-1,4-1.47,6-0.68,2.79-1.3,5.62-2.09,8.37-0.85,2.92-1.91,5.77-2.79,8.68a18,18,0,0,0-.75,9.22,3.63,3.63,0,0,0,4,3.08c2.28,0,3.45-.91,4-3.07a22.78,22.78,0,0,0,.27-2.39,1,1,0,0,1,1.16-1.15c1.3,2.82-.2,6-3.87,8.34,0.07,4.13,6.33,14.31,11.44,16.84a3,3,0,0,0-.67-2.81c-1.28-1.83-2.6-3.64-3.94-5.44-0.55-.72-0.93-4,0.9-1.69s3.69,4.84,5.41,7.35c2.48,3.6,2.18,7.83.71,12.09a21.59,21.59,0,0,0,.87,15.94,9.57,9.57,0,0,0,2.63,3.33c1.36,1.15,2.82.87,4-.45a6.85,6.85,0,0,0,1.77-5.3,16.63,16.63,0,0,0-.56-3.79c-1-3.14-1.95-6.27-3.11-9.32-1.43-3.79-.78-7.61,1.91-9.8,1.62,1.23-.89,2.94,0,4.53,1.12,0.19,3.3.57,4.54,0.74,5.17,0.67,10.31,1.4,15.54.45,3.91-.72,4.59-1.72,3.29-5.49a3.54,3.54,0,0,0-.33-0.64c-0.34-.56-0.38-1.19.3-1.35a1.65,1.65,0,0,1,1.31.64,6.1,6.1,0,0,1,.91,4.61c-0.3,1.72-.71,3.44-1.1,5.15a74.21,74.21,0,0,0-1.64,7.25,23.15,23.15,0,0,0,.12,6.65,4.31,4.31,0,0,0,4.95,3.53c2.34-.3,3.27-1.45,3.29-4.43,0-3.45,0-6.88-.2-10.32-0.2-4.38.72-8.25,4.23-11.22,1.34-1.15,1.47-2.67.57-4.34-0.34-.6-0.79-1.15-1.16-1.68,0.78-1,1.62-.8,2.07-0.11a8,8,0,0,1,1.21,3c0.46,2.77-.6,5.34-1.3,8a25.76,25.76,0,0,0-.9,5.66,2.86,2.86,0,0,0,3.08,3.19,4.15,4.15,0,0,0,3.89-3.9,11.87,11.87,0,0,0-.14-2.86,19.71,19.71,0,0,1,4.93-17.12c1.94-2.22,4.13-4.23,6.24-6.28s3.75-4.32,3.83-7.47a19.44,19.44,0,0,1,.7-4.5c0.68-2.47,1.45-4.91,1.25-7.53-0.05-.8.22-1.42,1.5-1.34,0.48,0.26.33,1.49,0.25,2.21-0.18,1.76-.52,3.48-0.76,5.22-0.31,2.13-.72,4.25-0.87,6.39s1,2.84,2.85,2.14a4.8,4.8,0,0,0,2.07-1.51,10.9,10.9,0,0,0,2.41-5.17,78.63,78.63,0,0,0,.85-8.34,20.48,20.48,0,0,1,3.14-10.92c1.55-2.51,3.22-5,4.81-7.44,2.25-3.5,4.5-7,6.68-10.54,1.25-2,2.43-4.14,3.54-6.27,0.76-1.45.68-1.51-.79-2.66-0.15-.11-1-1.8,2.06-1.1,3.5,0.79,7,1.49,10.5,2.52a9.79,9.79,0,0,1,5.36,3.86c2.47,3.6,1.35,7.44-.71,10.29-2.79,3.9-5.71,7.72-8.66,11.49a82.21,82.21,0,0,0-7.72,12.43,8.81,8.81,0,0,0-.41,1.54c1.76-.56,2.44-2.47,4.43-2.4,1.45,0.15-1.87,2.59-2.94,3.6a35.37,35.37,0,0,0-8.79,11.57c-3.29,7.42-3.07,14.94-.86,22.55a3.68,3.68,0,0,0,.8,1.35,28.6,28.6,0,0,1,.5-3.07,1.24,1.24,0,0,1,1-1,1.52,1.52,0,0,1,.68.82,3.32,3.32,0,0,1,0,1.42,32.33,32.33,0,0,1-1.46,5.78,62.48,62.48,0,0,0-3.94,14.31,28.56,28.56,0,0,0,0,7.16c0.14,1.5.78,3,2.56,3.42a4.21,4.21,0,0,0,4.43-1.74,4.82,4.82,0,0,0,1.15-3.56c-0.08-1-.26-1.92-0.33-2.86-0.26-3.83-.6-7.66-0.71-11.51a11.18,11.18,0,0,1,.89-3.67c0.1-.3,1.66-2.54,1.61-0.8a13.29,13.29,0,0,0-.78,2.82c0,1.32-.23,2.93.41,3.9a23.74,23.74,0,0,0,4.57,4.87,11.08,11.08,0,0,0,5.52,2.41c-0.76-1.59-1.79-3.2-1.51-3.86,0.52-1.24,1-.7,1.45,0,0.85,1.45,1.53,3,2.36,4.44a83.42,83.42,0,0,0,4.5,7.62c2.49,3.49,6.73,3.64,9.72.6a17.44,17.44,0,0,0,4.31-8.17c0.44-1.7,1-3.38,1.53-5.06a1.25,1.25,0,0,1,1.88-.93c-0.15,2.15-2.09,3.9-1.34,6.11a1,1,0,0,0,1,.22c3.91-.38,6.39-2.71,8-6.08a24.87,24.87,0,0,0,1.28-4.12,17.58,17.58,0,0,1,4-6.79c1.31-1.5,2.17-1.4,3.54.12a16.43,16.43,0,0,0,1.08,1.3c2.15,1.95,4.46,3.56,7.63,3.2-0.05-.35-0.85-1.8-0.15-2.32s1.17,0.1,1.61.56a9.4,9.4,0,0,1,3,6.6,38,38,0,0,1-.23,4.31c-0.33,2.78-.85,5.55-1.06,8.34a23.55,23.55,0,0,0,.23,5.71c0.4,2.21,1.94,2.77,4,1.85a5,5,0,0,0,3.3-4.34,31.36,31.36,0,0,0,.05-4.53c-0.12-2.07-.49-4.13-0.63-6.2a16.37,16.37,0,0,1,2.3-9.43,3,3,0,0,1,2.85-1.81,2.08,2.08,0,0,1,.63.42c-0.22.67-.44,1.3-0.78,2.29,6.68,0,12.58-2.11,18.43-4.31a3,3,0,0,1,.34,2.89,27.43,27.43,0,0,0-1.16,5.85,83.09,83.09,0,0,1-4.93,24.85c-0.85,2.41-1.95,4.74-2.82,7.14a25.73,25.73,0,0,0-1.72,12.49c0.53,3.82,2.84,4.89,6.11,2.94,0.33-.22.65-0.46,1-0.71a9.37,9.37,0,0,0,3.53-5.56c0.16-.71,0-1.79,1.28-2.15,0.57,0.11.34,1,.27,1.46-0.68,4.29-3,8.6-8,9.79a3.33,3.33,0,0,0-2.71,2.58c-0.65,2-1.36,4.09-2.15,6.08-0.6,1.47-1.36,2.88-2.06,4.32-4,8.27-9.3,15.34-17.69,19.55-4.91,2.47-10,4.21-15.69,3.3-4.66-.76-8.85-2.63-11.81-6.31a51.17,51.17,0,0,1-9.08-16.54c-0.9-2.85-2-5.64-3-8.56a2.71,2.71,0,0,0-.63.56c-1.57,3.5-3.44,6.82-4.39,10.62-2,8-.53,15.36,3.29,22.45A18.64,18.64,0,0,1,543,457.83a11.76,11.76,0,0,0,.5,7.31,4.53,4.53,0,0,0,3.78,3c0.82-1.39,1.7-2.63,2.33-4,1.46-3.22,2.88-6.46,2.39-10.16a2,2,0,0,1,0-.94,1.29,1.29,0,0,1,.71-0.79,1.06,1.06,0,0,1,.89.55,6.82,6.82,0,0,1,.23,2.6,43.57,43.57,0,0,1-1.65,6.72,40.14,40.14,0,0,1-3.07,6.24c-1.68,2.92-1.91,6-1.76,9.28,0.25,4.94,6.69,8.06,10.62,5.25a12,12,0,0,0,4.21-5.1c1.43-3.3,1.24-6.69.52-10.12-0.42-2-.83-4.08-1.21-6.12a11.54,11.54,0,0,1,1-6.54,4.79,4.79,0,0,1,1.3-1.66,1,1,0,0,1,1.27-.11,1.65,1.65,0,0,1,0,1.31c-0.41.94-1.06,1.79-1.4,2.74-0.64,1.84-.44,2.34,1.35,2.88a23.63,23.63,0,0,0,10.42,1.06,98.38,98.38,0,0,1,9.77-1.12c5.06-.25,7.36,1.84,8,6.88,0.07,0.46.07,1,.1,1.43,0.35,5.41-.76,10.67-1.58,16a26.56,26.56,0,0,0-.15,8.11,3.65,3.65,0,0,0,3.63,3.5,8,8,0,0,0,7.74-4.24,20,20,0,0,0,1.6-4.74,46.37,46.37,0,0,0,.55-16.45c-0.29-1.89-.48-3.84-0.57-5.71-0.42-7.92,3.76-17.07,4-17.31,1.23-1.66,2.43-3.35,3.78-4.92,0.5-.59,1-1.58,1.95-1.08,0.65,1.43.16,1.8-.53,2.4a14.42,14.42,0,0,0-4.49,6.22,28.33,28.33,0,0,0,4.76-3,56.46,56.46,0,0,0,11.59-12.72c3-4.27,5.53-8.79,8.23-13.24a5,5,0,0,0,.46-1.8c0.41-2.6.7-5.22,1.21-7.8,0.79-3.94,1.91-7.83.38-11.82-0.15-.42-0.33-1.3.18-1.49,1.15-.38,1.73.94,2,1.65a8,8,0,0,1,.57,3.27,64.05,64.05,0,0,1-1,6.63c-0.4,2.21-.93,4.39-1.32,6.58a6.57,6.57,0,0,0,1.83,5.52,3.69,3.69,0,0,0,5.82-.26,7.88,7.88,0,0,0,1.39-4c-0.11-6-.29-12-0.82-18-0.34-3.91-1-7.77-.7-11.71,0.05-.7,0-1.39,0-2.18a9.87,9.87,0,0,1-2.11-.22,17.83,17.83,0,0,1-3.76-1.42c-1-.6-1.47-0.94-0.46-2a0.81,0.81,0,0,1,1,.07c3,3.56,8.67,1.23,9.5-2.92a42.21,42.21,0,0,0,1.12-11.91,26.15,26.15,0,0,1-.12-5.26c0.86-7.63,1.84-15.24,2.77-22.86,0.42-3.42.83-6.83,1.19-10.25,0.11-1,0-1.95,0-3.42-1.58,1.83-2.69,3.46-5,3.12a2.14,2.14,0,0,1,.29-0.79c2.79-2,3.84-5.07,4.64-8.18,0.9-3.56,1.47-7.21,2.36-10.77,2.07-8.25,3.19-16.67,4.44-25A58.05,58.05,0,0,1,663,271c0.71-1.77,1.28-3.61,1.92-5.44a18,18,0,0,1-1.77-2.34,11.4,11.4,0,0,1-1.2-3.09,1.43,1.43,0,0,1,1.47-1.89c0.11,0.78.18,1.46,0.3,2.14a4.14,4.14,0,0,0,2.71,3.39c1.64,0.53,2.9-.34,3.93-1.64a12.5,12.5,0,0,0,2.49-5.9c0.86-5.13,1.5-10.29,2.34-15.42,0.78-4.59,1.77-9.11,4.46-13.07,1.38-2,2.6-4.19,3.89-6.26-1.13-1.54-3.48-.11-4.43-1.87,0.26-1.25,1.17-1.3,2.06-1.23,3.34,0.26,5.14,1.84,6,5.25a13.14,13.14,0,0,1-1.21,8.86c-0.7,1.43-1.61,2.77-2.34,4.19-0.82,1.57-1.66,3.14-1.39,5s1.54,2.6,3.26,1.8a8.4,8.4,0,0,0,3.86-3.49,34.41,34.41,0,0,0,4.43-11.6A11.22,11.22,0,0,0,687.58,216.14ZM199.25,294.42c-5.07-2.48-6.31-7-6.67-12.15,0.25-2.73.8-5.18,3.94-6.13,3.5-1.06,6.93-2.33,10.43-3.39,2.75-.83,5.55-1.51,8.33-2.21a19.33,19.33,0,0,1,3.29-.6,2,2,0,0,1,2.09,3.15,12.27,12.27,0,0,1-2,2.64l-15.27,18.09A3.28,3.28,0,0,1,199.25,294.42Zm-50.59,17.76A9.76,9.76,0,0,1,143,300.51a0,0,0,0,1,0,0c0.12-.45,2.11-7,9.94-14.6l1.15-1.69a16.29,16.29,0,0,1,2.32-1.4c0.05,1.47.12,2.32,0.14,3.16a14.45,14.45,0,0,0,1.53,7c1.57,2.88,3.86,4.63,7.33,4.39,0.61,0,1.25,0,2.17,0a19.5,19.5,0,0,1,.12,2.62c0,0.14,0,.27,0,0.41-0.31,7.81,8.48,7.58,4.69,9.65a5.59,5.59,0,0,1-.57.29,21.08,21.08,0,0,1-2.24.67c-0.26.05-.52,0.11-0.76,0.18-3.18.76-6.33,1.65-9.54,2.25A19,19,0,0,1,148.66,312.18Z" transform="translate(-101.01 -104.56)"/><path class="cls-2" d="M459.27,268.89c-0.29.72-.61,1.44-0.87,2.18a6.59,6.59,0,0,0,2.94,7.62c1.78,0.94,3.39.61,4.15-1.29a30.1,30.1,0,0,0,1.36-5.78c0.29-1.57.45-3.16,0.58-4.75,0.35-4.28,3-7,6.42-9s6.64-.79,8.31,2.78a11.14,11.14,0,0,1,.94,6.79,88.76,88.76,0,0,1-2.64,10.91,20.84,20.84,0,0,1-10.66,12.4c-1.67.86-3.65,1.1-5.45,1.74a24.11,24.11,0,0,1-10.64.92c-3-.3-3.89-1.44-2.81-4.28A54.8,54.8,0,0,1,454,283c0.56-1.05,1.27-2,1.9-3,1-1.66,1.71-3.24.79-5.32-0.84-1.88,0-3.76,1.12-5.41a3.36,3.36,0,0,1,1.07-.68Z" transform="translate(-101.01 -104.56)"/><path class="cls-2" d="M308.8,238.44c-2.65,1.28-4.37-.24-6.35-2.27-0.05,1.73-.1,3-0.12,4.21,0,0.88.07,1.76,0,2.64a2.35,2.35,0,0,1-2,2.35,9.48,9.48,0,0,1-1.17.25q-5,.38-10,0.73c-1.59.11-3.19,0.22-4.78,0.31-1.18.07-2.41,0.3-3.61-.86,1.47-4,3.75-7.77,5.45-11.92a6.16,6.16,0,0,1-1.63-5,1.69,1.69,0,0,1,.88-1.48c0.75,0,.65,1.63.89,2.32a6,6,0,0,0,1.26,2.44,2.17,2.17,0,0,0,3.63-.57,20,20,0,0,0,1.8-5.39c0.39-2.27.3-4.62,0.51-6.93,0.37-4.12,2.68-7.31,5.25-10.3,1.53-1.78,3.3-1.4,4.38.75a15.76,15.76,0,0,1,1.38,8,81.28,81.28,0,0,1-1.07,9c-0.49,3-.44,5.81,1.31,8.52A9.49,9.49,0,0,0,308.8,238.44Z" transform="translate(-101.01 -104.56)"/><path class="cls-2" d="M245.49,259.88a2,2,0,0,0-1.87-1.61,36.74,36.74,0,0,0-5.7-.7c-5,0-10.09,0-15.1.26-4.39.19-8.77,0.61-13.16,1-1.58.12-3.2,0.15-4.77,0.42-5,.89-9.91,1.85-14.86,2.78a5.58,5.58,0,0,1-1.08-.11c1-1.39,3.12-3.24,2.77-3.78a1.51,1.51,0,0,0-2.28.46,45.4,45.4,0,0,0-4.17,5.55c-3,5.13-2.89,10.8-1.91,16.35s2.64,10.87,4,16.29a13.84,13.84,0,0,1,.05,7.12,3.87,3.87,0,0,1-2.62,2.89c-1.45.42-2.44-.55-3.27-1.55a10.58,10.58,0,0,1-2.48-5.63c-0.31-3.26-.79-6.52-0.9-9.79a16.7,16.7,0,0,1,.79-5.88,31.27,31.27,0,0,0,1.84-10.82c0-2.56-.11-5.13-1.27-7.5-1-2.09-2.78-2.45-4.39-.78a6.59,6.59,0,0,0-1.68,2.58,19.43,19.43,0,0,0-.79,8.3c0.31,2,.76,4.09.93,6.16a22.09,22.09,0,0,1-.08,5.45,2.94,2.94,0,0,1-3.41,2.64,3.39,3.39,0,0,1-3.33-3.18,11.62,11.62,0,0,1,.35-3.54c1-4.09,2.55-8.06,2-12.45-0.46-3.63-2.06-4.83-5.62-4.09-5.94,1.24-11.34,3.83-16.78,6.34a20.3,20.3,0,0,0-8.55,7.18,34.52,34.52,0,0,0-6,15.75c-0.4,4.09-.64,8.12.33,12.15a13.57,13.57,0,0,0,3.14,6.39c1.95,2,3.72,4.19,5.79,6A20.29,20.29,0,0,0,153.27,326a105.3,105.3,0,0,0,13-.15,84.83,84.83,0,0,0,21.18-3.93,83.13,83.13,0,0,0,8.51-3.22,68.69,68.69,0,0,0,6.64-3.34,49.38,49.38,0,0,0,13.93-10.85c3.59-4.2,6.83-8.67,10.24-13,0.56-.72,1.16-1.42,1.73-2.13l0.53,0.23c-0.42,3.38-.72,6.76-1.28,10.12s-1.61,6.54-1.77,9.92l0.57,0.19a27,27,0,0,0,1.21-2.74,60,60,0,0,0,2.73-13.62,41.14,41.14,0,0,1,3.84-15.51c1.36-2.79,2.89-5.51,4.38-8.26s3.11-5.6,5.82-7.51A2.21,2.21,0,0,0,245.49,259.88ZM172.37,310a5.59,5.59,0,0,1-.57.29,10.56,10.56,0,0,1-2.24.67c-0.26.05-.52,0.11-0.76,0.18-3.18.76-6.33,1.65-9.54,2.25a19,19,0,0,1-10.59-1.16A9.76,9.76,0,0,1,143,300.51a0,0,0,0,1,0,0c0.12-.45,2.11-7,9.94-14.6,1-1,2.19-2.06,3.46-3.09,0.05,1.47.12,2.32,0.14,3.16a14.45,14.45,0,0,0,1.53,7c1.57,2.88,3.86,4.63,7.33,4.39,0.61,0,1.25,0,2.17,0a19.5,19.5,0,0,1,.12,2.62c0,0.14,0,.27,0,0.41C167.36,308.12,176.15,307.88,172.37,310Zm48.29-36.88a12.27,12.27,0,0,1-2,2.64l-15.27,18.09a3.28,3.28,0,0,1-4.09.6c-5.07-2.48-6.31-7-6.67-12.15,0.25-2.73.8-5.18,3.94-6.13,3.5-1.06,6.93-2.33,10.43-3.39,2.75-.83,5.55-1.51,8.33-2.21a19.33,19.33,0,0,1,3.29-.6A2,2,0,0,1,220.65,273.08Z" transform="translate(-101.01 -104.56)"/></svg>