<svg xmlns="http://www.w3.org/2000/svg" viewBox="0 0 534.4 396" enable-background="new 0 0 534.4 396"><path fill="#fff" d="M489.7 109.6h-434.3c-2.3 0-4.2-1.9-4.2-4.2v-28.2c0-2.3 1.9-4.2 4.2-4.2h434.4c2.3 0 4.2 1.9 4.2 4.2v28.3c-.1 2.2-2 4.1-4.3 4.1zM489.7 261.4h-434.3c-2.3 0-4.2-1.9-4.2-4.2v-28.2c0-2.3 1.9-4.2 4.2-4.2h434.4c2.3 0 4.2 1.9 4.2 4.2v28.3c-.1 2.3-2 4.1-4.3 4.1zM489.7 186h-434.3c-2.3 0-4.2-1.9-4.2-4.2v-28.3c0-2.3 1.9-4.2 4.2-4.2h434.4c2.3 0 4.2 1.9 4.2 4.2v28.3c-.1 2.3-2 4.2-4.3 4.2z"/></svg>