<?xml version="1.0" encoding="utf-8"?>
<!-- Generator: Adobe Illustrator 18.1.0, SVG Export Plug-In . SVG Version: 6.00 Build 0)  -->
<svg version="1.1" id="Layer_1" xmlns="http://www.w3.org/2000/svg" xmlns:xlink="http://www.w3.org/1999/xlink" x="0px" y="0px"
	 viewBox="0 0 612 592" enable-background="new 0 0 612 592" xml:space="preserve">
<g>
	<circle fill="#3E4C4C" cx="306.6" cy="301" r="248.4"/>
	<g>
		<g>
			<g>
				<g>
					<path fill="#D1D3D4" d="M479.1,183.3v206.3c0,3.8-3.1,6.9-6.9,6.9H311.9v-1.3h159.9c3.1,0,5.7-2.6,5.7-5.7V183.9
						c0-3.1-2.6-5.7-5.7-5.7H311.9v-1.9h160.2C475.9,176.4,479.1,179.4,479.1,183.3z"/>
					<path fill="#C9C9C9" d="M149.1,183.9v205.6c0,3.1,2.6,5.7,5.7,5.7h157v1.3H154.6c-3.8,0-6.9-3.1-6.9-6.9V183.3
						c0-3.9,3.1-6.9,6.9-6.9h157.4v1.9h-157C151.7,178.2,149.1,180.8,149.1,183.9z"/>
					<path fill="#414042" d="M477.5,183.9v205.6c0,3.1-2.6,5.7-5.7,5.7H311.9v-15.5h151.2v-186H311.9v-5.7c1.3,0,2.3-1,2.3-2.3
						c0-1.3-1-2.3-2.3-2.3v-5.3h159.9C475,178.2,477.5,180.8,477.5,183.9z"/>
					<path fill="#333333" d="M309.6,185.8c0,1.3,1,2.3,2.3,2.3v5.7H164.2v186h147.7v15.5h-157c-3.2,0-5.7-2.6-5.7-5.7V183.9
						c0-3.1,2.6-5.7,5.7-5.7h157v5.3C310.7,183.5,309.6,184.6,309.6,185.8z"/>
					<path fill="#E6E7E8" d="M517.2,396.6v7.5H311.9v-4.6c16,0,32.8,0,34.1-0.1c2.4-0.2,3-2.9,3-2.9H517.2z"/>
					<path fill="#DDDDDD" d="M311.9,396.6l-32.7,0c0.3,2.2,2.9,2.9,2.9,2.9s14.6,0,29.8,0v4.6H109.3v-7.5L311.9,396.6L311.9,396.6z"
						/>
					<path fill="#D1D3D4" d="M516.8,404.1c-7,10.8-19.9,11-19.9,11s-92.7,0.6-184.9,0.9v-11.8H516.8z"/>
					<path fill="#C9C9C9" d="M311.9,404.1v11.8c-87.6,0.2-174.8,0.2-181.8-0.9c-14.3-2.1-21.3-11-21.3-11H311.9z"/>
					<path fill="#BCBEC0" d="M349,396.6c0,0-0.5,2.7-3,2.9c-1.3,0.1-18,0.1-34.1,0.1v-2.9L349,396.6z"/>
					<path fill="#B7B7B7" d="M311.9,396.6v2.9c-15.3,0-29.8,0-29.8,0s-2.6-0.6-2.9-2.9L311.9,396.6z"/>
					<path fill="#6D6E71" d="M314.2,185.8c0,1.3-1,2.3-2.3,2.3v-1.2c0.6,0,1.1-0.5,1.1-1.1c0-0.6-0.5-1.1-1.1-1.1v-1.2
						C313.2,183.5,314.2,184.6,314.2,185.8z"/>
					<path fill="#5F6060" d="M310.9,185.8c0,0.6,0.5,1.1,1.1,1.1v1.2c-1.3,0-2.3-1-2.3-2.3c0-1.3,1-2.3,2.3-2.3v1.2
						C311.3,184.7,310.9,185.2,310.9,185.8z"/>
					<path fill="#797A7A" d="M311.9,184.7v2.2c-0.6,0-1.1-0.5-1.1-1.1C310.9,185.2,311.3,184.7,311.9,184.7z"/>
				</g>
				<path fill="#808285" d="M313,185.8c0,0.6-0.5,1.1-1.1,1.1v-2.2C312.5,184.7,313,185.2,313,185.8z"/>
			</g>
			<rect x="164.2" y="193.8" fill="#029E96" width="147.7" height="186"/>
			<rect x="311.9" y="193.8" fill="#00B0B0" width="151.2" height="186"/>
		</g>
		<polygon fill="#F1F2F2" points="402.4,245.2 402.4,349.8 312,349.8 312,316 364.5,316 364.5,312.7 312,312.7 312,296.9 
			364.5,296.9 364.5,293.7 312,293.7 312,279.2 364.5,279.2 364.5,275.9 312,275.9 312,245.2 		"/>
		<polygon fill="#E6E7E8" points="259.4,275.9 259.4,279.2 312,279.2 312,293.7 259.4,293.7 259.4,296.9 312,296.9 312,312.7 
			259.4,312.7 259.4,316 312,316 312,349.8 225.5,349.8 225.5,245.2 312,245.2 312,275.9 		"/>
		<rect x="225.5" y="236.3" fill="#BCBEC0" width="86.5" height="8.9"/>
		<rect x="312" y="236.3" fill="#D1D3D4" width="90.5" height="8.9"/>
		<circle fill="#E03B47" cx="230" cy="241" r="1.9"/>
		<circle fill="#FFE66C" cx="236.2" cy="241" r="1.9"/>
		<circle fill="#3EB571" cx="242.4" cy="241" r="1.9"/>
		<rect x="312" y="275.9" fill="#58595B" width="52.5" height="3.2"/>
		<rect x="259.4" y="275.9" fill="#414042" width="52.6" height="3.2"/>
		<rect x="312" y="312.7" fill="#58595B" width="52.5" height="3.3"/>
		<rect x="259.4" y="312.7" fill="#414042" width="52.6" height="3.3"/>
		<rect x="312" y="293.7" fill="#58595B" width="52.5" height="3.2"/>
		<rect x="259.4" y="293.7" fill="#414042" width="52.6" height="3.2"/>
	</g>
	<g>
		<g>
			<path fill="#FFFFFF" d="M196.8,265.8v132.9c0,5.2-4.2,9.4-9.4,9.4h-26.9v-3.8h0.2c3.7,0,6.6-2.9,6.6-6.6c0-3.7-2.9-6.6-6.6-6.6
				h-0.2v-4.7h31.3V278h-31.3v-7.3h5.3c0.6,0,1.1-0.5,1.1-1.1c0-0.6-0.5-1.1-1.1-1.1h-5.3v-3.1c0.8,0,1.5-0.7,1.5-1.5
				s-0.6-1.5-1.5-1.5v-6.1h26.9C192.6,256.4,196.8,260.6,196.8,265.8z"/>
			<path fill="#F4F4F4" d="M159,263.9c0,0.8,0.7,1.5,1.5,1.5v3.1h-5.2c-0.6,0-1.1,0.5-1.1,1.1c0,0.6,0.5,1.1,1.1,1.1h5.2v7.3h-29.9
				v108.5h29.9v4.7c-3.5,0.1-6.4,3-6.4,6.6c0,3.5,2.8,6.5,6.4,6.6v3.8h-26.4c-5.2,0-9.4-4.2-9.4-9.4V265.8c0-5.2,4.2-9.5,9.4-9.5
				h26.4v6.1C159.7,262.5,159,263.1,159,263.9z"/>
			<path fill="#FFFFFF" d="M163.1,396.2v2.9c0,0.5-0.4,0.9-0.9,0.9h-2.9c-0.5,0-0.9-0.4-0.9-0.9v-2.9c0-0.5,0.4-0.9,0.9-0.9h2.9
				C162.7,395.3,163.1,395.7,163.1,396.2z"/>
			<path fill="#D1D3D4" d="M166.8,269.6c0,0.6-0.5,1.1-1.1,1.1h-5.2v-2.2h5.2C166.4,268.5,166.8,269,166.8,269.6z"/>
			<path fill="#C6C6C6" d="M160.5,268.5v2.2h-5.2c-0.6,0-1.1-0.5-1.1-1.1c0-0.6,0.5-1.1,1.1-1.1H160.5z"/>
			<path fill="#D86866" d="M191.8,278v108.5h-31.3v-58.6h0.9c11,0,20-9,20-20c0-11-9-20-20-20h-0.9V278H191.8z"/>
			<path fill="#D15C56" d="M141.4,307.9c0,10.7,8.5,19.5,19.1,20v58.6h-29.9V278h29.9v9.9C149.9,288.3,141.4,297.1,141.4,307.9z"/>
			<path fill="#F4F4F4" d="M167.3,397.8c0,3.6-3,6.6-6.6,6.6c-0.1,0-0.1,0-0.2,0V400h1.6c0.5,0,0.9-0.4,0.9-0.9v-2.9
				c0-0.5-0.4-0.9-0.9-0.9h-1.6v-4.1c0.1,0,0.1,0,0.2,0C164.4,391.2,167.3,394.1,167.3,397.8z"/>
			<path fill="#EAEAEA" d="M158.4,396.2v2.9c0,0.5,0.4,0.9,0.9,0.9h1.2v4.4c-3.5-0.1-6.4-3-6.4-6.6s2.8-6.5,6.4-6.6v4.1h-1.2
				C158.8,395.3,158.4,395.7,158.4,396.2z"/>
			<path fill="#F4F4F4" d="M163.1,396.2v2.9c0,0.5-0.4,0.9-0.9,0.9h-2.9c-0.5,0-0.9-0.4-0.9-0.9v-2.9c0-0.5,0.4-0.9,0.9-0.9h2.9
				C162.7,395.3,163.1,395.7,163.1,396.2z"/>
			<path fill="#F4F4F4" d="M163.1,396.2v2.9c0,0.5-0.4,0.9-0.9,0.9h-1.6v-4.7h1.6C162.7,395.3,163.1,395.7,163.1,396.2z"/>
			<path fill="#EAEAEA" d="M160.5,395.3v4.7h-1.2c-0.5,0-0.9-0.4-0.9-0.9v-2.9c0-0.5,0.4-0.9,0.9-0.9H160.5z"/>
			<path fill="none" stroke="#FFFFFF" stroke-width="0.1" stroke-miterlimit="10" d="M162.8,396v2.9c0,0.5-0.4,0.9-0.9,0.9h-2.9
				c-0.5,0-0.9-0.4-0.9-0.9V396c0-0.5,0.4-0.9,0.9-0.9h2.9C162.5,395.1,162.8,395.5,162.8,396z"/>
			<path fill="#D1D3D4" d="M162,263.9c0,0.8-0.7,1.5-1.5,1.5v-0.8c0.3,0,0.6-0.3,0.6-0.6s-0.3-0.6-0.6-0.6v-0.8
				C161.3,262.5,162,263.1,162,263.9z"/>
			<path fill="#C6C6C6" d="M159.9,263.9c0,0.3,0.3,0.6,0.6,0.6v0.8c-0.8,0-1.5-0.7-1.5-1.5c0-0.8,0.7-1.5,1.5-1.5v0.8
				C160.2,263.3,159.9,263.6,159.9,263.9z"/>
			<path fill="#9A9A9B" d="M160.5,263.3v1.3c-0.3,0-0.6-0.3-0.6-0.6S160.2,263.3,160.5,263.3z"/>
			<path fill="#D1D3D4" d="M181.4,307.9c0,11-9,20-20,20h-0.9v-40h0.9C172.4,287.9,181.4,296.9,181.4,307.9z"/>
			<path fill="#BCBEC0" d="M160.5,287.9v40c-10.6-0.4-19.1-9.2-19.1-20C141.4,297.1,149.9,288.3,160.5,287.9z"/>
			<path fill="#A7A9AC" d="M161.2,263.9c0,0.3-0.3,0.6-0.6,0.6v-1.3C160.9,263.3,161.2,263.6,161.2,263.9z"/>
		</g>
		<rect x="160.6" y="357.5" fill="#58595B" width="20.5" height="2.7"/>
		<rect x="160.6" y="347.3" fill="#58595B" width="20.5" height="2.7"/>
		<rect x="160.6" y="337" fill="#58595B" width="20.5" height="2.7"/>
		<rect x="141.2" y="357.5" fill="#414042" width="19.5" height="2.7"/>
		<rect x="141.2" y="347.3" fill="#414042" width="19.5" height="2.7"/>
		<rect x="141.2" y="337" fill="#414042" width="19.5" height="2.7"/>
	</g>
</g>
</svg>
