<svg xmlns="http://www.w3.org/2000/svg" viewBox="0 0 612 592" enable-background="new 0 0 612 592"><circle fill="#3E4C4C" cx="306.6" cy="301" r="248.4"/><path fill="#D1D3D4" d="M479.1 183.3v206.3c0 3.8-3.1 6.9-6.9 6.9h-160.3v-1.3h159.9c3.1 0 5.7-2.6 5.7-5.7v-205.6c0-3.1-2.6-5.7-5.7-5.7h-159.9v-1.9h160.2c3.8.1 7 3.1 7 7z"/><path fill="#C9C9C9" d="M149.1 183.9v205.6c0 3.1 2.6 5.7 5.7 5.7h157v1.3h-157.2c-3.8 0-6.9-3.1-6.9-6.9v-206.3c0-3.9 3.1-6.9 6.9-6.9h157.4v1.9h-157c-3.3-.1-5.9 2.5-5.9 5.6z"/><path fill="#414042" d="M477.5 183.9v205.6c0 3.1-2.6 5.7-5.7 5.7h-159.9v-15.5h151.2v-186h-151.2v-5.7c1.3 0 2.3-1 2.3-2.3 0-1.3-1-2.3-2.3-2.3v-5.3h159.9c3.2.1 5.7 2.7 5.7 5.8z"/><path fill="#333" d="M309.6 185.8c0 1.3 1 2.3 2.3 2.3v5.7h-147.7v186h147.7v15.5h-157c-3.2 0-5.7-2.6-5.7-5.7v-205.7c0-3.1 2.6-5.7 5.7-5.7h157v5.3c-1.2 0-2.3 1.1-2.3 2.3z"/><path fill="#E6E7E8" d="M517.2 396.6v7.5h-205.3v-4.6c16 0 32.8 0 34.1-.1 2.4-.2 3-2.9 3-2.9h168.2z"/><path fill="#ddd" d="M311.9 396.6h-32.7c.3 2.2 2.9 2.9 2.9 2.9h29.8v4.6h-202.6v-7.5h202.6z"/><path fill="#D1D3D4" d="M516.8 404.1c-7 10.8-19.9 11-19.9 11s-92.7.6-184.9.9v-11.8h204.8z"/><path fill="#C9C9C9" d="M311.9 404.1v11.8c-87.6.2-174.8.2-181.8-.9-14.3-2.1-21.3-11-21.3-11h203.1z"/><path fill="#BCBEC0" d="M349 396.6s-.5 2.7-3 2.9c-1.3.1-18 .1-34.1.1v-2.9l37.1-.1z"/><path fill="#B7B7B7" d="M311.9 396.6v2.9h-29.8s-2.6-.6-2.9-2.9h32.7z"/><path fill="#6D6E71" d="M314.2 185.8c0 1.3-1 2.3-2.3 2.3v-1.2c.6 0 1.1-.5 1.1-1.1 0-.6-.5-1.1-1.1-1.1v-1.2c1.3 0 2.3 1.1 2.3 2.3z"/><path fill="#5F6060" d="M310.9 185.8c0 .6.5 1.1 1.1 1.1v1.2c-1.3 0-2.3-1-2.3-2.3 0-1.3 1-2.3 2.3-2.3v1.2c-.7 0-1.1.5-1.1 1.1z"/><path fill="#797A7A" d="M311.9 184.7v2.2c-.6 0-1.1-.5-1.1-1.1.1-.6.5-1.1 1.1-1.1z"/><path fill="#808285" d="M313 185.8c0 .6-.5 1.1-1.1 1.1v-2.2c.6 0 1.1.5 1.1 1.1z"/><path fill="#029E96" d="M164.2 193.8h147.7v186h-147.7z"/><path fill="#00B0B0" d="M311.9 193.8h151.2v186h-151.2z"/><path fill="#F1F2F2" d="M402.4 245.2v104.6h-90.4v-33.8h52.5v-3.3h-52.5v-15.8h52.5v-3.2h-52.5v-14.5h52.5v-3.3h-52.5v-30.7z"/><path fill="#E6E7E8" d="M259.4 275.9v3.3h52.6v14.5h-52.6v3.2h52.6v15.8h-52.6v3.3h52.6v33.8h-86.5v-104.6h86.5v30.7z"/><path fill="#BCBEC0" d="M225.5 236.3h86.5v8.9h-86.5z"/><path fill="#D1D3D4" d="M312 236.3h90.5v8.9h-90.5z"/><circle fill="#E03B47" cx="230" cy="241" r="1.9"/><circle fill="#FFE66C" cx="236.2" cy="241" r="1.9"/><circle fill="#3EB571" cx="242.4" cy="241" r="1.9"/><path fill="#58595B" d="M312 275.9h52.5v3.2h-52.5z"/><path fill="#414042" d="M259.4 275.9h52.6v3.2h-52.6z"/><path fill="#58595B" d="M312 312.7h52.5v3.3h-52.5z"/><path fill="#414042" d="M259.4 312.7h52.6v3.3h-52.6z"/><path fill="#58595B" d="M312 293.7h52.5v3.2h-52.5z"/><path fill="#414042" d="M259.4 293.7h52.6v3.2h-52.6z"/><path fill="#fff" d="M196.8 265.8v132.9c0 5.2-4.2 9.4-9.4 9.4h-26.9v-3.8h.2c3.7 0 6.6-2.9 6.6-6.6 0-3.7-2.9-6.6-6.6-6.6h-.2v-4.7h31.3v-108.4h-31.3v-7.3h5.3c.6 0 1.1-.5 1.1-1.1 0-.6-.5-1.1-1.1-1.1h-5.3v-3.1c.8 0 1.5-.7 1.5-1.5s-.6-1.5-1.5-1.5v-6.1h26.9c5.2.1 9.4 4.3 9.4 9.5z"/><path fill="#F4F4F4" d="M159 263.9c0 .8.7 1.5 1.5 1.5v3.1h-5.2c-.6 0-1.1.5-1.1 1.1 0 .6.5 1.1 1.1 1.1h5.2v7.3h-29.9v108.5h29.9v4.7c-3.5.1-6.4 3-6.4 6.6 0 3.5 2.8 6.5 6.4 6.6v3.8h-26.4c-5.2 0-9.4-4.2-9.4-9.4v-133c0-5.2 4.2-9.5 9.4-9.5h26.4v6.1c-.8.1-1.5.7-1.5 1.5z"/><path fill="#fff" d="M163.1 396.2v2.9c0 .5-.4.9-.9.9h-2.9c-.5 0-.9-.4-.9-.9v-2.9c0-.5.4-.9.9-.9h2.9c.5 0 .9.4.9.9z"/><path fill="#D1D3D4" d="M166.8 269.6c0 .6-.5 1.1-1.1 1.1h-5.2v-2.2h5.2c.7 0 1.1.5 1.1 1.1z"/><path fill="#C6C6C6" d="M160.5 268.5v2.2h-5.2c-.6 0-1.1-.5-1.1-1.1 0-.6.5-1.1 1.1-1.1h5.2z"/><path fill="#D86866" d="M191.8 278v108.5h-31.3v-58.6h.9c11 0 20-9 20-20s-9-20-20-20h-.9v-9.9h31.3z"/><path fill="#D15C56" d="M141.4 307.9c0 10.7 8.5 19.5 19.1 20v58.6h-29.9v-108.5h29.9v9.9c-10.6.4-19.1 9.2-19.1 20z"/><path fill="#F4F4F4" d="M167.3 397.8c0 3.6-3 6.6-6.6 6.6h-.2v-4.4h1.6c.5 0 .9-.4.9-.9v-2.9c0-.5-.4-.9-.9-.9h-1.6v-4.1h.2c3.7 0 6.6 2.9 6.6 6.6z"/><path fill="#EAEAEA" d="M158.4 396.2v2.9c0 .5.4.9.9.9h1.2v4.4c-3.5-.1-6.4-3-6.4-6.6s2.8-6.5 6.4-6.6v4.1h-1.2c-.5 0-.9.4-.9.9z"/><path fill="#F4F4F4" d="M163.1 396.2v2.9c0 .5-.4.9-.9.9h-2.9c-.5 0-.9-.4-.9-.9v-2.9c0-.5.4-.9.9-.9h2.9c.5 0 .9.4.9.9zM163.1 396.2v2.9c0 .5-.4.9-.9.9h-1.6v-4.7h1.6c.5 0 .9.4.9.9z"/><path fill="#EAEAEA" d="M160.5 395.3v4.7h-1.2c-.5 0-.9-.4-.9-.9v-2.9c0-.5.4-.9.9-.9h1.2z"/><path stroke="#fff" stroke-width=".1" stroke-miterlimit="10" d="M162.8 396v2.9c0 .5-.4.9-.9.9h-2.9c-.5 0-.9-.4-.9-.9v-2.9c0-.5.4-.9.9-.9h2.9c.6 0 .9.4.9.9z" fill="none"/><path fill="#D1D3D4" d="M162 263.9c0 .8-.7 1.5-1.5 1.5v-.8c.3 0 .6-.3.6-.6s-.3-.6-.6-.6v-.8c.8-.1 1.5.5 1.5 1.3z"/><path fill="#C6C6C6" d="M159.9 263.9c0 .3.3.6.6.6v.8c-.8 0-1.5-.7-1.5-1.5s.7-1.5 1.5-1.5v.8c-.3.2-.6.5-.6.8z"/><path fill="#9A9A9B" d="M160.5 263.3v1.3c-.3 0-.6-.3-.6-.6s.3-.7.6-.7z"/><path fill="#D1D3D4" d="M181.4 307.9c0 11-9 20-20 20h-.9v-40h.9c11 0 20 9 20 20z"/><path fill="#BCBEC0" d="M160.5 287.9v40c-10.6-.4-19.1-9.2-19.1-20s8.5-19.6 19.1-20z"/><path fill="#A7A9AC" d="M161.2 263.9c0 .3-.3.6-.6.6v-1.3c.3.1.6.4.6.7z"/><path fill="#58595B" d="M160.6 357.5h20.5v2.7h-20.5zM160.6 347.3h20.5v2.7h-20.5zM160.6 337h20.5v2.7h-20.5z"/><path fill="#414042" d="M141.2 357.5h19.5v2.7h-19.5zM141.2 347.3h19.5v2.7h-19.5zM141.2 337h19.5v2.7h-19.5z"/></svg>